G04 Layer: BottomLayer*
G04 EasyEDA v6.5.28, 2023-08-24 20:05:08*
G04 9c66aa1ce33b43c093e5003b3976a485,a91715704fb945b483ebfb4622a18937,10*
G04 Gerber Generator version 0.2*
G04 Scale: 100 percent, Rotated: No, Reflected: No *
G04 Dimensions in inches *
G04 leading zeros omitted , absolute positions ,3 integer and 6 decimal *
%FSLAX36Y36*%
%MOIN*%

%ADD10C,0.0300*%
%ADD11C,0.0200*%
%ADD12C,0.0100*%
%ADD13C,0.0709*%
%ADD14R,0.0709X0.0709*%
%ADD15R,0.0591X0.0591*%
%ADD16C,0.0591*%
%ADD17O,0.098425X0.070866*%
%ADD18R,0.0984X0.0709*%
%ADD19C,0.0240*%
%ADD20C,0.0480*%

%LPD*%
D10*
X1315000Y3275000D02*
G01*
X1315000Y3320000D01*
X1375000Y3320000D02*
G01*
X1315000Y3275000D01*
X1315000Y3080000D01*
X1375000Y3020000D01*
X545000Y3450000D02*
G01*
X555000Y3450000D01*
X620000Y3515000D01*
X1270000Y3515000D01*
X1295000Y3490000D01*
X1295000Y3340000D01*
X1315000Y3320000D01*
X1375000Y3320000D01*
D11*
X690000Y3328980D02*
G01*
X668980Y3350000D01*
X545000Y3350000D01*
X808299Y3480000D02*
G01*
X855100Y3479899D01*
X880000Y3455000D01*
X934899Y3455000D01*
X825299Y3256930D02*
G01*
X718369Y3150000D01*
X545000Y3150000D01*
X808258Y3420000D02*
G01*
X810000Y3418258D01*
X810000Y3280000D01*
X825299Y3264699D01*
X825299Y3256930D01*
X913000Y3210749D02*
G01*
X913000Y3147759D01*
X825299Y3256930D02*
G01*
X846760Y3235468D01*
X846760Y3055000D01*
D12*
X1070000Y3375000D02*
G01*
X1165000Y3375000D01*
X1200000Y3340000D01*
X1200000Y3080000D01*
X1235000Y3045000D01*
X1235000Y2910000D01*
X1195200Y3022500D02*
G01*
X1195000Y2980000D01*
X1175000Y2960000D01*
X970000Y2960000D01*
X935000Y2925000D01*
X935000Y2910000D01*
X841698Y2995000D02*
G01*
X900000Y2995000D01*
X915000Y3010000D01*
X915000Y3114259D01*
X913000Y3116260D01*
X733310Y2991500D02*
G01*
X838199Y2991500D01*
X841698Y2995000D01*
X920000Y3375000D02*
G01*
X1070000Y3375000D01*
X1006260Y3022500D02*
G01*
X978760Y2995000D01*
X940000Y2995000D01*
X870000Y2925000D01*
X635000Y2925000D01*
X610000Y2950000D01*
X610000Y3100000D01*
D13*
G01*
X1375000Y3320000D03*
G01*
X1375000Y3120000D03*
G01*
X1375000Y2920000D03*
G01*
X1375000Y3020000D03*
G01*
X1375000Y3220000D03*
D14*
G01*
X1375000Y3420000D03*
D15*
G01*
X934899Y3455000D03*
D16*
G01*
X1034899Y3455000D03*
G01*
X1134899Y3455000D03*
G01*
X1234899Y3455000D03*
D15*
G01*
X935000Y2910000D03*
D16*
G01*
X1035000Y2910000D03*
G01*
X1135000Y2910000D03*
G01*
X1235000Y2910000D03*
D17*
G01*
X545000Y3350000D03*
D13*
G01*
X545000Y3150000D03*
G01*
X545000Y2950000D03*
G01*
X545000Y3050000D03*
G01*
X545000Y3250000D03*
D18*
G01*
X545000Y3450000D03*
D19*
G01*
X920000Y3375000D03*
G01*
X1070000Y3375000D03*
G01*
X733310Y2991500D03*
G01*
X841700Y2995000D03*
G01*
X913000Y3116260D03*
G01*
X1006260Y3022500D03*
G01*
X1256999Y3305239D03*
G01*
X1256999Y3273739D03*
G01*
X1195240Y3022500D03*
G01*
X1195240Y3022500D03*
G01*
X825299Y3256930D03*
G01*
X846760Y3055000D03*
G01*
X913000Y3210749D03*
G01*
X913000Y3147759D03*
G01*
X808260Y3480000D03*
G01*
X808260Y3420000D03*
D20*
G01*
X630940Y3264839D03*
D19*
G01*
X610000Y3100000D03*
D20*
G01*
X690000Y3328980D03*
M02*
