M48
INCH,LZ
;FILE_FORMAT=2:4
;TYPE=PLATED
;Layer: PTH_Through
;EasyEDA v6.5.37, 2023-10-31 21:51:45
;92e80ba92b534569934612c00dbf32e0,a91715704fb945b483ebfb4622a18937,10
;Gerber Generator version 0.2
;Holesize 1 = 0.0120 inch
T01C0.0120
;Holesize 2 = 0.0240 inch
T02C0.0240
;Holesize 3 = 0.0350 inch
T03C0.0350
;Holesize 4 = 0.0470 inch
T04C0.0470
%
G05
G90
T01
X009200Y033750
X010700Y033750
X007333Y029915
X008417Y029950
X009130Y031163
X010063Y030225
X012570Y033052
X012570Y032737
X011952Y030225
X011952Y030225
X008253Y032569
X008468Y030550
X009130Y032107
X009130Y031478
X008083Y034800
X008083Y034200
X006100Y031000
T02
X006309Y032648
X006900Y033290
T03
X009349Y034550G85X009349Y034550
X010349Y034550G85X010349Y034550
X011349Y034550G85X011349Y034550
X012349Y034550G85X012349Y034550
X009350Y029100G85X009350Y029100
X010350Y029100G85X010350Y029100
X011350Y029100G85X011350Y029100
X012350Y029100G85X012350Y029100
T04
X013750Y033200
X013750Y031200
X013750Y029200
X013750Y030200
X013750Y032200
X013750Y034200
X005450Y033500
X005450Y031500
X005450Y029500
X005450Y030500
X005450Y032500
X005450Y034500
M30
