G04 Layer: TopPasteMaskLayer*
G04 EasyEDA v6.5.37, 2023-10-31 21:51:45*
G04 92e80ba92b534569934612c00dbf32e0,a91715704fb945b483ebfb4622a18937,10*
G04 Gerber Generator version 0.2*
G04 Scale: 100 percent, Rotated: No, Reflected: No *
G04 Dimensions in inches *
G04 leading zeros omitted , absolute positions ,3 integer and 6 decimal *
%FSLAX36Y36*%
%MOIN*%

%AMMACRO1*4,1,5,-0.0276,0.0226,0.0133,0.0226,0.0276,0.0077,0.0276,-0.0226,-0.0276,-0.0226,-0.0276,0.0226,0*%
%AMMACRO2*21,1,$1,$2,0,0,$3*%
%ADD10R,0.0551X0.0453*%
%ADD11MACRO1*%
%ADD12R,0.0236X0.0256*%
%ADD13R,0.0551X0.0472*%
%ADD14R,0.0295X0.0236*%
%ADD15MACRO2,0.0535X0.0484X0.0000*%
%ADD16R,0.0265X0.0620*%
%ADD17O,0.017717X0.064961*%
%ADD18O,0.064961X0.017717*%

%LPD*%
G36*
X636260Y3065820D02*
G01*
X634300Y3063860D01*
X634300Y3046139D01*
X636260Y3044180D01*
X655160Y3044180D01*
X657920Y3046139D01*
X657920Y3063860D01*
X655160Y3065820D01*
G37*
G36*
X674840Y3065820D02*
G01*
X672080Y3063860D01*
X672080Y3046139D01*
X674840Y3044180D01*
X693740Y3044180D01*
X695699Y3046139D01*
X695699Y3063860D01*
X693740Y3065820D01*
G37*
G36*
X835140Y3065820D02*
G01*
X832380Y3063860D01*
X832380Y3046139D01*
X835140Y3044180D01*
X854040Y3044180D01*
X856000Y3046139D01*
X856000Y3063860D01*
X854040Y3065820D01*
G37*
G36*
X796560Y3065820D02*
G01*
X794599Y3063860D01*
X794599Y3046139D01*
X796560Y3044180D01*
X815460Y3044180D01*
X818220Y3046139D01*
X818220Y3063860D01*
X815460Y3065820D01*
G37*
G36*
X798700Y3490640D02*
G01*
X797120Y3489060D01*
X797120Y3470940D01*
X798700Y3469360D01*
X818420Y3469360D01*
X819980Y3470940D01*
X819980Y3489060D01*
X818420Y3490640D01*
G37*
G36*
X832200Y3490640D02*
G01*
X830620Y3489060D01*
X830620Y3470940D01*
X832200Y3469360D01*
X851900Y3469360D01*
X853480Y3470940D01*
X853480Y3489060D01*
X851900Y3490640D01*
G37*
G36*
X798700Y3430640D02*
G01*
X797120Y3429060D01*
X797120Y3410940D01*
X798700Y3409360D01*
X818420Y3409360D01*
X819980Y3410940D01*
X819980Y3429060D01*
X818420Y3430640D01*
G37*
G36*
X832200Y3430640D02*
G01*
X830620Y3429060D01*
X830620Y3410940D01*
X832200Y3409360D01*
X851900Y3409360D01*
X853480Y3410940D01*
X853480Y3429060D01*
X851900Y3430640D01*
G37*
D10*
G01*
X733310Y2991500D03*
D11*
G01*
X646687Y2928504D03*
D10*
G01*
X646689Y2991500D03*
G01*
X733310Y2928499D03*
D12*
G01*
X841700Y2995000D03*
G01*
X808299Y2995000D03*
G01*
X841700Y2940000D03*
G01*
X808299Y2940000D03*
D13*
G01*
X825299Y3256930D03*
G01*
X825299Y3123069D03*
D14*
G01*
X854830Y3340000D03*
G01*
X805770Y3340000D03*
D15*
G01*
X689994Y3501023D03*
G01*
X689994Y3328976D03*
D16*
G01*
X749050Y3264839D03*
G01*
X630940Y3264839D03*
G36*
X652604Y3121547D02*
G01*
X652604Y3194548D01*
X652647Y3196301D01*
X652770Y3198049D01*
X652975Y3199792D01*
X653261Y3201521D01*
X653629Y3203236D01*
X654076Y3204931D01*
X654601Y3206604D01*
X655205Y3208251D01*
X655886Y3209866D01*
X656642Y3211450D01*
X657471Y3212995D01*
X658371Y3214499D01*
X659342Y3215961D01*
X660378Y3217375D01*
X661480Y3218737D01*
X662647Y3220048D01*
X663872Y3221302D01*
X665154Y3222498D01*
X666491Y3223633D01*
X667880Y3224702D01*
X669319Y3225707D01*
X670801Y3226642D01*
X672328Y3227507D01*
X673891Y3228299D01*
X677013Y3229018D01*
X677013Y3295841D01*
X702997Y3295841D01*
X702997Y3229018D01*
X706122Y3228299D01*
X707685Y3227507D01*
X709211Y3226642D01*
X710695Y3225707D01*
X712133Y3224702D01*
X713521Y3223633D01*
X714859Y3222498D01*
X716141Y3221302D01*
X717366Y3220048D01*
X718533Y3218737D01*
X719634Y3217375D01*
X720671Y3215961D01*
X721642Y3214499D01*
X722543Y3212995D01*
X723371Y3211450D01*
X724126Y3209866D01*
X724807Y3208251D01*
X725412Y3206604D01*
X725938Y3204931D01*
X726384Y3203236D01*
X726752Y3201521D01*
X727038Y3199792D01*
X727244Y3198049D01*
X727366Y3196301D01*
X727408Y3194548D01*
X727408Y3121547D01*
X727366Y3119794D01*
X727244Y3118046D01*
X727038Y3116304D01*
X726752Y3114573D01*
X726384Y3112858D01*
X725938Y3111164D01*
X725412Y3109490D01*
X724807Y3107845D01*
X724126Y3106228D01*
X723371Y3104645D01*
X722543Y3103101D01*
X721642Y3101596D01*
X720671Y3100134D01*
X719634Y3098721D01*
X718533Y3097358D01*
X717366Y3096046D01*
X716141Y3094792D01*
X714859Y3093596D01*
X713521Y3092463D01*
X712133Y3091392D01*
X710695Y3090389D01*
X709211Y3089453D01*
X707685Y3088589D01*
X706122Y3087795D01*
X704522Y3087078D01*
X702890Y3086435D01*
X701230Y3085870D01*
X699546Y3085383D01*
X697840Y3084976D01*
X696118Y3084648D01*
X694380Y3084403D01*
X692634Y3084238D01*
X690884Y3084157D01*
X689130Y3084157D01*
X687379Y3084238D01*
X685632Y3084403D01*
X683896Y3084648D01*
X682174Y3084976D01*
X680468Y3085383D01*
X678782Y3085870D01*
X677123Y3086435D01*
X675491Y3087078D01*
X673891Y3087795D01*
X672328Y3088589D01*
X670801Y3089453D01*
X669319Y3090389D01*
X667880Y3091392D01*
X666491Y3092463D01*
X665154Y3093596D01*
X663872Y3094792D01*
X662647Y3096046D01*
X661480Y3097358D01*
X660378Y3098721D01*
X659342Y3100134D01*
X658371Y3101596D01*
X657471Y3103101D01*
X656642Y3104645D01*
X655886Y3106228D01*
X655205Y3107845D01*
X654601Y3109490D01*
X654076Y3111164D01*
X653629Y3112858D01*
X653261Y3114573D01*
X652975Y3116304D01*
X652770Y3118046D01*
X652647Y3119794D01*
G37*
D17*
G01*
X974759Y3367500D03*
G01*
X1006260Y3367500D03*
G01*
X1037759Y3367500D03*
G01*
X1069250Y3367500D03*
G01*
X1100749Y3367500D03*
G01*
X1132240Y3367500D03*
G01*
X1163739Y3367500D03*
G01*
X1195240Y3367500D03*
D18*
G01*
X1256999Y3305239D03*
G01*
X1256999Y3273739D03*
G01*
X1256999Y3242240D03*
G01*
X1256999Y3210749D03*
G01*
X1256999Y3179250D03*
G01*
X1256999Y3147759D03*
G01*
X1256999Y3116260D03*
G01*
X1256999Y3084760D03*
D17*
G01*
X1195240Y3022500D03*
G01*
X1163739Y3022500D03*
G01*
X1132240Y3022500D03*
G01*
X1100749Y3022500D03*
G01*
X1069250Y3022500D03*
G01*
X1037759Y3022500D03*
G01*
X1006260Y3022500D03*
G01*
X974759Y3022500D03*
D18*
G01*
X913000Y3084760D03*
G01*
X913000Y3116260D03*
G01*
X913000Y3147759D03*
G01*
X913000Y3179250D03*
G01*
X913000Y3210749D03*
G01*
X913000Y3242240D03*
G01*
X913000Y3273739D03*
G01*
X913000Y3305239D03*
M02*
