G04 Layer: TopSilkscreenLayer*
G04 EasyEDA v6.5.37, 2023-10-31 21:51:45*
G04 92e80ba92b534569934612c00dbf32e0,a91715704fb945b483ebfb4622a18937,10*
G04 Gerber Generator version 0.2*
G04 Scale: 100 percent, Rotated: No, Reflected: No *
G04 Dimensions in inches *
G04 leading zeros omitted , absolute positions ,3 integer and 6 decimal *
%FSLAX36Y36*%
%MOIN*%

%ADD10C,0.0040*%
%ADD11C,0.0060*%
%ADD12C,0.0039*%
%ADD13C,0.0080*%
%ADD14C,0.0100*%
%ADD15C,0.0059*%
%ADD16C,0.0079*%
%ADD17C,0.0118*%
%ADD18C,0.0157*%
%ADD19C,0.0167*%

%LPD*%
D10*
X655000Y2876500D02*
G01*
X656799Y2877500D01*
X659499Y2880200D01*
X659499Y2861100D01*
X676500Y2877500D02*
G01*
X675500Y2879299D01*
X672800Y2880200D01*
X670999Y2880200D01*
X668299Y2879299D01*
X666500Y2876500D01*
X665500Y2871999D01*
X665500Y2867500D01*
X666500Y2863800D01*
X668299Y2861999D01*
X670999Y2861100D01*
X671900Y2861100D01*
X674600Y2861999D01*
X676500Y2863800D01*
X677399Y2866500D01*
X677399Y2867500D01*
X676500Y2870200D01*
X674600Y2871999D01*
X671900Y2872899D01*
X670999Y2872899D01*
X668299Y2871999D01*
X666500Y2870200D01*
X665500Y2867500D01*
X683400Y2880200D02*
G01*
X683400Y2861100D01*
X683400Y2880200D02*
G01*
X690599Y2861100D01*
X697899Y2880200D02*
G01*
X690599Y2861100D01*
X697899Y2880200D02*
G01*
X697899Y2861100D01*
X703899Y2880200D02*
G01*
X703899Y2861100D01*
X716599Y2880200D02*
G01*
X716599Y2861100D01*
X703899Y2871100D02*
G01*
X716599Y2871100D01*
X735399Y2880200D02*
G01*
X722600Y2861100D01*
X722600Y2880200D02*
G01*
X735399Y2880200D01*
X722600Y2861100D02*
G01*
X735399Y2861100D01*
D11*
X823450Y3030399D02*
G01*
X822550Y3032199D01*
X820749Y3034000D01*
X818950Y3034899D01*
X815349Y3034899D01*
X813549Y3034000D01*
X811750Y3032199D01*
X810850Y3030399D01*
X810050Y3027700D01*
X810050Y3023200D01*
X810850Y3020500D01*
X811750Y3018800D01*
X813549Y3016999D01*
X815349Y3016100D01*
X818950Y3016100D01*
X820749Y3016999D01*
X822550Y3018800D01*
X823450Y3020500D01*
X829350Y3031300D02*
G01*
X831149Y3032199D01*
X833850Y3034899D01*
X833850Y3016100D01*
X823400Y2880399D02*
G01*
X822500Y2882199D01*
X820699Y2884000D01*
X818900Y2884899D01*
X815399Y2884899D01*
X813599Y2884000D01*
X811800Y2882199D01*
X810900Y2880399D01*
X810000Y2877700D01*
X810000Y2873200D01*
X810900Y2870500D01*
X811800Y2868800D01*
X813599Y2866999D01*
X815399Y2866100D01*
X818900Y2866100D01*
X820699Y2866999D01*
X822500Y2868800D01*
X823400Y2870500D01*
X830200Y2880399D02*
G01*
X830200Y2881300D01*
X831099Y2883099D01*
X831999Y2884000D01*
X833800Y2884899D01*
X837399Y2884899D01*
X839200Y2884000D01*
X840100Y2883099D01*
X841000Y2881300D01*
X841000Y2879499D01*
X840100Y2877700D01*
X838299Y2875000D01*
X829300Y2866100D01*
X841899Y2866100D01*
X728395Y3085399D02*
G01*
X727496Y3087199D01*
X725695Y3089000D01*
X723895Y3089899D01*
X720396Y3089899D01*
X718595Y3089000D01*
X716795Y3087199D01*
X715895Y3085399D01*
X714996Y3082700D01*
X714996Y3078200D01*
X715895Y3075500D01*
X716795Y3073800D01*
X718595Y3071999D01*
X720396Y3071100D01*
X723895Y3071100D01*
X725695Y3071999D01*
X727496Y3073800D01*
X728395Y3075500D01*
X736095Y3089899D02*
G01*
X745996Y3089899D01*
X740596Y3082700D01*
X743296Y3082700D01*
X745095Y3081799D01*
X745996Y3080900D01*
X746896Y3078200D01*
X746896Y3076399D01*
X745996Y3073800D01*
X744196Y3071999D01*
X741496Y3071100D01*
X738796Y3071100D01*
X736095Y3071999D01*
X735196Y3072899D01*
X734295Y3074699D01*
X823450Y3090399D02*
G01*
X822550Y3092199D01*
X820749Y3094000D01*
X818950Y3094899D01*
X815349Y3094899D01*
X813549Y3094000D01*
X811750Y3092199D01*
X810850Y3090399D01*
X810050Y3087700D01*
X810050Y3083200D01*
X810850Y3080500D01*
X811750Y3078800D01*
X813549Y3076999D01*
X815349Y3076100D01*
X818950Y3076100D01*
X820749Y3076999D01*
X822550Y3078800D01*
X823450Y3080500D01*
X838249Y3094899D02*
G01*
X829350Y3082300D01*
X842749Y3082300D01*
X838249Y3094899D02*
G01*
X838249Y3076100D01*
X810299Y3309899D02*
G01*
X810299Y3291100D01*
X810299Y3309899D02*
G01*
X816599Y3309899D01*
X819200Y3309000D01*
X821000Y3307199D01*
X821899Y3305399D01*
X822799Y3302700D01*
X822799Y3298200D01*
X821899Y3295500D01*
X821000Y3293800D01*
X819200Y3291999D01*
X816599Y3291100D01*
X810299Y3291100D01*
X828699Y3306300D02*
G01*
X830500Y3307199D01*
X833199Y3309899D01*
X833199Y3291100D01*
X800299Y3389899D02*
G01*
X800299Y3371100D01*
X800299Y3371100D02*
G01*
X811000Y3371100D01*
X816899Y3389899D02*
G01*
X816899Y3371100D01*
X816899Y3389899D02*
G01*
X828599Y3389899D01*
X816899Y3380900D02*
G01*
X824099Y3380900D01*
X816899Y3371100D02*
G01*
X828599Y3371100D01*
X834499Y3389899D02*
G01*
X834499Y3371100D01*
X834499Y3389899D02*
G01*
X840699Y3389899D01*
X843400Y3389000D01*
X845200Y3387199D01*
X846099Y3385399D01*
X846999Y3382700D01*
X846999Y3378200D01*
X846099Y3375500D01*
X845200Y3373800D01*
X843400Y3371999D01*
X840699Y3371100D01*
X834499Y3371100D01*
X853800Y3385399D02*
G01*
X853800Y3386300D01*
X854700Y3388099D01*
X855600Y3389000D01*
X857399Y3389899D01*
X861000Y3389899D01*
X862799Y3389000D01*
X863599Y3388099D01*
X864499Y3386300D01*
X864499Y3384499D01*
X863599Y3382700D01*
X861899Y3380000D01*
X852899Y3371100D01*
X865399Y3371100D01*
X810848Y3524899D02*
G01*
X810848Y3506100D01*
X810848Y3524899D02*
G01*
X818949Y3524899D01*
X821549Y3524000D01*
X822448Y3523099D01*
X823348Y3521300D01*
X823348Y3519499D01*
X822448Y3517700D01*
X821549Y3516799D01*
X818949Y3515900D01*
X810848Y3515900D01*
X817148Y3515900D02*
G01*
X823348Y3506100D01*
X829248Y3521300D02*
G01*
X831049Y3522199D01*
X833748Y3524899D01*
X833748Y3506100D01*
X810898Y3459899D02*
G01*
X810898Y3441100D01*
X810898Y3459899D02*
G01*
X818899Y3459899D01*
X821598Y3459000D01*
X822498Y3458099D01*
X823398Y3456300D01*
X823398Y3454499D01*
X822498Y3452700D01*
X821598Y3451799D01*
X818899Y3450900D01*
X810898Y3450900D01*
X817098Y3450900D02*
G01*
X823398Y3441100D01*
X831099Y3459899D02*
G01*
X840898Y3459899D01*
X835498Y3452700D01*
X838199Y3452700D01*
X839998Y3451799D01*
X840898Y3450900D01*
X841799Y3448200D01*
X841799Y3446399D01*
X840898Y3443800D01*
X839098Y3441999D01*
X836399Y3441100D01*
X833798Y3441100D01*
X831099Y3441999D01*
X830199Y3442899D01*
X829299Y3444699D01*
X1070000Y2984899D02*
G01*
X1070000Y2966100D01*
X1070000Y2984899D02*
G01*
X1078100Y2984899D01*
X1080699Y2984000D01*
X1081599Y2983099D01*
X1082500Y2981300D01*
X1082500Y2978600D01*
X1081599Y2976799D01*
X1080699Y2975900D01*
X1078100Y2975000D01*
X1070000Y2975000D01*
X1089300Y2980399D02*
G01*
X1089300Y2981300D01*
X1090200Y2983099D01*
X1091099Y2984000D01*
X1092899Y2984899D01*
X1096499Y2984899D01*
X1098299Y2984000D01*
X1099200Y2983099D01*
X1100100Y2981300D01*
X1100100Y2979499D01*
X1099200Y2977700D01*
X1097399Y2975000D01*
X1088400Y2966100D01*
X1101000Y2966100D01*
D12*
X1000000Y3229899D02*
G01*
X1000000Y3216399D01*
X1000900Y3213800D01*
X1002700Y3211999D01*
X1005399Y3211100D01*
X1007200Y3211100D01*
X1009799Y3211999D01*
X1011599Y3213800D01*
X1012500Y3216399D01*
X1012500Y3229899D01*
X1018400Y3226300D02*
G01*
X1020200Y3227199D01*
X1022899Y3229899D01*
X1022899Y3211100D01*
D11*
X635000Y3204899D02*
G01*
X635000Y3191399D01*
X635900Y3188800D01*
X637699Y3186999D01*
X640399Y3186100D01*
X642199Y3186100D01*
X644800Y3186999D01*
X646599Y3188800D01*
X647500Y3191399D01*
X647500Y3204899D01*
X662399Y3204899D02*
G01*
X653400Y3192300D01*
X666900Y3192300D01*
X662399Y3204899D02*
G01*
X662399Y3186100D01*
G36*
X626320Y3338220D02*
G01*
X626320Y3326220D01*
X657220Y3326220D01*
X657220Y3338220D01*
G37*
G36*
X722760Y3338220D02*
G01*
X722760Y3326220D01*
X753680Y3326220D01*
X753680Y3338220D01*
G37*
D13*
X607319Y2893074D02*
G01*
X772673Y2893074D01*
X772673Y3026932D01*
X607319Y3026932D01*
X607319Y2893074D01*
D11*
X817699Y3011999D02*
G01*
X792699Y3011999D01*
X792699Y2978000D01*
X813698Y2978000D01*
X817699Y2978000D01*
X832699Y2978000D02*
G01*
X856698Y2978000D01*
X856698Y3011999D01*
X835699Y3011999D01*
X832699Y3011999D01*
X817700Y2956999D02*
G01*
X792700Y2956999D01*
X792700Y2923000D01*
X813699Y2923000D01*
X817700Y2923000D01*
X832700Y2923000D02*
G01*
X856700Y2923000D01*
X856700Y2956999D01*
X835699Y2956999D01*
X832700Y2956999D01*
X705012Y3074630D02*
G01*
X673906Y3074630D01*
X673906Y3035369D02*
G01*
X705012Y3035369D01*
X711012Y3041370D02*
G01*
X711012Y3068629D01*
X624987Y3074630D02*
G01*
X656093Y3074630D01*
X656093Y3035369D02*
G01*
X624987Y3035369D01*
X618987Y3041370D02*
G01*
X618987Y3068629D01*
X785288Y3035369D02*
G01*
X816394Y3035369D01*
X816394Y3074630D02*
G01*
X785288Y3074630D01*
X779287Y3068629D02*
G01*
X779287Y3041370D01*
X865312Y3035369D02*
G01*
X834206Y3035369D01*
X834206Y3074630D02*
G01*
X865312Y3074630D01*
X871311Y3068629D02*
G01*
X871311Y3041370D01*
D14*
X825299Y3210000D02*
G01*
X841300Y3170000D01*
X841300Y3170000D02*
G01*
X809300Y3170000D01*
X809300Y3170000D02*
G01*
X825299Y3210000D01*
X864669Y3249054D02*
G01*
X864669Y3130945D01*
X785929Y3249054D02*
G01*
X785929Y3130945D01*
X845299Y3210000D02*
G01*
X805299Y3210000D01*
X825299Y3220000D02*
G01*
X825299Y3160000D01*
D15*
X837799Y3315949D02*
G01*
X879799Y3315949D01*
X879799Y3362950D01*
X837799Y3362950D01*
D11*
X781800Y3315949D02*
G01*
X780299Y3316450D01*
X770799Y3325949D01*
X770799Y3352950D01*
X780799Y3362950D01*
X781800Y3315949D02*
G01*
X821800Y3315949D01*
X780799Y3362950D02*
G01*
X821800Y3362950D01*
X834206Y3499630D02*
G01*
X862475Y3499630D01*
X862475Y3460369D01*
X834206Y3460369D01*
X816394Y3499630D02*
G01*
X788125Y3499630D01*
X788125Y3460369D01*
X816394Y3460369D01*
X834206Y3439630D02*
G01*
X862475Y3439630D01*
X862475Y3400369D01*
X834206Y3400369D01*
X816394Y3439630D02*
G01*
X788125Y3439630D01*
X788125Y3400369D01*
X816394Y3400369D01*
X629317Y3335228D02*
G01*
X629317Y3494771D01*
X629317Y3494771D02*
G01*
X655223Y3494771D01*
X750671Y3335228D02*
G01*
X750671Y3494771D01*
X750671Y3494771D02*
G01*
X724767Y3494771D01*
X598413Y3239095D02*
G01*
X598413Y3134670D01*
X643641Y3134670D01*
X781576Y3239095D02*
G01*
X781576Y3134670D01*
X736347Y3134670D01*
D14*
X1425000Y3480000D02*
G01*
X1425000Y2860313D01*
X1325000Y2860156D02*
G01*
X1325000Y3479843D01*
X1425000Y3480000D02*
G01*
X1325000Y3479843D01*
X1425000Y2860000D02*
G01*
X1325000Y2860156D01*
D16*
X1284899Y3505000D02*
G01*
X1284899Y3405000D01*
X884899Y3405000D01*
X884899Y3505000D01*
X1284899Y3505000D01*
X1285000Y2960000D02*
G01*
X1285000Y2860000D01*
X885000Y2860000D01*
X885000Y2960000D01*
X1285000Y2960000D01*
D14*
X1201139Y3311640D02*
G01*
X968860Y3311640D01*
X968860Y3079360D01*
X1201139Y3079360D01*
X1201139Y3311640D01*
X595000Y3510000D02*
G01*
X595000Y2890313D01*
X495000Y2890156D02*
G01*
X495000Y3509843D01*
X595000Y3510000D02*
G01*
X495000Y3509843D01*
X595000Y2890000D02*
G01*
X495000Y2890156D01*
D17*
G75*
G01*
X615196Y2879303D02*
G03*
X615296Y2879303I50J-5906D01*
D11*
G75*
G01*
X705012Y3035370D02*
G03*
X711012Y3041370I0J6000D01*
G75*
G01*
X711012Y3068630D02*
G03*
X705012Y3074630I-6000J0D01*
G75*
G01*
X624988Y3035370D02*
G02*
X618988Y3041370I0J6000D01*
G75*
G01*
X618988Y3068630D02*
G02*
X624988Y3074630I6000J0D01*
G75*
G01*
X785288Y3074630D02*
G03*
X779288Y3068630I0J-6000D01*
G75*
G01*
X779288Y3041370D02*
G03*
X785288Y3035370I6000J0D01*
G75*
G01*
X865312Y3074630D02*
G02*
X871312Y3068630I0J-6000D01*
G75*
G01*
X871312Y3041370D02*
G02*
X865312Y3035370I-6000J0D01*
D17*
G75*
G01*
X925000Y3343000D02*
G03*
X925000Y3342900I-5906J-50D01*
D18*
G75*
G01*
X1006300Y3282100D02*
G03*
X1006300Y3282000I-7874J-50D01*
D14*
G75*
G01
X725430Y3415000D02*
G03X725430Y3415000I-35430J0D01*
M02*
