G04 Layer: TopSolderMaskLayer*
G04 EasyEDA v6.5.37, 2023-10-31 21:51:45*
G04 92e80ba92b534569934612c00dbf32e0,a91715704fb945b483ebfb4622a18937,10*
G04 Gerber Generator version 0.2*
G04 Scale: 100 percent, Rotated: No, Reflected: No *
G04 Dimensions in inches *
G04 leading zeros omitted , absolute positions ,3 integer and 6 decimal *
%FSLAX36Y36*%
%MOIN*%

%AMMACRO1*1,1,$1,$2,$3*1,1,$1,$4,$5*1,1,$1,0-$2,0-$3*1,1,$1,0-$4,0-$5*20,1,$1,$2,$3,$4,$5,0*20,1,$1,$4,$5,0-$2,0-$3,0*20,1,$1,0-$2,0-$3,0-$4,0-$5,0*20,1,$1,0-$4,0-$5,$2,$3,0*4,1,4,$2,$3,$4,$5,0-$2,0-$3,0-$4,0-$5,$2,$3,0*%
%AMMACRO2*4,1,38,-0.0275,-0.0266,-0.0287,-0.0264,-0.0299,-0.0258,-0.0307,-0.025,-0.0313,-0.0238,-0.0315,-0.0226,-0.0316,-0.0226,-0.0316,0.0226,-0.0315,0.0226,-0.0313,0.0238,-0.0307,0.025,-0.0299,0.0258,-0.0287,0.0264,-0.0275,0.0266,-0.0276,0.0266,0.0133,0.0266,0.0139,0.0265,0.0146,0.0264,0.0152,0.0261,0.0157,0.0258,0.0162,0.0254,0.0162,0.0254,0.0304,0.0105,0.0305,0.0105,0.0309,0.01,0.0312,0.0095,0.0316,0.0083,0.0316,0.0077,0.0315,0.0077,0.0315,-0.0226,0.0316,-0.0226,0.0314,-0.0238,0.0308,-0.025,0.03,-0.0258,0.0288,-0.0264,0.0276,-0.0266,0.0275,-0.0266,-0.0276,-0.0266,-0.0275,-0.0266,0*%
%ADD10MACRO1,0.008X-0.0276X0.0226X0.0276X0.0226*%
%ADD11MACRO2*%
%ADD12MACRO1,0.004X-0.0118X0.0128X0.0118X0.0128*%
%ADD13MACRO1,0.004X-0.0156X-0.0106X-0.0156X0.0106*%
%ADD14MACRO1,0.004X0.0156X-0.0106X0.0156X0.0106*%
%ADD15MACRO1,0.004X0.0156X0.0106X0.0156X-0.0106*%
%ADD16MACRO1,0.004X-0.0156X0.0106X-0.0156X-0.0106*%
%ADD17MACRO1,0.004X0.0276X0.0236X0.0276X-0.0236*%
%ADD18MACRO1,0.004X-0.0148X0.0118X0.0148X0.0118*%
%ADD19MACRO1,0.004X0.0111X0.0106X0.0111X-0.0106*%
%ADD20MACRO1,0.004X-0.0111X0.0106X-0.0111X-0.0106*%
%ADD21MACRO1,0.004X0.0268X-0.0242X-0.0268X-0.0242*%
%ADD22MACRO1,0.004X0.0268X0.0242X-0.0268X0.0242*%
%ADD23MACRO1,0.004X0.0132X0.031X-0.0132X0.031*%
%ADD24C,0.0789*%
%ADD25MACRO1,0.008X0.0354X0.0354X0.0354X-0.0354*%
%ADD26MACRO1,0.008X-0.0295X0.0295X0.0295X0.0295*%
%ADD27C,0.0671*%
%ADD28O,0.021717X0.06896100000000001*%
%ADD29O,0.06896100000000001X0.021717*%
%ADD30O,0.10642499999999998X0.07886599999999999*%
%ADD31MACRO1,0.008X0.0492X0.0354X0.0492X-0.0354*%

%LPD*%
D10*
G01*
X733306Y2991503D03*
D11*
G01*
X646674Y2928502D03*
D10*
G01*
X646685Y2991503D03*
G01*
X733306Y2928502D03*
D12*
G01*
X841699Y2995000D03*
G01*
X808299Y2995000D03*
G01*
X841699Y2940000D03*
G01*
X808300Y2940000D03*
D13*
G01*
X686458Y3055000D03*
D14*
G01*
X643541Y3055000D03*
D15*
G01*
X803841Y3055000D03*
D16*
G01*
X846759Y3055000D03*
D17*
G01*
X825299Y3256929D03*
G01*
X825299Y3123071D03*
D18*
G01*
X854830Y3340000D03*
G01*
X805768Y3340000D03*
D19*
G01*
X808259Y3480000D03*
D20*
G01*
X842340Y3480000D03*
D19*
G01*
X808259Y3420000D03*
D20*
G01*
X842340Y3420000D03*
D21*
G01*
X689994Y3501023D03*
D22*
G01*
X689994Y3328976D03*
D23*
G01*
X749049Y3264836D03*
G01*
X630940Y3264836D03*
G36*
X689000Y3082199D02*
G01*
X687300Y3082300D01*
X687199Y3082300D01*
X685399Y3082399D01*
X685399Y3082500D01*
X683600Y3082700D01*
X683499Y3082700D01*
X681799Y3083000D01*
X681700Y3083099D01*
X680000Y3083499D01*
X679899Y3083499D01*
X678200Y3084000D01*
X678099Y3084000D01*
X676500Y3084600D01*
X676399Y3084600D01*
X674800Y3085200D01*
X674699Y3085300D01*
X673099Y3085999D01*
X673000Y3085999D01*
X671399Y3086799D01*
X671399Y3086900D01*
X669800Y3087700D01*
X669800Y3087800D01*
X668299Y3088699D01*
X668200Y3088800D01*
X666799Y3089800D01*
X666700Y3089800D01*
X665300Y3090900D01*
X665199Y3090999D01*
X663899Y3092100D01*
X663800Y3092199D01*
X662500Y3093400D01*
X661199Y3094699D01*
X660000Y3095999D01*
X659899Y3096100D01*
X658800Y3097500D01*
X658800Y3097600D01*
X657800Y3099000D01*
X657699Y3099000D01*
X656700Y3100500D01*
X656700Y3100599D01*
X655799Y3102100D01*
X655700Y3102199D01*
X654899Y3103699D01*
X654899Y3103800D01*
X654099Y3105399D01*
X654099Y3105500D01*
X653400Y3107100D01*
X653400Y3107199D01*
X652800Y3108800D01*
X652699Y3108899D01*
X652199Y3110599D01*
X652199Y3110700D01*
X651700Y3112399D01*
X651300Y3114200D01*
X651300Y3114299D01*
X650999Y3115999D01*
X650999Y3116100D01*
X650799Y3117800D01*
X650799Y3117899D01*
X650599Y3121500D01*
X650599Y3194600D01*
X650700Y3196300D01*
X650700Y3196399D01*
X650799Y3198200D01*
X650799Y3198299D01*
X650999Y3200000D01*
X650999Y3200100D01*
X651300Y3201799D01*
X651300Y3201900D01*
X651700Y3203699D01*
X652199Y3205399D01*
X652199Y3205500D01*
X652699Y3207199D01*
X652800Y3207300D01*
X653400Y3208899D01*
X653400Y3209000D01*
X654099Y3210599D01*
X654099Y3210700D01*
X654899Y3212300D01*
X654899Y3212399D01*
X655700Y3213899D01*
X655799Y3214000D01*
X656700Y3215500D01*
X656700Y3215599D01*
X657699Y3217100D01*
X657800Y3217100D01*
X658800Y3218499D01*
X658800Y3218600D01*
X659899Y3220000D01*
X660000Y3220000D01*
X661199Y3221399D01*
X662500Y3222700D01*
X663800Y3223899D01*
X663899Y3224000D01*
X665199Y3225100D01*
X665300Y3225200D01*
X666700Y3226300D01*
X666799Y3226300D01*
X668200Y3227300D01*
X668299Y3227399D01*
X669800Y3228299D01*
X669800Y3228400D01*
X671399Y3229200D01*
X671399Y3229299D01*
X673000Y3230100D01*
X673191Y3230100D01*
X673291Y3230200D01*
X673499Y3230200D01*
X675000Y3230500D01*
X675000Y3295799D01*
X675014Y3295841D01*
X675114Y3296441D01*
X675414Y3297041D01*
X675814Y3297441D01*
X676413Y3297741D01*
X677013Y3297842D01*
X676999Y3297800D01*
X703000Y3297800D01*
X702997Y3297842D01*
X703597Y3297741D01*
X704197Y3297441D01*
X704597Y3297041D01*
X704897Y3296441D01*
X704997Y3295841D01*
X705000Y3295799D01*
X705000Y3230500D01*
X706599Y3230200D01*
X706722Y3230200D01*
X706822Y3230100D01*
X706999Y3230100D01*
X708600Y3229299D01*
X708699Y3229200D01*
X710199Y3228400D01*
X710300Y3228299D01*
X711700Y3227399D01*
X711799Y3227300D01*
X713299Y3226300D01*
X714699Y3225200D01*
X714800Y3225100D01*
X716100Y3224000D01*
X716199Y3223899D01*
X717500Y3222700D01*
X717600Y3222700D01*
X718800Y3221399D01*
X720000Y3220000D01*
X720100Y3220000D01*
X721199Y3218600D01*
X721199Y3218499D01*
X722300Y3217100D01*
X723299Y3215599D01*
X723299Y3215500D01*
X724200Y3214000D01*
X724299Y3213899D01*
X725100Y3212399D01*
X725100Y3212300D01*
X725900Y3210700D01*
X725900Y3210599D01*
X726599Y3209000D01*
X726700Y3208899D01*
X727300Y3207300D01*
X727300Y3207199D01*
X727800Y3205500D01*
X727800Y3205399D01*
X728299Y3203699D01*
X728699Y3201900D01*
X728699Y3201799D01*
X729000Y3200100D01*
X729000Y3200000D01*
X729200Y3198299D01*
X729200Y3198200D01*
X729299Y3196399D01*
X729299Y3196300D01*
X729400Y3194600D01*
X729400Y3121500D01*
X729200Y3117899D01*
X729200Y3117800D01*
X729000Y3116100D01*
X729000Y3115999D01*
X728699Y3114299D01*
X728699Y3114200D01*
X728299Y3112399D01*
X727800Y3110700D01*
X727800Y3110599D01*
X727300Y3108899D01*
X727300Y3108800D01*
X726700Y3107199D01*
X726599Y3107100D01*
X725900Y3105500D01*
X725900Y3105399D01*
X725100Y3103800D01*
X725100Y3103699D01*
X724299Y3102199D01*
X724200Y3102100D01*
X723299Y3100599D01*
X723299Y3100500D01*
X722300Y3099000D01*
X721199Y3097600D01*
X721199Y3097500D01*
X720100Y3096100D01*
X720000Y3095999D01*
X717600Y3093400D01*
X717500Y3093400D01*
X716199Y3092199D01*
X716100Y3092100D01*
X714800Y3090999D01*
X714699Y3090900D01*
X713299Y3089800D01*
X711799Y3088800D01*
X711700Y3088699D01*
X710300Y3087800D01*
X710199Y3087700D01*
X708699Y3086900D01*
X708600Y3086799D01*
X706999Y3085999D01*
X706900Y3085999D01*
X705300Y3085300D01*
X705199Y3085200D01*
X703600Y3084600D01*
X703499Y3084600D01*
X701900Y3084000D01*
X701799Y3084000D01*
X700100Y3083499D01*
X700000Y3083499D01*
X698299Y3083099D01*
X698200Y3083000D01*
X696500Y3082700D01*
X696399Y3082700D01*
X694699Y3082500D01*
X694600Y3082399D01*
X692800Y3082300D01*
X692699Y3082300D01*
X690999Y3082199D01*
G37*
D24*
G01*
X1375000Y3320000D03*
G01*
X1375000Y3120000D03*
G01*
X1375000Y2920000D03*
G01*
X1375000Y3020000D03*
G01*
X1375000Y3220000D03*
D25*
G01*
X1375000Y3420000D03*
D26*
G01*
X934900Y3455000D03*
D27*
G01*
X1034899Y3455000D03*
G01*
X1134899Y3455000D03*
G01*
X1234899Y3455000D03*
D26*
G01*
X935000Y2910000D03*
D27*
G01*
X1035000Y2910000D03*
G01*
X1135000Y2910000D03*
G01*
X1235000Y2910000D03*
D28*
G01*
X974759Y3367500D03*
G01*
X1006260Y3367500D03*
G01*
X1037759Y3367500D03*
G01*
X1069250Y3367500D03*
G01*
X1100749Y3367500D03*
G01*
X1132240Y3367500D03*
G01*
X1163739Y3367500D03*
G01*
X1195240Y3367500D03*
D29*
G01*
X1256999Y3305239D03*
G01*
X1256999Y3273739D03*
G01*
X1256999Y3242240D03*
G01*
X1256999Y3210749D03*
G01*
X1256999Y3179250D03*
G01*
X1256999Y3147759D03*
G01*
X1256999Y3116260D03*
G01*
X1256999Y3084760D03*
D28*
G01*
X1195240Y3022500D03*
G01*
X1163739Y3022500D03*
G01*
X1132240Y3022500D03*
G01*
X1100749Y3022500D03*
G01*
X1069250Y3022500D03*
G01*
X1037759Y3022500D03*
G01*
X1006260Y3022500D03*
G01*
X974759Y3022500D03*
D29*
G01*
X913000Y3084760D03*
G01*
X913000Y3116260D03*
G01*
X913000Y3147759D03*
G01*
X913000Y3179250D03*
G01*
X913000Y3210749D03*
G01*
X913000Y3242240D03*
G01*
X913000Y3273739D03*
G01*
X913000Y3305239D03*
D30*
G01*
X545000Y3350000D03*
D24*
G01*
X545000Y3150000D03*
G01*
X545000Y2950000D03*
G01*
X545000Y3050000D03*
G01*
X545000Y3250000D03*
D31*
G01*
X545000Y3450000D03*
M02*
