solid 100mah电池支架
facet normal -1.0 -0.0 -0.0
  outer loop
    vertex 16.0 5.500000000000001 21.000000000000004
    vertex 15.999999999999993 6.500000000000001 20.000000000000004
    vertex 16.0 5.500000000000001 17.0
  endloop
endfacet
facet normal -1.0 -0.0 -0.0
  outer loop
    vertex 15.999999999999993 6.500000000000001 20.000000000000004
    vertex 16.0 5.500000000000001 21.000000000000004
    vertex 16.0 9.5 21.000000000000004
  endloop
endfacet
facet normal -1.0 -0.0 -0.0
  outer loop
    vertex 15.999999999999993 6.500000000000001 20.000000000000004
    vertex 16.0 9.5 21.000000000000004
    vertex 15.999999999999993 8.499999999999998 20.000000000000004
  endloop
endfacet
facet normal -1.0 -0.0 -0.0
  outer loop
    vertex 15.999999999999993 8.499999999999998 20.000000000000004
    vertex 16.0 9.5 21.000000000000004
    vertex 15.999999999999993 8.5 18.0
  endloop
endfacet
facet normal -1.0 -0.0 -0.0
  outer loop
    vertex 16.0 5.500000000000001 17.0
    vertex 15.999999999999993 6.500000000000001 18.0
    vertex 16.0 9.5 17.0
  endloop
endfacet
facet normal -1.0 -0.0 -0.0
  outer loop
    vertex 15.999999999999993 6.500000000000001 18.0
    vertex 16.0 5.500000000000001 17.0
    vertex 15.999999999999993 6.500000000000001 20.000000000000004
  endloop
endfacet
facet normal -1.0 -0.0 -0.0
  outer loop
    vertex 16.0 9.5 17.0
    vertex 15.999999999999993 6.500000000000001 18.0
    vertex 15.999999999999993 8.5 18.0
  endloop
endfacet
facet normal -1.0 -0.0 -0.0
  outer loop
    vertex 16.0 9.5 17.0
    vertex 15.999999999999993 8.5 18.0
    vertex 16.0 9.5 21.000000000000004
  endloop
endfacet
facet normal 0.0 0.0 1.0
  outer loop
    vertex 20.0 5.500000000000001 21.000000000000004
    vertex 16.0 9.5 21.000000000000004
    vertex 16.0 5.500000000000001 21.000000000000004
  endloop
endfacet
facet normal 0.0 0.0 1.0
  outer loop
    vertex 16.0 9.5 21.000000000000004
    vertex 20.0 5.500000000000001 21.000000000000004
    vertex 20.0 9.5 21.000000000000004
  endloop
endfacet
facet normal 0.0 0.0 1.0
  outer loop
    vertex 3.9999999999999996 5.5 21.000000000000004
    vertex 0.0 9.500000000000002 21.000000000000004
    vertex 0.0 5.5 21.000000000000004
  endloop
endfacet
facet normal 0.0 0.0 1.0
  outer loop
    vertex 0.0 9.500000000000002 21.000000000000004
    vertex 3.9999999999999996 5.5 21.000000000000004
    vertex 3.9999999999999996 9.500000000000002 21.000000000000004
  endloop
endfacet
facet normal 1.0 0.0 0.0
  outer loop
    vertex 3.9999999999999996 5.5 17.0
    vertex 3.9999999999999996 6.500000000000001 18.000000000000004
    vertex 3.9999999999999996 5.5 21.000000000000004
  endloop
endfacet
facet normal 1.0 0.0 0.0
  outer loop
    vertex 3.9999999999999996 6.500000000000001 18.000000000000004
    vertex 3.9999999999999996 5.5 17.0
    vertex 3.9999999999999996 9.500000000000002 17.0
  endloop
endfacet
facet normal 1.0 0.0 0.0
  outer loop
    vertex 3.9999999999999996 6.500000000000001 18.000000000000004
    vertex 3.9999999999999996 9.500000000000002 17.0
    vertex 3.9999999999999996 8.5 18.000000000000004
  endloop
endfacet
facet normal 1.0 0.0 0.0
  outer loop
    vertex 3.9999999999999996 8.5 18.000000000000004
    vertex 3.9999999999999996 9.500000000000002 17.0
    vertex 3.9999999999999996 8.5 20.000000000000007
  endloop
endfacet
facet normal 1.0 0.0 0.0
  outer loop
    vertex 3.9999999999999996 5.5 21.000000000000004
    vertex 3.9999999999999996 6.500000000000001 20.000000000000007
    vertex 3.9999999999999996 9.500000000000002 21.000000000000004
  endloop
endfacet
facet normal 1.0 0.0 0.0
  outer loop
    vertex 3.9999999999999996 6.500000000000001 20.000000000000007
    vertex 3.9999999999999996 5.5 21.000000000000004
    vertex 3.9999999999999996 6.500000000000001 18.000000000000004
  endloop
endfacet
facet normal 1.0 0.0 0.0
  outer loop
    vertex 3.9999999999999996 9.500000000000002 21.000000000000004
    vertex 3.9999999999999996 6.500000000000001 20.000000000000007
    vertex 3.9999999999999996 8.5 20.000000000000007
  endloop
endfacet
facet normal 1.0 0.0 0.0
  outer loop
    vertex 3.9999999999999996 9.500000000000002 21.000000000000004
    vertex 3.9999999999999996 8.5 20.000000000000007
    vertex 3.9999999999999996 9.500000000000002 17.0
  endloop
endfacet
facet normal 0.0 1.0 0.0
  outer loop
    vertex 0.0 9.500000000000002 21.000000000000004
    vertex 3.9999999999999996 9.500000000000002 17.0
    vertex 0.0 9.500000000000002 17.0
  endloop
endfacet
facet normal 0.0 1.0 0.0
  outer loop
    vertex 3.9999999999999996 9.500000000000002 17.0
    vertex 0.0 9.500000000000002 21.000000000000004
    vertex 3.9999999999999996 9.500000000000002 21.000000000000004
  endloop
endfacet
facet normal 0.0 -1.0 0.0
  outer loop
    vertex 3.9999999999999996 5.5 21.000000000000004
    vertex 0.0 5.5 17.0
    vertex 3.9999999999999996 5.5 17.0
  endloop
endfacet
facet normal 0.0 -1.0 0.0
  outer loop
    vertex 0.0 5.5 17.0
    vertex 3.9999999999999996 5.5 21.000000000000004
    vertex 0.0 5.5 21.000000000000004
  endloop
endfacet
facet normal -0.0 -0.0 -1.0
  outer loop
    vertex 20.0 8.499999999999998 20.000000000000004
    vertex 15.999999999999993 6.500000000000001 20.000000000000004
    vertex 15.999999999999993 8.499999999999998 20.000000000000004
  endloop
endfacet
facet normal -0.0 -0.0 -1.0
  outer loop
    vertex 15.999999999999993 6.500000000000001 20.000000000000004
    vertex 20.0 8.499999999999998 20.000000000000004
    vertex 20.0 6.500000000000001 20.000000000000004
  endloop
endfacet
facet normal 0.0 1.0 0.0
  outer loop
    vertex 15.999999999999993 6.500000000000001 20.000000000000004
    vertex 20.0 6.500000000000001 18.0
    vertex 15.999999999999993 6.500000000000001 18.0
  endloop
endfacet
facet normal 0.0 1.0 0.0
  outer loop
    vertex 20.0 6.500000000000001 18.0
    vertex 15.999999999999993 6.500000000000001 20.000000000000004
    vertex 20.0 6.500000000000001 20.000000000000004
  endloop
endfacet
facet normal 0.0 0.0 1.0
  outer loop
    vertex 20.0 6.500000000000001 18.0
    vertex 15.999999999999993 8.5 18.0
    vertex 15.999999999999993 6.500000000000001 18.0
  endloop
endfacet
facet normal 0.0 0.0 1.0
  outer loop
    vertex 15.999999999999993 8.5 18.0
    vertex 20.0 6.500000000000001 18.0
    vertex 20.0 8.5 18.0
  endloop
endfacet
facet normal -0.0 -1.0 -7.049916206369737e-16
  outer loop
    vertex 20.0 8.499999999999998 20.000000000000004
    vertex 15.999999999999993 8.5 18.0
    vertex 20.0 8.5 18.0
  endloop
endfacet
facet normal -0.0 -1.0 -7.049916206369737e-16
  outer loop
    vertex 15.999999999999993 8.5 18.0
    vertex 20.0 8.499999999999998 20.000000000000004
    vertex 15.999999999999993 8.499999999999998 20.000000000000004
  endloop
endfacet
facet normal 0.0 0.0 -1.0
  outer loop
    vertex 3.9999999999999996 8.5 20.000000000000007
    vertex 0.0 6.500000000000001 20.000000000000007
    vertex 0.0 8.5 20.000000000000007
  endloop
endfacet
facet normal 0.0 0.0 -1.0
  outer loop
    vertex 0.0 6.500000000000001 20.000000000000007
    vertex 3.9999999999999996 8.5 20.000000000000007
    vertex 3.9999999999999996 6.500000000000001 20.000000000000007
  endloop
endfacet
facet normal -0.0 -1.0 -0.0
  outer loop
    vertex 3.9999999999999996 8.5 20.000000000000007
    vertex 0.0 8.5 18.000000000000004
    vertex 3.9999999999999996 8.5 18.000000000000004
  endloop
endfacet
facet normal -0.0 -1.0 -0.0
  outer loop
    vertex 0.0 8.5 18.000000000000004
    vertex 3.9999999999999996 8.5 20.000000000000007
    vertex 0.0 8.5 20.000000000000007
  endloop
endfacet
facet normal 0.0 0.0 1.0
  outer loop
    vertex 3.9999999999999996 6.500000000000001 18.000000000000004
    vertex 0.0 8.5 18.000000000000004
    vertex 0.0 6.500000000000001 18.000000000000004
  endloop
endfacet
facet normal 0.0 0.0 1.0
  outer loop
    vertex 0.0 8.5 18.000000000000004
    vertex 3.9999999999999996 6.500000000000001 18.000000000000004
    vertex 3.9999999999999996 8.5 18.000000000000004
  endloop
endfacet
facet normal 0.0 1.0 0.0
  outer loop
    vertex 0.0 6.500000000000001 20.000000000000007
    vertex 3.9999999999999996 6.500000000000001 18.000000000000004
    vertex 0.0 6.500000000000001 18.000000000000004
  endloop
endfacet
facet normal 0.0 1.0 0.0
  outer loop
    vertex 3.9999999999999996 6.500000000000001 18.000000000000004
    vertex 0.0 6.500000000000001 20.000000000000007
    vertex 3.9999999999999996 6.500000000000001 20.000000000000007
  endloop
endfacet
facet normal 0.0 1.0 0.0
  outer loop
    vertex 0.0 15.0 0.0
    vertex 2.0 15.0 2.5000000000000004
    vertex 20.0 15.0 0.0
  endloop
endfacet
facet normal 0.0 1.0 0.0
  outer loop
    vertex 2.0 15.0 2.5000000000000004
    vertex 0.0 15.0 0.0
    vertex 0.0 15.0 17.0
  endloop
endfacet
facet normal 0.0 1.0 0.0
  outer loop
    vertex 2.0 15.0 2.5000000000000004
    vertex 0.0 15.0 17.0
    vertex 2.0000000000000004 15.0 14.499999999999998
  endloop
endfacet
facet normal 0.0 1.0 0.0
  outer loop
    vertex 2.0000000000000004 15.0 14.499999999999998
    vertex 0.0 15.0 17.0
    vertex 7.999999999999999 15.0 14.499999999999998
  endloop
endfacet
facet normal 0.0 1.0 0.0
  outer loop
    vertex 7.999999999999999 15.0 14.499999999999998
    vertex 0.0 15.0 17.0
    vertex 12.0 15.0 14.499999999999998
  endloop
endfacet
facet normal 0.0 1.0 0.0
  outer loop
    vertex 12.0 15.0 14.499999999999998
    vertex 0.0 15.0 17.0
    vertex 18.0 15.0 14.499999999999998
  endloop
endfacet
facet normal 0.0 1.0 0.0
  outer loop
    vertex 20.0 15.0 0.0
    vertex 18.0 15.0 2.500000000000001
    vertex 20.0 15.0 17.0
  endloop
endfacet
facet normal 0.0 1.0 0.0
  outer loop
    vertex 18.0 15.0 2.500000000000001
    vertex 20.0 15.0 0.0
    vertex 12.0 15.0 2.5000000000000004
  endloop
endfacet
facet normal 0.0 1.0 0.0
  outer loop
    vertex 12.0 15.0 2.5000000000000004
    vertex 20.0 15.0 0.0
    vertex 2.0 15.0 2.5000000000000004
  endloop
endfacet
facet normal 0.0 1.0 0.0
  outer loop
    vertex 20.0 15.0 17.0
    vertex 18.0 15.0 2.500000000000001
    vertex 18.0 15.0 14.499999999999998
  endloop
endfacet
facet normal 0.0 1.0 0.0
  outer loop
    vertex 20.0 15.0 17.0
    vertex 18.0 15.0 14.499999999999998
    vertex 0.0 15.0 17.0
  endloop
endfacet
facet normal 0.0 1.0 0.0
  outer loop
    vertex 7.999999999999999 15.0 2.500000000000001
    vertex 12.0 15.0 2.5000000000000004
    vertex 2.0 15.0 2.5000000000000004
  endloop
endfacet
facet normal 0.0 1.0 0.0
  outer loop
    vertex 12.0 15.0 2.5000000000000004
    vertex 7.999999999999999 15.0 2.500000000000001
    vertex 12.0 15.0 14.499999999999998
  endloop
endfacet
facet normal 0.0 1.0 0.0
  outer loop
    vertex 12.0 15.0 14.499999999999998
    vertex 7.999999999999999 15.0 2.500000000000001
    vertex 7.999999999999999 15.0 14.499999999999998
  endloop
endfacet
facet normal -1.0 -0.0 -0.0
  outer loop
    vertex 18.0 15.0 14.499999999999998
    vertex 18.0 14.000000000000016 2.500000000000001
    vertex 18.0 14.000000000000016 14.499999999999998
  endloop
endfacet
facet normal -1.0 -0.0 -0.0
  outer loop
    vertex 18.0 14.000000000000016 2.500000000000001
    vertex 18.0 15.0 14.499999999999998
    vertex 18.0 15.0 2.500000000000001
  endloop
endfacet
facet normal -1.1749860343949574e-16 0.0 1.0
  outer loop
    vertex 18.0 14.000000000000016 2.500000000000001
    vertex 12.0 15.0 2.5000000000000004
    vertex 12.0 14.000000000000016 2.5000000000000004
  endloop
endfacet
facet normal -1.1749860343949574e-16 0.0 1.0
  outer loop
    vertex 12.0 15.0 2.5000000000000004
    vertex 18.0 14.000000000000016 2.500000000000001
    vertex 18.0 15.0 2.500000000000001
  endloop
endfacet
facet normal 1.0 0.0 0.0
  outer loop
    vertex 12.0 14.0 7.5
    vertex 12.0 13.5 9.5
    vertex 12.0 13.5 7.5
  endloop
endfacet
facet normal 1.0 0.0 0.0
  outer loop
    vertex 12.0 13.5 9.5
    vertex 12.0 14.0 7.5
    vertex 12.0 14.0 9.5
  endloop
endfacet
facet normal 1.0 0.0 0.0
  outer loop
    vertex 12.0 14.0 9.5
    vertex 12.0 14.0 7.5
    vertex 12.0 14.000000000000016 2.5000000000000004
  endloop
endfacet
facet normal 1.0 0.0 0.0
  outer loop
    vertex 12.0 14.0 9.5
    vertex 12.0 14.000000000000016 2.5000000000000004
    vertex 12.0 14.000000000000016 14.499999999999998
  endloop
endfacet
facet normal 1.0 0.0 0.0
  outer loop
    vertex 12.0 14.000000000000016 14.499999999999998
    vertex 12.0 14.000000000000016 2.5000000000000004
    vertex 12.0 15.0 2.5000000000000004
  endloop
endfacet
facet normal 1.0 0.0 0.0
  outer loop
    vertex 12.0 14.000000000000016 14.499999999999998
    vertex 12.0 15.0 2.5000000000000004
    vertex 12.0 15.0 14.499999999999998
  endloop
endfacet
facet normal 0.0 0.0 -1.0
  outer loop
    vertex 18.0 15.0 14.499999999999998
    vertex 12.0 14.000000000000016 14.499999999999998
    vertex 12.0 15.0 14.499999999999998
  endloop
endfacet
facet normal 0.0 0.0 -1.0
  outer loop
    vertex 12.0 14.000000000000016 14.499999999999998
    vertex 18.0 15.0 14.499999999999998
    vertex 18.0 14.000000000000016 14.499999999999998
  endloop
endfacet
facet normal -1.0 0.0 0.0
  outer loop
    vertex 7.999999999999999 15.0 14.499999999999998
    vertex 7.999999999999999 14.0 9.5
    vertex 7.999999999999999 14.0 14.499999999999998
  endloop
endfacet
facet normal -1.0 0.0 0.0
  outer loop
    vertex 7.999999999999999 14.0 9.5
    vertex 7.999999999999999 15.0 14.499999999999998
    vertex 7.999999999999999 14.0 7.5
  endloop
endfacet
facet normal -1.0 0.0 0.0
  outer loop
    vertex 7.999999999999999 14.0 7.5
    vertex 7.999999999999999 15.0 14.499999999999998
    vertex 7.999999999999999 14.0 2.500000000000001
  endloop
endfacet
facet normal -1.0 0.0 0.0
  outer loop
    vertex 7.999999999999999 14.0 2.500000000000001
    vertex 7.999999999999999 15.0 14.499999999999998
    vertex 7.999999999999999 15.0 2.500000000000001
  endloop
endfacet
facet normal -1.0 0.0 0.0
  outer loop
    vertex 7.999999999999999 14.0 9.5
    vertex 7.999999999999999 13.5 7.5
    vertex 7.999999999999999 13.5 9.5
  endloop
endfacet
facet normal -1.0 0.0 0.0
  outer loop
    vertex 7.999999999999999 13.5 7.5
    vertex 7.999999999999999 14.0 9.5
    vertex 7.999999999999999 14.0 7.5
  endloop
endfacet
facet normal -1.1749860343949576e-16 0.0 1.0
  outer loop
    vertex 7.999999999999999 14.0 2.500000000000001
    vertex 2.0 15.0 2.5000000000000004
    vertex 2.0 14.0 2.5000000000000004
  endloop
endfacet
facet normal -1.1749860343949576e-16 0.0 1.0
  outer loop
    vertex 2.0 15.0 2.5000000000000004
    vertex 7.999999999999999 14.0 2.500000000000001
    vertex 7.999999999999999 15.0 2.500000000000001
  endloop
endfacet
facet normal 1.0 0.0 -2.937465085987394e-17
  outer loop
    vertex 2.0 15.0 2.5000000000000004
    vertex 2.0000000000000004 14.0 14.499999999999998
    vertex 2.0 14.0 2.5000000000000004
  endloop
endfacet
facet normal 1.0 0.0 -2.937465085987394e-17
  outer loop
    vertex 2.0000000000000004 14.0 14.499999999999998
    vertex 2.0 15.0 2.5000000000000004
    vertex 2.0000000000000004 15.0 14.499999999999998
  endloop
endfacet
facet normal 0.0 0.0 -1.0
  outer loop
    vertex 7.999999999999999 15.0 14.499999999999998
    vertex 2.0000000000000004 14.0 14.499999999999998
    vertex 2.0000000000000004 15.0 14.499999999999998
  endloop
endfacet
facet normal 0.0 0.0 -1.0
  outer loop
    vertex 2.0000000000000004 14.0 14.499999999999998
    vertex 7.999999999999999 15.0 14.499999999999998
    vertex 7.999999999999999 14.0 14.499999999999998
  endloop
endfacet
facet normal 0.0 -1.0 0.0
  outer loop
    vertex 20.0 0.0 0.0
    vertex 18.0 0.0 2.5000000000000004
    vertex 0.0 0.0 0.0
  endloop
endfacet
facet normal 0.0 -1.0 0.0
  outer loop
    vertex 18.0 0.0 2.5000000000000004
    vertex 20.0 0.0 0.0
    vertex 20.0 0.0 17.0
  endloop
endfacet
facet normal 0.0 -1.0 0.0
  outer loop
    vertex 18.0 0.0 2.5000000000000004
    vertex 20.0 0.0 17.0
    vertex 18.0 0.0 14.499999999999998
  endloop
endfacet
facet normal 0.0 -1.0 0.0
  outer loop
    vertex 18.0 0.0 14.499999999999998
    vertex 20.0 0.0 17.0
    vertex 12.0 0.0 14.499999999999998
  endloop
endfacet
facet normal 0.0 -1.0 0.0
  outer loop
    vertex 12.0 0.0 14.499999999999998
    vertex 20.0 0.0 17.0
    vertex 7.999999999999999 0.0 14.500000000000002
  endloop
endfacet
facet normal 0.0 -1.0 0.0
  outer loop
    vertex 7.999999999999999 0.0 14.500000000000002
    vertex 20.0 0.0 17.0
    vertex 2.0 0.0 14.500000000000002
  endloop
endfacet
facet normal 0.0 -1.0 0.0
  outer loop
    vertex 0.0 0.0 0.0
    vertex 2.0 0.0 2.500000000000001
    vertex 0.0 0.0 17.0
  endloop
endfacet
facet normal 0.0 -1.0 0.0
  outer loop
    vertex 2.0 0.0 2.500000000000001
    vertex 0.0 0.0 0.0
    vertex 7.999999999999999 0.0 2.5000000000000004
  endloop
endfacet
facet normal 0.0 -1.0 0.0
  outer loop
    vertex 7.999999999999999 0.0 2.5000000000000004
    vertex 0.0 0.0 0.0
    vertex 18.0 0.0 2.5000000000000004
  endloop
endfacet
facet normal 0.0 -1.0 0.0
  outer loop
    vertex 0.0 0.0 17.0
    vertex 2.0 0.0 2.500000000000001
    vertex 2.0 0.0 14.500000000000002
  endloop
endfacet
facet normal 0.0 -1.0 0.0
  outer loop
    vertex 0.0 0.0 17.0
    vertex 2.0 0.0 14.500000000000002
    vertex 20.0 0.0 17.0
  endloop
endfacet
facet normal 0.0 -1.0 0.0
  outer loop
    vertex 12.0 0.0 2.500000000000001
    vertex 7.999999999999999 0.0 2.5000000000000004
    vertex 18.0 0.0 2.5000000000000004
  endloop
endfacet
facet normal 0.0 -1.0 0.0
  outer loop
    vertex 7.999999999999999 0.0 2.5000000000000004
    vertex 12.0 0.0 2.500000000000001
    vertex 7.999999999999999 0.0 14.500000000000002
  endloop
endfacet
facet normal 0.0 -1.0 0.0
  outer loop
    vertex 7.999999999999999 0.0 14.500000000000002
    vertex 12.0 0.0 2.500000000000001
    vertex 12.0 0.0 14.499999999999998
  endloop
endfacet
facet normal 1.0 0.0 0.0
  outer loop
    vertex 2.0 0.9999999999999999 2.500000000000001
    vertex 2.0 0.0 14.500000000000002
    vertex 2.0 0.0 2.500000000000001
  endloop
endfacet
facet normal 1.0 0.0 0.0
  outer loop
    vertex 2.0 0.0 14.500000000000002
    vertex 2.0 0.9999999999999999 2.500000000000001
    vertex 2.0 0.9999999999999999 14.500000000000002
  endloop
endfacet
facet normal 1.1749860343949576e-16 0.0 1.0
  outer loop
    vertex 7.999999999999999 0.0 2.5000000000000004
    vertex 2.0 0.9999999999999999 2.500000000000001
    vertex 2.0 0.0 2.500000000000001
  endloop
endfacet
facet normal 1.1749860343949576e-16 0.0 1.0
  outer loop
    vertex 2.0 0.9999999999999999 2.500000000000001
    vertex 7.999999999999999 0.0 2.5000000000000004
    vertex 7.999999999999999 0.9999999999999999 2.5000000000000004
  endloop
endfacet
facet normal -1.0 0.0 0.0
  outer loop
    vertex 7.999999999999999 1.5 9.500000000000002
    vertex 7.999999999999999 0.9999999999999999 7.500000000000002
    vertex 7.999999999999999 0.9999999999999999 9.500000000000002
  endloop
endfacet
facet normal -1.0 0.0 0.0
  outer loop
    vertex 7.999999999999999 0.9999999999999999 7.500000000000002
    vertex 7.999999999999999 1.5 9.500000000000002
    vertex 7.999999999999999 1.5 7.500000000000002
  endloop
endfacet
facet normal -1.0 0.0 0.0
  outer loop
    vertex 7.999999999999999 0.9999999999999999 14.500000000000002
    vertex 7.999999999999999 0.0 2.5000000000000004
    vertex 7.999999999999999 0.0 14.500000000000002
  endloop
endfacet
facet normal -1.0 0.0 0.0
  outer loop
    vertex 7.999999999999999 0.0 2.5000000000000004
    vertex 7.999999999999999 0.9999999999999999 14.500000000000002
    vertex 7.999999999999999 0.9999999999999999 2.5000000000000004
  endloop
endfacet
facet normal -1.0 0.0 0.0
  outer loop
    vertex 7.999999999999999 0.9999999999999999 2.5000000000000004
    vertex 7.999999999999999 0.9999999999999999 14.500000000000002
    vertex 7.999999999999999 0.9999999999999999 9.500000000000002
  endloop
endfacet
facet normal -1.0 0.0 0.0
  outer loop
    vertex 7.999999999999999 0.9999999999999999 2.5000000000000004
    vertex 7.999999999999999 0.9999999999999999 9.500000000000002
    vertex 7.999999999999999 0.9999999999999999 7.500000000000002
  endloop
endfacet
facet normal -0.0 -0.0 -1.0
  outer loop
    vertex 7.999999999999999 0.9999999999999999 14.500000000000002
    vertex 2.0 0.0 14.500000000000002
    vertex 2.0 0.9999999999999999 14.500000000000002
  endloop
endfacet
facet normal -0.0 -0.0 -1.0
  outer loop
    vertex 2.0 0.0 14.500000000000002
    vertex 7.999999999999999 0.9999999999999999 14.500000000000002
    vertex 7.999999999999999 0.0 14.500000000000002
  endloop
endfacet
facet normal 1.0 0.0 0.0
  outer loop
    vertex 12.0 1.5 7.5
    vertex 12.0 0.9999999999999999 9.500000000000002
    vertex 12.0 0.9999999999999999 7.5
  endloop
endfacet
facet normal 1.0 0.0 0.0
  outer loop
    vertex 12.0 0.9999999999999999 9.500000000000002
    vertex 12.0 1.5 7.5
    vertex 12.0 1.5 9.500000000000002
  endloop
endfacet
facet normal 1.0 0.0 0.0
  outer loop
    vertex 12.0 0.9999999999999999 2.500000000000001
    vertex 12.0 0.0 14.499999999999998
    vertex 12.0 0.0 2.500000000000001
  endloop
endfacet
facet normal 1.0 0.0 0.0
  outer loop
    vertex 12.0 0.0 14.499999999999998
    vertex 12.0 0.9999999999999999 2.500000000000001
    vertex 12.0 0.9999999999999999 14.499999999999998
  endloop
endfacet
facet normal 1.0 0.0 0.0
  outer loop
    vertex 12.0 0.9999999999999999 14.499999999999998
    vertex 12.0 0.9999999999999999 2.500000000000001
    vertex 12.0 0.9999999999999999 7.5
  endloop
endfacet
facet normal 1.0 0.0 0.0
  outer loop
    vertex 12.0 0.9999999999999999 14.499999999999998
    vertex 12.0 0.9999999999999999 7.5
    vertex 12.0 0.9999999999999999 9.500000000000002
  endloop
endfacet
facet normal 1.1749860343949574e-16 0.0 1.0
  outer loop
    vertex 18.0 0.0 2.5000000000000004
    vertex 12.0 0.9999999999999999 2.500000000000001
    vertex 12.0 0.0 2.500000000000001
  endloop
endfacet
facet normal 1.1749860343949574e-16 0.0 1.0
  outer loop
    vertex 12.0 0.9999999999999999 2.500000000000001
    vertex 18.0 0.0 2.5000000000000004
    vertex 18.0 0.9999999999999999 2.5000000000000004
  endloop
endfacet
facet normal -1.0 0.0 0.0
  outer loop
    vertex 18.0 0.9999999999999999 14.499999999999998
    vertex 18.0 0.0 2.5000000000000004
    vertex 18.0 0.0 14.499999999999998
  endloop
endfacet
facet normal -1.0 0.0 0.0
  outer loop
    vertex 18.0 0.0 2.5000000000000004
    vertex 18.0 0.9999999999999999 14.499999999999998
    vertex 18.0 0.9999999999999999 2.5000000000000004
  endloop
endfacet
facet normal -0.0 -0.0 -1.0
  outer loop
    vertex 18.0 0.9999999999999999 14.499999999999998
    vertex 12.0 0.0 14.499999999999998
    vertex 12.0 0.9999999999999999 14.499999999999998
  endloop
endfacet
facet normal -0.0 -0.0 -1.0
  outer loop
    vertex 12.0 0.0 14.499999999999998
    vertex 18.0 0.9999999999999999 14.499999999999998
    vertex 18.0 0.0 14.499999999999998
  endloop
endfacet
facet normal 0.0 7.049916206369745e-17 1.0
  outer loop
    vertex 0.9999999999999999 2.500000000000001 1.9999999999999998
    vertex 0.0 12.5 1.9999999999999991
    vertex 0.0 2.500000000000001 1.9999999999999998
  endloop
endfacet
facet normal 0.0 7.049916206369745e-17 1.0
  outer loop
    vertex 0.0 12.5 1.9999999999999991
    vertex 0.9999999999999999 2.500000000000001 1.9999999999999998
    vertex 0.9999999999999999 12.5 1.9999999999999991
  endloop
endfacet
facet normal 0.0 1.0 0.0
  outer loop
    vertex 0.0 2.500000000000001 14.0
    vertex 0.9999999999999999 2.500000000000001 1.9999999999999998
    vertex 0.0 2.500000000000001 1.9999999999999998
  endloop
endfacet
facet normal 0.0 1.0 0.0
  outer loop
    vertex 0.9999999999999999 2.500000000000001 1.9999999999999998
    vertex 0.0 2.500000000000001 14.0
    vertex 0.9999999999999999 2.500000000000001 14.0
  endloop
endfacet
facet normal 0.0 -1.0 0.0
  outer loop
    vertex 20.0 5.500000000000001 21.000000000000004
    vertex 16.0 5.500000000000001 17.0
    vertex 20.0 5.500000000000001 17.0
  endloop
endfacet
facet normal 0.0 -1.0 0.0
  outer loop
    vertex 16.0 5.500000000000001 17.0
    vertex 20.0 5.500000000000001 21.000000000000004
    vertex 16.0 5.500000000000001 21.000000000000004
  endloop
endfacet
facet normal 0.0 1.0 0.0
  outer loop
    vertex 16.0 9.5 21.000000000000004
    vertex 20.0 9.5 17.0
    vertex 16.0 9.5 17.0
  endloop
endfacet
facet normal 0.0 1.0 0.0
  outer loop
    vertex 20.0 9.5 17.0
    vertex 16.0 9.5 21.000000000000004
    vertex 20.0 9.5 21.000000000000004
  endloop
endfacet
facet normal -1.0 0.0 0.0
  outer loop
    vertex 0.0 5.5 21.000000000000004
    vertex 0.0 6.500000000000001 20.000000000000007
    vertex 0.0 5.5 17.0
  endloop
endfacet
facet normal -1.0 0.0 0.0
  outer loop
    vertex 0.0 6.500000000000001 20.000000000000007
    vertex 0.0 5.5 21.000000000000004
    vertex 0.0 9.500000000000002 21.000000000000004
  endloop
endfacet
facet normal -1.0 0.0 0.0
  outer loop
    vertex 0.0 6.500000000000001 20.000000000000007
    vertex 0.0 9.500000000000002 21.000000000000004
    vertex 0.0 8.5 20.000000000000007
  endloop
endfacet
facet normal -1.0 0.0 0.0
  outer loop
    vertex 0.0 8.5 20.000000000000007
    vertex 0.0 9.500000000000002 21.000000000000004
    vertex 0.0 8.5 18.000000000000004
  endloop
endfacet
facet normal -1.0 0.0 0.0
  outer loop
    vertex 0.0 0.0 17.0
    vertex 0.0 2.500000000000001 14.0
    vertex 0.0 0.0 0.0
  endloop
endfacet
facet normal -1.0 0.0 0.0
  outer loop
    vertex 0.0 2.500000000000001 14.0
    vertex 0.0 0.0 17.0
    vertex 0.0 5.5 17.0
  endloop
endfacet
facet normal -1.0 0.0 0.0
  outer loop
    vertex 0.0 2.500000000000001 14.0
    vertex 0.0 5.5 17.0
    vertex 0.0 12.5 14.0
  endloop
endfacet
facet normal -1.0 0.0 0.0
  outer loop
    vertex 0.0 12.5 14.0
    vertex 0.0 5.5 17.0
    vertex 0.0 6.500000000000001 18.000000000000004
  endloop
endfacet
facet normal -1.0 0.0 0.0
  outer loop
    vertex 0.0 6.500000000000001 18.000000000000004
    vertex 0.0 5.5 17.0
    vertex 0.0 6.500000000000001 20.000000000000007
  endloop
endfacet
facet normal -1.0 0.0 0.0
  outer loop
    vertex 0.0 12.5 14.0
    vertex 0.0 6.500000000000001 18.000000000000004
    vertex 0.0 9.500000000000002 17.0
  endloop
endfacet
facet normal -1.0 0.0 0.0
  outer loop
    vertex 0.0 9.500000000000002 17.0
    vertex 0.0 6.500000000000001 18.000000000000004
    vertex 0.0 8.5 18.000000000000004
  endloop
endfacet
facet normal -1.0 0.0 0.0
  outer loop
    vertex 0.0 9.500000000000002 17.0
    vertex 0.0 8.5 18.000000000000004
    vertex 0.0 9.500000000000002 21.000000000000004
  endloop
endfacet
facet normal -1.0 0.0 0.0
  outer loop
    vertex 0.0 12.5 14.0
    vertex 0.0 9.500000000000002 17.0
    vertex 0.0 15.0 17.0
  endloop
endfacet
facet normal -1.0 0.0 0.0
  outer loop
    vertex 0.0 12.5 14.0
    vertex 0.0 15.0 17.0
    vertex 0.0 12.5 1.9999999999999991
  endloop
endfacet
facet normal -1.0 0.0 0.0
  outer loop
    vertex 0.0 0.0 0.0
    vertex 0.0 2.500000000000001 1.9999999999999998
    vertex 0.0 15.0 0.0
  endloop
endfacet
facet normal -1.0 0.0 0.0
  outer loop
    vertex 0.0 2.500000000000001 1.9999999999999998
    vertex 0.0 0.0 0.0
    vertex 0.0 2.500000000000001 14.0
  endloop
endfacet
facet normal -1.0 0.0 0.0
  outer loop
    vertex 0.0 15.0 0.0
    vertex 0.0 2.500000000000001 1.9999999999999998
    vertex 0.0 12.5 1.9999999999999991
  endloop
endfacet
facet normal -1.0 0.0 0.0
  outer loop
    vertex 0.0 15.0 0.0
    vertex 0.0 12.5 1.9999999999999991
    vertex 0.0 15.0 17.0
  endloop
endfacet
facet normal 1.0 0.0 0.0
  outer loop
    vertex 20.0 0.0 0.0
    vertex 20.0 1.0000000000000009 0.9999999999999981
    vertex 20.0 0.0 17.0
  endloop
endfacet
facet normal 1.0 0.0 0.0
  outer loop
    vertex 20.0 1.0000000000000009 0.9999999999999981
    vertex 20.0 0.0 0.0
    vertex 20.0 15.0 0.0
  endloop
endfacet
facet normal 1.0 0.0 0.0
  outer loop
    vertex 20.0 1.0000000000000009 0.9999999999999981
    vertex 20.0 15.0 0.0
    vertex 20.0 14.0 0.9999999999999996
  endloop
endfacet
facet normal 1.0 0.0 0.0
  outer loop
    vertex 20.0 14.0 0.9999999999999996
    vertex 20.0 15.0 0.0
    vertex 20.0 14.0 15.999999999999998
  endloop
endfacet
facet normal 1.0 0.0 0.0
  outer loop
    vertex 20.0 0.0 17.0
    vertex 20.0 1.0000000000000009 15.999999999999998
    vertex 20.0 5.500000000000001 17.0
  endloop
endfacet
facet normal 1.0 0.0 0.0
  outer loop
    vertex 20.0 1.0000000000000009 15.999999999999998
    vertex 20.0 0.0 17.0
    vertex 20.0 1.0000000000000009 0.9999999999999981
  endloop
endfacet
facet normal 1.0 0.0 0.0
  outer loop
    vertex 20.0 5.500000000000001 17.0
    vertex 20.0 1.0000000000000009 15.999999999999998
    vertex 20.0 14.0 15.999999999999998
  endloop
endfacet
facet normal 1.0 0.0 0.0
  outer loop
    vertex 20.0 5.500000000000001 17.0
    vertex 20.0 14.0 15.999999999999998
    vertex 20.0 9.5 17.0
  endloop
endfacet
facet normal 1.0 0.0 0.0
  outer loop
    vertex 20.0 5.500000000000001 17.0
    vertex 20.0 9.5 17.0
    vertex 20.0 6.500000000000001 18.0
  endloop
endfacet
facet normal 1.0 0.0 0.0
  outer loop
    vertex 20.0 5.500000000000001 17.0
    vertex 20.0 6.500000000000001 18.0
    vertex 20.0 5.500000000000001 21.000000000000004
  endloop
endfacet
facet normal 1.0 0.0 0.0
  outer loop
    vertex 20.0 6.500000000000001 18.0
    vertex 20.0 9.5 17.0
    vertex 20.0 8.5 18.0
  endloop
endfacet
facet normal 1.0 0.0 0.0
  outer loop
    vertex 20.0 9.5 17.0
    vertex 20.0 14.0 15.999999999999998
    vertex 20.0 15.0 17.0
  endloop
endfacet
facet normal 1.0 0.0 0.0
  outer loop
    vertex 20.0 15.0 17.0
    vertex 20.0 14.0 15.999999999999998
    vertex 20.0 15.0 0.0
  endloop
endfacet
facet normal 1.0 0.0 0.0
  outer loop
    vertex 20.0 5.500000000000001 21.000000000000004
    vertex 20.0 6.500000000000001 20.000000000000004
    vertex 20.0 9.5 21.000000000000004
  endloop
endfacet
facet normal 1.0 0.0 0.0
  outer loop
    vertex 20.0 6.500000000000001 20.000000000000004
    vertex 20.0 5.500000000000001 21.000000000000004
    vertex 20.0 6.500000000000001 18.0
  endloop
endfacet
facet normal 1.0 0.0 0.0
  outer loop
    vertex 20.0 9.5 21.000000000000004
    vertex 20.0 6.500000000000001 20.000000000000004
    vertex 20.0 8.499999999999998 20.000000000000004
  endloop
endfacet
facet normal 1.0 0.0 0.0
  outer loop
    vertex 20.0 9.5 21.000000000000004
    vertex 20.0 8.499999999999998 20.000000000000004
    vertex 20.0 8.5 18.0
  endloop
endfacet
facet normal 1.0 0.0 0.0
  outer loop
    vertex 20.0 9.5 21.000000000000004
    vertex 20.0 8.5 18.0
    vertex 20.0 9.5 17.0
  endloop
endfacet
facet normal 0.0 -1.0 0.0
  outer loop
    vertex 12.0 14.000000000000016 2.5000000000000004
    vertex 7.999999999999999 14.0 2.500000000000001
    vertex 2.0 14.0 2.5000000000000004
  endloop
endfacet
facet normal 0.0 -1.0 0.0
  outer loop
    vertex 7.999999999999999 14.0 2.500000000000001
    vertex 12.0 14.000000000000016 2.5000000000000004
    vertex 12.0 14.0 7.5
  endloop
endfacet
facet normal 0.0 -1.0 0.0
  outer loop
    vertex 7.999999999999999 14.0 2.500000000000001
    vertex 12.0 14.0 7.5
    vertex 7.999999999999999 14.0 7.5
  endloop
endfacet
facet normal 0.0 -1.0 0.0
  outer loop
    vertex 20.0 14.0 0.9999999999999996
    vertex 18.0 14.000000000000016 2.500000000000001
    vertex 1.0000000000000009 14.0 0.9999999999999996
  endloop
endfacet
facet normal 0.0 -1.0 0.0
  outer loop
    vertex 18.0 14.000000000000016 2.500000000000001
    vertex 20.0 14.0 0.9999999999999996
    vertex 20.0 14.0 15.999999999999998
  endloop
endfacet
facet normal 0.0 -1.0 0.0
  outer loop
    vertex 1.0000000000000009 14.0 0.9999999999999996
    vertex 18.0 14.000000000000016 2.500000000000001
    vertex 12.0 14.000000000000016 2.5000000000000004
  endloop
endfacet
facet normal 0.0 -1.0 0.0
  outer loop
    vertex 18.0 14.000000000000016 2.500000000000001
    vertex 20.0 14.0 15.999999999999998
    vertex 18.0 14.000000000000016 14.499999999999998
  endloop
endfacet
facet normal 0.0 -1.0 0.0
  outer loop
    vertex 18.0 14.000000000000016 14.499999999999998
    vertex 20.0 14.0 15.999999999999998
    vertex 12.0 14.000000000000016 14.499999999999998
  endloop
endfacet
facet normal 0.0 -1.0 0.0
  outer loop
    vertex 12.0 14.000000000000016 14.499999999999998
    vertex 20.0 14.0 15.999999999999998
    vertex 7.999999999999999 14.0 14.499999999999998
  endloop
endfacet
facet normal 0.0 -1.0 0.0
  outer loop
    vertex 7.999999999999999 14.0 14.499999999999998
    vertex 20.0 14.0 15.999999999999998
    vertex 2.0000000000000004 14.0 14.499999999999998
  endloop
endfacet
facet normal 0.0 -1.0 0.0
  outer loop
    vertex 1.0000000000000009 14.0 0.9999999999999996
    vertex 2.0 14.0 2.5000000000000004
    vertex 1.0000000000000009 14.0 15.999999999999998
  endloop
endfacet
facet normal 0.0 -1.0 0.0
  outer loop
    vertex 2.0 14.0 2.5000000000000004
    vertex 1.0000000000000009 14.0 0.9999999999999996
    vertex 12.0 14.000000000000016 2.5000000000000004
  endloop
endfacet
facet normal 0.0 -1.0 0.0
  outer loop
    vertex 1.0000000000000009 14.0 15.999999999999998
    vertex 2.0 14.0 2.5000000000000004
    vertex 2.0000000000000004 14.0 14.499999999999998
  endloop
endfacet
facet normal 0.0 -1.0 0.0
  outer loop
    vertex 1.0000000000000009 14.0 15.999999999999998
    vertex 2.0000000000000004 14.0 14.499999999999998
    vertex 20.0 14.0 15.999999999999998
  endloop
endfacet
facet normal 0.0 -1.0 0.0
  outer loop
    vertex 12.0 14.000000000000016 14.499999999999998
    vertex 7.999999999999999 14.0 9.5
    vertex 12.0 14.0 9.5
  endloop
endfacet
facet normal 0.0 -1.0 0.0
  outer loop
    vertex 7.999999999999999 14.0 9.5
    vertex 12.0 14.000000000000016 14.499999999999998
    vertex 7.999999999999999 14.0 14.499999999999998
  endloop
endfacet
facet normal 0.0 -1.084602493287653e-16 1.0
  outer loop
    vertex 1.0000000000000009 1.0000000000000009 0.9999999999999981
    vertex 3.0 2.500000000000001 0.9999999999999999
    vertex 1.0000000000000009 14.0 0.9999999999999996
  endloop
endfacet
facet normal 0.0 -1.084602493287653e-16 1.0
  outer loop
    vertex 3.0 2.500000000000001 0.9999999999999999
    vertex 1.0000000000000009 1.0000000000000009 0.9999999999999981
    vertex 20.0 1.0000000000000009 0.9999999999999981
  endloop
endfacet
facet normal 0.0 -1.084602493287653e-16 1.0
  outer loop
    vertex 3.0 2.500000000000001 0.9999999999999999
    vertex 20.0 1.0000000000000009 0.9999999999999981
    vertex 17.0 2.500000000000001 0.9999999999999999
  endloop
endfacet
facet normal 0.0 -1.084602493287653e-16 1.0
  outer loop
    vertex 17.0 2.500000000000001 0.9999999999999999
    vertex 20.0 1.0000000000000009 0.9999999999999981
    vertex 17.0 12.5 0.9999999999999999
  endloop
endfacet
facet normal 0.0 -1.084602493287653e-16 1.0
  outer loop
    vertex 1.0000000000000009 14.0 0.9999999999999996
    vertex 3.0 12.5 0.9999999999999999
    vertex 20.0 14.0 0.9999999999999996
  endloop
endfacet
facet normal 0.0 -1.084602493287653e-16 1.0
  outer loop
    vertex 3.0 12.5 0.9999999999999999
    vertex 1.0000000000000009 14.0 0.9999999999999996
    vertex 3.0 2.500000000000001 0.9999999999999999
  endloop
endfacet
facet normal 0.0 -1.084602493287653e-16 1.0
  outer loop
    vertex 20.0 14.0 0.9999999999999996
    vertex 3.0 12.5 0.9999999999999999
    vertex 17.0 12.5 0.9999999999999999
  endloop
endfacet
facet normal 0.0 -1.084602493287653e-16 1.0
  outer loop
    vertex 20.0 14.0 0.9999999999999996
    vertex 17.0 12.5 0.9999999999999999
    vertex 20.0 1.0000000000000009 0.9999999999999981
  endloop
endfacet
facet normal -0.0 -0.0 -1.0
  outer loop
    vertex 1.0000000000000009 14.0 15.999999999999998
    vertex 5.000000000000001 12.5 15.999999999999998
    vertex 1.0000000000000009 1.0000000000000009 15.999999999999998
  endloop
endfacet
facet normal -0.0 -0.0 -1.0
  outer loop
    vertex 5.000000000000001 12.5 15.999999999999998
    vertex 1.0000000000000009 14.0 15.999999999999998
    vertex 20.0 14.0 15.999999999999998
  endloop
endfacet
facet normal -0.0 -0.0 -1.0
  outer loop
    vertex 5.000000000000001 12.5 15.999999999999998
    vertex 20.0 14.0 15.999999999999998
    vertex 15.0 12.5 15.999999999999998
  endloop
endfacet
facet normal -0.0 -0.0 -1.0
  outer loop
    vertex 15.0 12.5 15.999999999999998
    vertex 20.0 14.0 15.999999999999998
    vertex 15.0 2.5000000000000004 15.999999999999998
  endloop
endfacet
facet normal -0.0 -0.0 -1.0
  outer loop
    vertex 1.0000000000000009 1.0000000000000009 15.999999999999998
    vertex 5.000000000000001 2.5000000000000004 15.999999999999998
    vertex 20.0 1.0000000000000009 15.999999999999998
  endloop
endfacet
facet normal -0.0 -0.0 -1.0
  outer loop
    vertex 5.000000000000001 2.5000000000000004 15.999999999999998
    vertex 1.0000000000000009 1.0000000000000009 15.999999999999998
    vertex 5.000000000000001 12.5 15.999999999999998
  endloop
endfacet
facet normal -0.0 -0.0 -1.0
  outer loop
    vertex 20.0 1.0000000000000009 15.999999999999998
    vertex 5.000000000000001 2.5000000000000004 15.999999999999998
    vertex 15.0 2.5000000000000004 15.999999999999998
  endloop
endfacet
facet normal -0.0 -0.0 -1.0
  outer loop
    vertex 20.0 1.0000000000000009 15.999999999999998
    vertex 15.0 2.5000000000000004 15.999999999999998
    vertex 20.0 14.0 15.999999999999998
  endloop
endfacet
facet normal 1.0 0.0 0.0
  outer loop
    vertex 1.0000000000000009 1.0000000000000009 0.9999999999999981
    vertex 0.9999999999999999 2.500000000000001 1.9999999999999998
    vertex 1.0000000000000009 1.0000000000000009 15.999999999999998
  endloop
endfacet
facet normal 1.0 0.0 0.0
  outer loop
    vertex 0.9999999999999999 2.500000000000001 1.9999999999999998
    vertex 1.0000000000000009 1.0000000000000009 0.9999999999999981
    vertex 1.0000000000000009 14.0 0.9999999999999996
  endloop
endfacet
facet normal 1.0 0.0 0.0
  outer loop
    vertex 0.9999999999999999 2.500000000000001 1.9999999999999998
    vertex 1.0000000000000009 14.0 0.9999999999999996
    vertex 0.9999999999999999 12.5 1.9999999999999991
  endloop
endfacet
facet normal 1.0 0.0 0.0
  outer loop
    vertex 0.9999999999999999 12.5 1.9999999999999991
    vertex 1.0000000000000009 14.0 0.9999999999999996
    vertex 0.9999999999999999 12.5 14.0
  endloop
endfacet
facet normal 1.0 0.0 0.0
  outer loop
    vertex 1.0000000000000009 1.0000000000000009 15.999999999999998
    vertex 0.9999999999999999 2.500000000000001 14.0
    vertex 1.0000000000000009 14.0 15.999999999999998
  endloop
endfacet
facet normal 1.0 0.0 0.0
  outer loop
    vertex 0.9999999999999999 2.500000000000001 14.0
    vertex 1.0000000000000009 1.0000000000000009 15.999999999999998
    vertex 0.9999999999999999 2.500000000000001 1.9999999999999998
  endloop
endfacet
facet normal 1.0 0.0 0.0
  outer loop
    vertex 1.0000000000000009 14.0 15.999999999999998
    vertex 0.9999999999999999 2.500000000000001 14.0
    vertex 0.9999999999999999 12.5 14.0
  endloop
endfacet
facet normal 1.0 0.0 0.0
  outer loop
    vertex 1.0000000000000009 14.0 15.999999999999998
    vertex 0.9999999999999999 12.5 14.0
    vertex 1.0000000000000009 14.0 0.9999999999999996
  endloop
endfacet
facet normal 0.0 1.0 0.0
  outer loop
    vertex 7.999999999999999 0.9999999999999999 2.5000000000000004
    vertex 12.0 0.9999999999999999 2.500000000000001
    vertex 18.0 0.9999999999999999 2.5000000000000004
  endloop
endfacet
facet normal 0.0 1.0 0.0
  outer loop
    vertex 12.0 0.9999999999999999 2.500000000000001
    vertex 7.999999999999999 0.9999999999999999 2.5000000000000004
    vertex 7.999999999999999 0.9999999999999999 7.500000000000002
  endloop
endfacet
facet normal 0.0 1.0 0.0
  outer loop
    vertex 12.0 0.9999999999999999 2.500000000000001
    vertex 7.999999999999999 0.9999999999999999 7.500000000000002
    vertex 12.0 0.9999999999999999 7.5
  endloop
endfacet
facet normal 0.0 1.0 0.0
  outer loop
    vertex 7.999999999999999 0.9999999999999999 9.500000000000002
    vertex 12.0 0.9999999999999999 14.499999999999998
    vertex 12.0 0.9999999999999999 9.500000000000002
  endloop
endfacet
facet normal 0.0 1.0 0.0
  outer loop
    vertex 12.0 0.9999999999999999 14.499999999999998
    vertex 7.999999999999999 0.9999999999999999 9.500000000000002
    vertex 7.999999999999999 0.9999999999999999 14.500000000000002
  endloop
endfacet
facet normal 0.0 1.0 0.0
  outer loop
    vertex 12.0 0.9999999999999999 14.499999999999998
    vertex 7.999999999999999 0.9999999999999999 14.500000000000002
    vertex 18.0 0.9999999999999999 14.499999999999998
  endloop
endfacet
facet normal 0.0 1.0 0.0
  outer loop
    vertex 1.0000000000000009 1.0000000000000009 0.9999999999999981
    vertex 2.0 0.9999999999999999 2.500000000000001
    vertex 20.0 1.0000000000000009 0.9999999999999981
  endloop
endfacet
facet normal 0.0 1.0 0.0
  outer loop
    vertex 2.0 0.9999999999999999 2.500000000000001
    vertex 1.0000000000000009 1.0000000000000009 0.9999999999999981
    vertex 1.0000000000000009 1.0000000000000009 15.999999999999998
  endloop
endfacet
facet normal 0.0 1.0 0.0
  outer loop
    vertex 20.0 1.0000000000000009 0.9999999999999981
    vertex 2.0 0.9999999999999999 2.500000000000001
    vertex 7.999999999999999 0.9999999999999999 2.5000000000000004
  endloop
endfacet
facet normal 0.0 1.0 0.0
  outer loop
    vertex 2.0 0.9999999999999999 2.500000000000001
    vertex 1.0000000000000009 1.0000000000000009 15.999999999999998
    vertex 2.0 0.9999999999999999 14.500000000000002
  endloop
endfacet
facet normal 0.0 1.0 0.0
  outer loop
    vertex 2.0 0.9999999999999999 14.500000000000002
    vertex 1.0000000000000009 1.0000000000000009 15.999999999999998
    vertex 7.999999999999999 0.9999999999999999 14.500000000000002
  endloop
endfacet
facet normal 0.0 1.0 0.0
  outer loop
    vertex 20.0 1.0000000000000009 0.9999999999999981
    vertex 18.0 0.9999999999999999 2.5000000000000004
    vertex 20.0 1.0000000000000009 15.999999999999998
  endloop
endfacet
facet normal 0.0 1.0 0.0
  outer loop
    vertex 18.0 0.9999999999999999 2.5000000000000004
    vertex 20.0 1.0000000000000009 0.9999999999999981
    vertex 7.999999999999999 0.9999999999999999 2.5000000000000004
  endloop
endfacet
facet normal 0.0 1.0 0.0
  outer loop
    vertex 20.0 1.0000000000000009 15.999999999999998
    vertex 18.0 0.9999999999999999 2.5000000000000004
    vertex 18.0 0.9999999999999999 14.499999999999998
  endloop
endfacet
facet normal 0.0 1.0 0.0
  outer loop
    vertex 20.0 1.0000000000000009 15.999999999999998
    vertex 18.0 0.9999999999999999 14.499999999999998
    vertex 7.999999999999999 0.9999999999999999 14.500000000000002
  endloop
endfacet
facet normal 0.0 1.0 0.0
  outer loop
    vertex 20.0 1.0000000000000009 15.999999999999998
    vertex 7.999999999999999 0.9999999999999999 14.500000000000002
    vertex 1.0000000000000009 1.0000000000000009 15.999999999999998
  endloop
endfacet
facet normal 0.0 0.0 -1.0
  outer loop
    vertex 0.9999999999999999 12.5 14.0
    vertex 0.0 2.500000000000001 14.0
    vertex 0.0 12.5 14.0
  endloop
endfacet
facet normal 0.0 0.0 -1.0
  outer loop
    vertex 0.0 2.500000000000001 14.0
    vertex 0.9999999999999999 12.5 14.0
    vertex 0.9999999999999999 2.500000000000001 14.0
  endloop
endfacet
facet normal -0.0 -1.0 -0.0
  outer loop
    vertex 0.9999999999999999 12.5 14.0
    vertex 0.0 12.5 1.9999999999999991
    vertex 0.9999999999999999 12.5 1.9999999999999991
  endloop
endfacet
facet normal -0.0 -1.0 -0.0
  outer loop
    vertex 0.0 12.5 1.9999999999999991
    vertex 0.9999999999999999 12.5 14.0
    vertex 0.0 12.5 14.0
  endloop
endfacet
facet normal 0.0 0.0 -1.0
  outer loop
    vertex 0.0 15.0 0.0
    vertex 3.0 12.5 0.0
    vertex 0.0 0.0 0.0
  endloop
endfacet
facet normal 0.0 0.0 -1.0
  outer loop
    vertex 3.0 12.5 0.0
    vertex 0.0 15.0 0.0
    vertex 20.0 15.0 0.0
  endloop
endfacet
facet normal 0.0 0.0 -1.0
  outer loop
    vertex 3.0 12.5 0.0
    vertex 20.0 15.0 0.0
    vertex 17.0 12.5 0.0
  endloop
endfacet
facet normal 0.0 0.0 -1.0
  outer loop
    vertex 17.0 12.5 0.0
    vertex 20.0 15.0 0.0
    vertex 17.0 2.500000000000001 0.0
  endloop
endfacet
facet normal 0.0 0.0 -1.0
  outer loop
    vertex 0.0 0.0 0.0
    vertex 3.0 2.500000000000001 0.0
    vertex 20.0 0.0 0.0
  endloop
endfacet
facet normal 0.0 0.0 -1.0
  outer loop
    vertex 3.0 2.500000000000001 0.0
    vertex 0.0 0.0 0.0
    vertex 3.0 12.5 0.0
  endloop
endfacet
facet normal 0.0 0.0 -1.0
  outer loop
    vertex 20.0 0.0 0.0
    vertex 3.0 2.500000000000001 0.0
    vertex 17.0 2.500000000000001 0.0
  endloop
endfacet
facet normal 0.0 0.0 -1.0
  outer loop
    vertex 20.0 0.0 0.0
    vertex 17.0 2.500000000000001 0.0
    vertex 20.0 15.0 0.0
  endloop
endfacet
facet normal 0.0 -1.0 0.0
  outer loop
    vertex 17.0 12.5 0.9999999999999999
    vertex 3.0 12.5 0.0
    vertex 17.0 12.5 0.0
  endloop
endfacet
facet normal 0.0 -1.0 0.0
  outer loop
    vertex 3.0 12.5 0.0
    vertex 17.0 12.5 0.9999999999999999
    vertex 3.0 12.5 0.9999999999999999
  endloop
endfacet
facet normal -1.0 -0.0 -0.0
  outer loop
    vertex 17.0 12.5 0.9999999999999999
    vertex 17.0 2.500000000000001 0.0
    vertex 17.0 2.500000000000001 0.9999999999999999
  endloop
endfacet
facet normal -1.0 -0.0 -0.0
  outer loop
    vertex 17.0 2.500000000000001 0.0
    vertex 17.0 12.5 0.9999999999999999
    vertex 17.0 12.5 0.0
  endloop
endfacet
facet normal 0.0 1.0 0.0
  outer loop
    vertex 3.0 2.500000000000001 0.9999999999999999
    vertex 17.0 2.500000000000001 0.0
    vertex 3.0 2.500000000000001 0.0
  endloop
endfacet
facet normal 0.0 1.0 0.0
  outer loop
    vertex 17.0 2.500000000000001 0.0
    vertex 3.0 2.500000000000001 0.9999999999999999
    vertex 17.0 2.500000000000001 0.9999999999999999
  endloop
endfacet
facet normal 1.0 0.0 0.0
  outer loop
    vertex 3.0 12.5 0.0
    vertex 3.0 2.500000000000001 0.9999999999999999
    vertex 3.0 2.500000000000001 0.0
  endloop
endfacet
facet normal 1.0 0.0 0.0
  outer loop
    vertex 3.0 2.500000000000001 0.9999999999999999
    vertex 3.0 12.5 0.0
    vertex 3.0 12.5 0.9999999999999999
  endloop
endfacet
facet normal 0.0 0.0 1.0
  outer loop
    vertex 0.0 0.0 17.0
    vertex 5.000000000000001 2.5000000000000004 17.0
    vertex 0.0 5.5 17.0
  endloop
endfacet
facet normal 0.0 0.0 1.0
  outer loop
    vertex 5.000000000000001 2.5000000000000004 17.0
    vertex 0.0 0.0 17.0
    vertex 20.0 0.0 17.0
  endloop
endfacet
facet normal 0.0 0.0 1.0
  outer loop
    vertex 0.0 5.5 17.0
    vertex 5.000000000000001 2.5000000000000004 17.0
    vertex 3.9999999999999996 5.5 17.0
  endloop
endfacet
facet normal 0.0 0.0 1.0
  outer loop
    vertex 3.9999999999999996 5.5 17.0
    vertex 5.000000000000001 2.5000000000000004 17.0
    vertex 3.9999999999999996 9.500000000000002 17.0
  endloop
endfacet
facet normal 0.0 0.0 1.0
  outer loop
    vertex 5.000000000000001 2.5000000000000004 17.0
    vertex 20.0 0.0 17.0
    vertex 15.0 2.5000000000000004 17.0
  endloop
endfacet
facet normal 0.0 0.0 1.0
  outer loop
    vertex 15.0 2.5000000000000004 17.0
    vertex 20.0 0.0 17.0
    vertex 16.0 5.500000000000001 17.0
  endloop
endfacet
facet normal 0.0 0.0 1.0
  outer loop
    vertex 15.0 2.5000000000000004 17.0
    vertex 16.0 5.500000000000001 17.0
    vertex 15.0 12.5 17.0
  endloop
endfacet
facet normal 0.0 0.0 1.0
  outer loop
    vertex 16.0 5.500000000000001 17.0
    vertex 20.0 0.0 17.0
    vertex 20.0 5.500000000000001 17.0
  endloop
endfacet
facet normal 0.0 0.0 1.0
  outer loop
    vertex 3.9999999999999996 9.500000000000002 17.0
    vertex 0.0 15.0 17.0
    vertex 0.0 9.500000000000002 17.0
  endloop
endfacet
facet normal 0.0 0.0 1.0
  outer loop
    vertex 0.0 15.0 17.0
    vertex 3.9999999999999996 9.500000000000002 17.0
    vertex 5.000000000000001 12.5 17.0
  endloop
endfacet
facet normal 0.0 0.0 1.0
  outer loop
    vertex 0.0 15.0 17.0
    vertex 5.000000000000001 12.5 17.0
    vertex 20.0 15.0 17.0
  endloop
endfacet
facet normal 0.0 0.0 1.0
  outer loop
    vertex 5.000000000000001 12.5 17.0
    vertex 3.9999999999999996 9.500000000000002 17.0
    vertex 5.000000000000001 2.5000000000000004 17.0
  endloop
endfacet
facet normal 0.0 0.0 1.0
  outer loop
    vertex 20.0 15.0 17.0
    vertex 5.000000000000001 12.5 17.0
    vertex 15.0 12.5 17.0
  endloop
endfacet
facet normal 0.0 0.0 1.0
  outer loop
    vertex 20.0 15.0 17.0
    vertex 15.0 12.5 17.0
    vertex 16.0 9.5 17.0
  endloop
endfacet
facet normal 0.0 0.0 1.0
  outer loop
    vertex 16.0 9.5 17.0
    vertex 15.0 12.5 17.0
    vertex 16.0 5.500000000000001 17.0
  endloop
endfacet
facet normal 0.0 0.0 1.0
  outer loop
    vertex 20.0 15.0 17.0
    vertex 16.0 9.5 17.0
    vertex 20.0 9.5 17.0
  endloop
endfacet
facet normal 1.0 0.0 0.0
  outer loop
    vertex 5.000000000000001 12.5 15.999999999999998
    vertex 5.000000000000001 2.5000000000000004 17.0
    vertex 5.000000000000001 2.5000000000000004 15.999999999999998
  endloop
endfacet
facet normal 1.0 0.0 0.0
  outer loop
    vertex 5.000000000000001 2.5000000000000004 17.0
    vertex 5.000000000000001 12.5 15.999999999999998
    vertex 5.000000000000001 12.5 17.0
  endloop
endfacet
facet normal -0.0 -1.0 -0.0
  outer loop
    vertex 15.0 12.5 17.0
    vertex 5.000000000000001 12.5 15.999999999999998
    vertex 15.0 12.5 15.999999999999998
  endloop
endfacet
facet normal -0.0 -1.0 -0.0
  outer loop
    vertex 5.000000000000001 12.5 15.999999999999998
    vertex 15.0 12.5 17.0
    vertex 5.000000000000001 12.5 17.0
  endloop
endfacet
facet normal -1.0 0.0 0.0
  outer loop
    vertex 15.0 12.5 17.0
    vertex 15.0 2.5000000000000004 15.999999999999998
    vertex 15.0 2.5000000000000004 17.0
  endloop
endfacet
facet normal -1.0 0.0 0.0
  outer loop
    vertex 15.0 2.5000000000000004 15.999999999999998
    vertex 15.0 12.5 17.0
    vertex 15.0 12.5 15.999999999999998
  endloop
endfacet
facet normal 0.0 1.0 0.0
  outer loop
    vertex 5.000000000000001 2.5000000000000004 17.0
    vertex 15.0 2.5000000000000004 15.999999999999998
    vertex 5.000000000000001 2.5000000000000004 15.999999999999998
  endloop
endfacet
facet normal 0.0 1.0 0.0
  outer loop
    vertex 15.0 2.5000000000000004 15.999999999999998
    vertex 5.000000000000001 2.5000000000000004 17.0
    vertex 15.0 2.5000000000000004 17.0
  endloop
endfacet
facet normal -3.524958103184871e-16 -0.0 -1.0
  outer loop
    vertex 12.0 1.5 7.5
    vertex 7.999999999999999 0.9999999999999999 7.500000000000002
    vertex 7.999999999999999 1.5 7.500000000000002
  endloop
endfacet
facet normal -3.524958103184871e-16 -0.0 -1.0
  outer loop
    vertex 7.999999999999999 0.9999999999999999 7.500000000000002
    vertex 12.0 1.5 7.5
    vertex 12.0 0.9999999999999999 7.5
  endloop
endfacet
facet normal 0.0 1.0 0.0
  outer loop
    vertex 7.999999999999999 1.5 7.500000000000002
    vertex 12.0 1.5 9.500000000000002
    vertex 12.0 1.5 7.5
  endloop
endfacet
facet normal 0.0 1.0 0.0
  outer loop
    vertex 12.0 1.5 9.500000000000002
    vertex 7.999999999999999 1.5 7.500000000000002
    vertex 7.999999999999999 1.5 9.500000000000002
  endloop
endfacet
facet normal 3.524958103184871e-16 0.0 1.0
  outer loop
    vertex 12.0 0.9999999999999999 9.500000000000002
    vertex 7.999999999999999 1.5 9.500000000000002
    vertex 7.999999999999999 0.9999999999999999 9.500000000000002
  endloop
endfacet
facet normal 3.524958103184871e-16 0.0 1.0
  outer loop
    vertex 7.999999999999999 1.5 9.500000000000002
    vertex 12.0 0.9999999999999999 9.500000000000002
    vertex 12.0 1.5 9.500000000000002
  endloop
endfacet
facet normal 0.0 0.0 -1.0
  outer loop
    vertex 12.0 14.0 7.5
    vertex 7.999999999999999 13.5 7.5
    vertex 7.999999999999999 14.0 7.5
  endloop
endfacet
facet normal 0.0 0.0 -1.0
  outer loop
    vertex 7.999999999999999 13.5 7.5
    vertex 12.0 14.0 7.5
    vertex 12.0 13.5 7.5
  endloop
endfacet
facet normal 0.0 0.0 1.0
  outer loop
    vertex 12.0 13.5 9.5
    vertex 7.999999999999999 14.0 9.5
    vertex 7.999999999999999 13.5 9.5
  endloop
endfacet
facet normal 0.0 0.0 1.0
  outer loop
    vertex 7.999999999999999 14.0 9.5
    vertex 12.0 13.5 9.5
    vertex 12.0 14.0 9.5
  endloop
endfacet
facet normal 0.0 -1.0 0.0
  outer loop
    vertex 12.0 13.5 9.5
    vertex 7.999999999999999 13.5 7.5
    vertex 12.0 13.5 7.5
  endloop
endfacet
facet normal 0.0 -1.0 0.0
  outer loop
    vertex 7.999999999999999 13.5 7.5
    vertex 12.0 13.5 9.5
    vertex 7.999999999999999 13.5 9.5
  endloop
endfacet
endsolid 100mah电池支架
