solid 多功能支架
facet normal 0.0 1.0 0.0
  outer loop
    vertex 14.999999999999998 -31.999999999999996 3.9999999999999996
    vertex 19.999999999999996 -31.999999999999996 0.9999999999999999
    vertex 14.999999999999998 -31.999999999999996 0.9999999999999999
  endloop
endfacet
facet normal 0.0 1.0 0.0
  outer loop
    vertex 19.999999999999996 -31.999999999999996 0.9999999999999999
    vertex 14.999999999999998 -31.999999999999996 3.9999999999999996
    vertex 19.999999999999996 -31.999999999999996 3.9999999999999996
  endloop
endfacet
facet normal -1.0 -1.034293642283206e-31 9.399888275159659e-16
  outer loop
    vertex 14.999999999999998 -35.99999999999999 3.9999999999999996
    vertex 14.999999999999993 -35.0 3.0
    vertex 14.999999999999998 -35.99999999999999 0.9999999999999999
  endloop
endfacet
facet normal -1.0 -1.034293642283206e-31 9.399888275159659e-16
  outer loop
    vertex 14.999999999999993 -35.0 3.0
    vertex 14.999999999999998 -35.99999999999999 3.9999999999999996
    vertex 14.999999999999998 -31.999999999999996 3.9999999999999996
  endloop
endfacet
facet normal -1.0 -1.034293642283206e-31 9.399888275159659e-16
  outer loop
    vertex 14.999999999999993 -35.0 3.0
    vertex 14.999999999999998 -31.999999999999996 3.9999999999999996
    vertex 14.999999999999993 -32.99999999999999 3.0
  endloop
endfacet
facet normal -1.0 -1.034293642283206e-31 9.399888275159659e-16
  outer loop
    vertex 14.999999999999993 -32.99999999999999 3.0
    vertex 14.999999999999998 -31.999999999999996 3.9999999999999996
    vertex 14.999999999999993 -32.99999999999999 1.0
  endloop
endfacet
facet normal -1.0 -1.034293642283206e-31 9.399888275159659e-16
  outer loop
    vertex 14.999999999999993 -32.99999999999999 1.0
    vertex 14.999999999999998 -31.999999999999996 3.9999999999999996
    vertex 14.999999999999998 -31.999999999999996 0.9999999999999999
  endloop
endfacet
facet normal -1.0 -1.034293642283206e-31 9.399888275159659e-16
  outer loop
    vertex 14.999999999999993 -35.0 0.9999999999999999
    vertex 14.999999999999998 -35.99999999999999 0.9999999999999999
    vertex 14.999999999999993 -35.0 3.0
  endloop
endfacet
facet normal 0.0 -1.0 0.0
  outer loop
    vertex 19.999999999999996 -35.99999999999999 3.9999999999999996
    vertex 14.999999999999998 -35.99999999999999 0.9999999999999999
    vertex 19.999999999999996 -35.99999999999999 0.9999999999999999
  endloop
endfacet
facet normal 0.0 -1.0 0.0
  outer loop
    vertex 14.999999999999998 -35.99999999999999 0.9999999999999999
    vertex 19.999999999999996 -35.99999999999999 3.9999999999999996
    vertex 14.999999999999998 -35.99999999999999 3.9999999999999996
  endloop
endfacet
facet normal 0.0 1.0 0.0
  outer loop
    vertex 0.0 -31.999999999999996 3.9999999999999996
    vertex 4.999999999999999 -31.999999999999996 0.9999999999999999
    vertex 0.0 -31.999999999999996 0.9999999999999999
  endloop
endfacet
facet normal 0.0 1.0 0.0
  outer loop
    vertex 4.999999999999999 -31.999999999999996 0.9999999999999999
    vertex 0.0 -31.999999999999996 3.9999999999999996
    vertex 4.999999999999999 -31.999999999999996 3.9999999999999996
  endloop
endfacet
facet normal 0.0 0.0 1.0
  outer loop
    vertex 4.999999999999999 -35.99999999999999 3.9999999999999996
    vertex 0.0 -31.999999999999996 3.9999999999999996
    vertex 0.0 -35.99999999999999 3.9999999999999996
  endloop
endfacet
facet normal 0.0 0.0 1.0
  outer loop
    vertex 0.0 -31.999999999999996 3.9999999999999996
    vertex 4.999999999999999 -35.99999999999999 3.9999999999999996
    vertex 4.999999999999999 -31.999999999999996 3.9999999999999996
  endloop
endfacet
facet normal -7.049916206369745e-17 -1.0 -0.0
  outer loop
    vertex 4.999999999999999 -35.99999999999999 3.9999999999999996
    vertex 0.0 -35.99999999999999 0.9999999999999999
    vertex 4.999999999999999 -35.99999999999999 0.9999999999999999
  endloop
endfacet
facet normal -7.049916206369745e-17 -1.0 -0.0
  outer loop
    vertex 0.0 -35.99999999999999 0.9999999999999999
    vertex 4.999999999999999 -35.99999999999999 3.9999999999999996
    vertex 0.0 -35.99999999999999 3.9999999999999996
  endloop
endfacet
facet normal 0.0 0.0 -1.0
  outer loop
    vertex 0.0 9.999999999999998 0.0
    vertex 1.9999999999999996 0.0 0.0
    vertex 0.0 -41.99999999999999 0.0
  endloop
endfacet
facet normal 0.0 0.0 -1.0
  outer loop
    vertex 1.9999999999999996 0.0 0.0
    vertex 0.0 9.999999999999998 0.0
    vertex 19.999999999999996 9.999999999999998 0.0
  endloop
endfacet
facet normal 0.0 0.0 -1.0
  outer loop
    vertex 1.9999999999999996 0.0 0.0
    vertex 19.999999999999996 9.999999999999998 0.0
    vertex 19.999999999999996 0.0 0.0
  endloop
endfacet
facet normal 0.0 0.0 -1.0
  outer loop
    vertex 19.999999999999996 -3.0 0.0
    vertex 1.9999999999999996 -12.999999999999998 0.0
    vertex 1.9999999999999996 -3.0 0.0
  endloop
endfacet
facet normal 0.0 0.0 -1.0
  outer loop
    vertex 1.9999999999999996 -12.999999999999998 0.0
    vertex 19.999999999999996 -3.0 0.0
    vertex 19.999999999999996 -12.999999999999998 0.0
  endloop
endfacet
facet normal 0.0 0.0 -1.0
  outer loop
    vertex 19.999999999999996 -15.999999999999998 0.0
    vertex 1.9999999999999996 -25.999999999999996 0.0
    vertex 1.9999999999999996 -15.999999999999998 0.0
  endloop
endfacet
facet normal 0.0 0.0 -1.0
  outer loop
    vertex 1.9999999999999996 -25.999999999999996 0.0
    vertex 19.999999999999996 -15.999999999999998 0.0
    vertex 19.999999999999996 -25.999999999999996 0.0
  endloop
endfacet
facet normal 0.0 0.0 -1.0
  outer loop
    vertex 19.999999999999996 -28.999999999999996 0.0
    vertex 1.9999999999999996 -38.99999999999999 0.0
    vertex 1.9999999999999996 -28.999999999999996 0.0
  endloop
endfacet
facet normal 0.0 0.0 -1.0
  outer loop
    vertex 1.9999999999999996 -38.99999999999999 0.0
    vertex 19.999999999999996 -28.999999999999996 0.0
    vertex 19.999999999999996 -38.99999999999999 0.0
  endloop
endfacet
facet normal 0.0 0.0 -1.0
  outer loop
    vertex 1.9999999999999996 0.0 0.0
    vertex 1.9999999999999996 -41.99999999999999 0.0
    vertex 0.0 -41.99999999999999 0.0
  endloop
endfacet
facet normal 0.0 0.0 -1.0
  outer loop
    vertex 1.9999999999999996 -41.99999999999999 0.0
    vertex 1.9999999999999996 0.0 0.0
    vertex 1.9999999999999996 -3.0 0.0
  endloop
endfacet
facet normal 0.0 0.0 -1.0
  outer loop
    vertex 1.9999999999999996 -41.99999999999999 0.0
    vertex 1.9999999999999996 -3.0 0.0
    vertex 1.9999999999999996 -12.999999999999998 0.0
  endloop
endfacet
facet normal 0.0 0.0 -1.0
  outer loop
    vertex 1.9999999999999996 -41.99999999999999 0.0
    vertex 1.9999999999999996 -12.999999999999998 0.0
    vertex 1.9999999999999996 -15.999999999999998 0.0
  endloop
endfacet
facet normal 0.0 0.0 -1.0
  outer loop
    vertex 1.9999999999999996 -41.99999999999999 0.0
    vertex 1.9999999999999996 -15.999999999999998 0.0
    vertex 1.9999999999999996 -25.999999999999996 0.0
  endloop
endfacet
facet normal 0.0 0.0 -1.0
  outer loop
    vertex 1.9999999999999996 -41.99999999999999 0.0
    vertex 1.9999999999999996 -25.999999999999996 0.0
    vertex 1.9999999999999996 -28.999999999999996 0.0
  endloop
endfacet
facet normal 0.0 0.0 -1.0
  outer loop
    vertex 1.9999999999999996 -41.99999999999999 0.0
    vertex 1.9999999999999996 -28.999999999999996 0.0
    vertex 1.9999999999999996 -38.99999999999999 0.0
  endloop
endfacet
facet normal 0.0 0.0 1.0
  outer loop
    vertex 19.999999999999996 -35.99999999999999 3.9999999999999996
    vertex 14.999999999999998 -31.999999999999996 3.9999999999999996
    vertex 14.999999999999998 -35.99999999999999 3.9999999999999996
  endloop
endfacet
facet normal 0.0 0.0 1.0
  outer loop
    vertex 14.999999999999998 -31.999999999999996 3.9999999999999996
    vertex 19.999999999999996 -35.99999999999999 3.9999999999999996
    vertex 19.999999999999996 -31.999999999999996 3.9999999999999996
  endloop
endfacet
facet normal 1.0 0.0 0.0
  outer loop
    vertex 19.999999999999996 -28.999999999999996 0.0
    vertex 19.999999999999996 -38.99999999999999 0.9999999999999999
    vertex 19.999999999999996 -38.99999999999999 0.0
  endloop
endfacet
facet normal 1.0 0.0 0.0
  outer loop
    vertex 19.999999999999996 -38.99999999999999 0.9999999999999999
    vertex 19.999999999999996 -28.999999999999996 0.0
    vertex 19.999999999999996 -35.99999999999999 0.9999999999999999
  endloop
endfacet
facet normal 1.0 0.0 0.0
  outer loop
    vertex 19.999999999999996 -35.99999999999999 0.9999999999999999
    vertex 19.999999999999996 -28.999999999999996 0.0
    vertex 19.999999999999996 -35.0 0.9999999999999999
  endloop
endfacet
facet normal 1.0 0.0 0.0
  outer loop
    vertex 19.999999999999996 -35.99999999999999 0.9999999999999999
    vertex 19.999999999999996 -35.0 0.9999999999999999
    vertex 19.999999999999996 -35.99999999999999 3.9999999999999996
  endloop
endfacet
facet normal 1.0 0.0 0.0
  outer loop
    vertex 19.999999999999996 -35.0 0.9999999999999999
    vertex 19.999999999999996 -28.999999999999996 0.0
    vertex 19.999999999999996 -32.99999999999999 1.0
  endloop
endfacet
facet normal 1.0 0.0 0.0
  outer loop
    vertex 19.999999999999996 -32.99999999999999 1.0
    vertex 19.999999999999996 -28.999999999999996 0.0
    vertex 19.999999999999996 -31.999999999999996 0.9999999999999999
  endloop
endfacet
facet normal 1.0 0.0 0.0
  outer loop
    vertex 19.999999999999996 -32.99999999999999 1.0
    vertex 19.999999999999996 -31.999999999999996 0.9999999999999999
    vertex 19.999999999999996 -32.99999999999999 3.0
  endloop
endfacet
facet normal 1.0 0.0 0.0
  outer loop
    vertex 19.999999999999996 -31.999999999999996 0.9999999999999999
    vertex 19.999999999999996 -28.999999999999996 0.0
    vertex 19.999999999999996 -28.999999999999996 0.9999999999999999
  endloop
endfacet
facet normal 1.0 0.0 0.0
  outer loop
    vertex 19.999999999999996 -35.99999999999999 3.9999999999999996
    vertex 19.999999999999996 -35.0 3.0
    vertex 19.999999999999996 -31.999999999999996 3.9999999999999996
  endloop
endfacet
facet normal 1.0 0.0 0.0
  outer loop
    vertex 19.999999999999996 -35.0 3.0
    vertex 19.999999999999996 -35.99999999999999 3.9999999999999996
    vertex 19.999999999999996 -35.0 0.9999999999999999
  endloop
endfacet
facet normal 1.0 0.0 0.0
  outer loop
    vertex 19.999999999999996 -31.999999999999996 3.9999999999999996
    vertex 19.999999999999996 -35.0 3.0
    vertex 19.999999999999996 -32.99999999999999 3.0
  endloop
endfacet
facet normal 1.0 0.0 0.0
  outer loop
    vertex 19.999999999999996 -31.999999999999996 3.9999999999999996
    vertex 19.999999999999996 -32.99999999999999 3.0
    vertex 19.999999999999996 -31.999999999999996 0.9999999999999999
  endloop
endfacet
facet normal 1.0 0.0 0.0
  outer loop
    vertex 4.999999999999999 -31.999999999999996 0.9999999999999999
    vertex 4.999999999999999 -32.99999999999999 2.9862534604205337
    vertex 4.999999999999999 -32.99999999999999 0.986253460420534
  endloop
endfacet
facet normal 1.0 0.0 0.0
  outer loop
    vertex 4.999999999999999 -35.0 0.986253460420534
    vertex 4.999999999999999 -35.99999999999999 3.9999999999999996
    vertex 4.999999999999999 -35.99999999999999 0.9999999999999999
  endloop
endfacet
facet normal 1.0 0.0 0.0
  outer loop
    vertex 4.999999999999999 -35.99999999999999 3.9999999999999996
    vertex 4.999999999999999 -35.0 0.986253460420534
    vertex 4.999999999999999 -35.0 2.9862534604205337
  endloop
endfacet
facet normal 1.0 0.0 0.0
  outer loop
    vertex 4.999999999999999 -35.99999999999999 3.9999999999999996
    vertex 4.999999999999999 -35.0 2.9862534604205337
    vertex 4.999999999999999 -31.999999999999996 3.9999999999999996
  endloop
endfacet
facet normal 1.0 0.0 0.0
  outer loop
    vertex 4.999999999999999 -31.999999999999996 3.9999999999999996
    vertex 4.999999999999999 -35.0 2.9862534604205337
    vertex 4.999999999999999 -32.99999999999999 2.9862534604205337
  endloop
endfacet
facet normal 1.0 0.0 0.0
  outer loop
    vertex 4.999999999999999 -31.999999999999996 3.9999999999999996
    vertex 4.999999999999999 -32.99999999999999 2.9862534604205337
    vertex 4.999999999999999 -31.999999999999996 0.9999999999999999
  endloop
endfacet
facet normal -0.0 -0.0 -1.0
  outer loop
    vertex 19.999999999999996 -32.99999999999999 3.0
    vertex 14.999999999999993 -35.0 3.0
    vertex 14.999999999999993 -32.99999999999999 3.0
  endloop
endfacet
facet normal -0.0 -0.0 -1.0
  outer loop
    vertex 14.999999999999993 -35.0 3.0
    vertex 19.999999999999996 -32.99999999999999 3.0
    vertex 19.999999999999996 -35.0 3.0
  endloop
endfacet
facet normal 0.0 1.0 0.0
  outer loop
    vertex 14.999999999999993 -35.0 3.0
    vertex 19.999999999999996 -35.0 0.9999999999999999
    vertex 14.999999999999993 -35.0 0.9999999999999999
  endloop
endfacet
facet normal 0.0 1.0 0.0
  outer loop
    vertex 19.999999999999996 -35.0 0.9999999999999999
    vertex 14.999999999999993 -35.0 3.0
    vertex 19.999999999999996 -35.0 3.0
  endloop
endfacet
facet normal 0.0 -1.0 0.0
  outer loop
    vertex 19.999999999999996 -32.99999999999999 3.0
    vertex 14.999999999999993 -32.99999999999999 1.0
    vertex 19.999999999999996 -32.99999999999999 1.0
  endloop
endfacet
facet normal 0.0 -1.0 0.0
  outer loop
    vertex 14.999999999999993 -32.99999999999999 1.0
    vertex 19.999999999999996 -32.99999999999999 3.0
    vertex 14.999999999999993 -32.99999999999999 3.0
  endloop
endfacet
facet normal 0.0 0.0 -1.0
  outer loop
    vertex 4.999999999999999 -32.99999999999999 2.9862534604205337
    vertex 0.0 -35.0 2.9862534604205337
    vertex 0.0 -32.99999999999999 2.9862534604205337
  endloop
endfacet
facet normal 0.0 0.0 -1.0
  outer loop
    vertex 0.0 -35.0 2.9862534604205337
    vertex 4.999999999999999 -32.99999999999999 2.9862534604205337
    vertex 4.999999999999999 -35.0 2.9862534604205337
  endloop
endfacet
facet normal 0.0 -1.0 0.0
  outer loop
    vertex 4.999999999999999 -32.99999999999999 2.9862534604205337
    vertex 0.0 -32.99999999999999 0.986253460420534
    vertex 4.999999999999999 -32.99999999999999 0.986253460420534
  endloop
endfacet
facet normal 0.0 -1.0 0.0
  outer loop
    vertex 0.0 -32.99999999999999 0.986253460420534
    vertex 4.999999999999999 -32.99999999999999 2.9862534604205337
    vertex 0.0 -32.99999999999999 2.9862534604205337
  endloop
endfacet
facet normal -0.0004872188821044882 0.0008700337180437255 0.9999995028294217
  outer loop
    vertex 4.999999999999999 -35.0 0.986253460420534
    vertex 0.0 -32.99999999999999 0.986253460420534
    vertex 0.0 -35.0 0.986253460420534
  endloop
endfacet
facet normal -0.0004872188821044882 0.0008700337180437255 0.9999995028294217
  outer loop
    vertex 0.0 -32.99999999999999 0.986253460420534
    vertex 4.999999999999999 -35.0 0.986253460420534
    vertex 4.999999999999999 -32.99999999999999 0.986253460420534
  endloop
endfacet
facet normal -0.0004872188821044882 0.0008700337180437255 0.9999995028294217
  outer loop
    vertex 4.999999999999999 -32.99999999999999 0.986253460420534
    vertex 4.999999999999999 -35.0 0.986253460420534
    vertex 19.999999999999996 -38.99999999999999 0.9999999999999999
  endloop
endfacet
facet normal 0.0 1.0 0.0
  outer loop
    vertex 0.0 -35.0 2.9862534604205337
    vertex 4.999999999999999 -35.0 0.986253460420534
    vertex 0.0 -35.0 0.986253460420534
  endloop
endfacet
facet normal 0.0 1.0 0.0
  outer loop
    vertex 4.999999999999999 -35.0 0.986253460420534
    vertex 0.0 -35.0 2.9862534604205337
    vertex 4.999999999999999 -35.0 2.9862534604205337
  endloop
endfacet
facet normal 0.0 -1.0 0.0
  outer loop
    vertex 19.999999999999996 -38.99999999999999 0.9999999999999999
    vertex 1.9999999999999996 -38.99999999999999 0.0
    vertex 19.999999999999996 -38.99999999999999 0.0
  endloop
endfacet
facet normal 0.0 -1.0 0.0
  outer loop
    vertex 1.9999999999999996 -38.99999999999999 0.0
    vertex 19.999999999999996 -38.99999999999999 0.9999999999999999
    vertex 1.9999999999999998 -38.99999999999999 0.9999999999999999
  endloop
endfacet
facet normal 0.0 -1.0 0.0
  outer loop
    vertex 1.9999999999999998 -41.99999999999999 0.9999999999999999
    vertex 0.0 -41.99999999999999 0.0
    vertex 1.9999999999999996 -41.99999999999999 0.0
  endloop
endfacet
facet normal 0.0 -1.0 0.0
  outer loop
    vertex 0.0 -41.99999999999999 0.0
    vertex 1.9999999999999998 -41.99999999999999 0.9999999999999999
    vertex 0.0 -41.99999999999999 0.9999999999999999
  endloop
endfacet
facet normal 1.0 0.0 -3.524958103184873e-16
  outer loop
    vertex 1.9999999999999996 -38.99999999999999 0.0
    vertex 1.9999999999999998 -41.99999999999999 0.9999999999999999
    vertex 1.9999999999999996 -41.99999999999999 0.0
  endloop
endfacet
facet normal 1.0 0.0 -3.524958103184873e-16
  outer loop
    vertex 1.9999999999999998 -41.99999999999999 0.9999999999999999
    vertex 1.9999999999999996 -38.99999999999999 0.0
    vertex 1.9999999999999998 -38.99999999999999 0.9999999999999999
  endloop
endfacet
facet normal 0.0 0.0 1.0
  outer loop
    vertex 1.9999999999999998 -41.99999999999999 0.9999999999999999
    vertex 0.0 -35.99999999999999 0.9999999999999999
    vertex 0.0 -41.99999999999999 0.9999999999999999
  endloop
endfacet
facet normal 0.0 0.0 1.0
  outer loop
    vertex 0.0 -35.99999999999999 0.9999999999999999
    vertex 1.9999999999999998 -41.99999999999999 0.9999999999999999
    vertex 1.9999999999999998 -38.99999999999999 0.9999999999999999
  endloop
endfacet
facet normal 0.0 0.0 1.0
  outer loop
    vertex 0.0 -35.99999999999999 0.9999999999999999
    vertex 1.9999999999999998 -38.99999999999999 0.9999999999999999
    vertex 4.999999999999999 -35.99999999999999 0.9999999999999999
  endloop
endfacet
facet normal 0.0 0.0 1.0
  outer loop
    vertex 4.999999999999999 -35.99999999999999 0.9999999999999999
    vertex 1.9999999999999998 -38.99999999999999 0.9999999999999999
    vertex 19.999999999999996 -38.99999999999999 0.9999999999999999
  endloop
endfacet
facet normal 0.002749037800401289 0.013745189002006424 0.9999017514588477
  outer loop
    vertex 19.999999999999996 -38.99999999999999 0.9999999999999999
    vertex 4.999999999999999 -35.0 0.986253460420534
    vertex 4.999999999999999 -35.99999999999999 0.9999999999999999
  endloop
endfacet
facet normal -0.006414313814487411 -0.013744958173901586 0.9998849597344122
  outer loop
    vertex 19.999999999999996 -38.99999999999999 0.9999999999999999
    vertex 4.999999999999999 -31.999999999999996 0.9999999999999999
    vertex 4.999999999999999 -32.99999999999999 0.986253460420534
  endloop
endfacet
facet normal -1.5343039990174075e-18 2.8973248478134565e-19 1.0
  outer loop
    vertex 0.0 -22.999999999999996 0.9999999999999999
    vertex 1.9999999999999998 -25.999999999999996 0.9999999999999999
    vertex 4.999999999999999 -22.999999999999996 0.9999999999999999
  endloop
endfacet
facet normal -1.5343039990174075e-18 2.8973248478134565e-19 1.0
  outer loop
    vertex 1.9999999999999998 -25.999999999999996 0.9999999999999999
    vertex 0.0 -22.999999999999996 0.9999999999999999
    vertex 1.9999999999999998 -28.999999999999996 0.9999999999999999
  endloop
endfacet
facet normal -1.5343039990174075e-18 2.8973248478134565e-19 1.0
  outer loop
    vertex 4.999999999999999 -22.999999999999996 0.9999999999999999
    vertex 1.9999999999999998 -25.999999999999996 0.9999999999999999
    vertex 19.999999999999996 -25.999999999999996 0.9999999999999999
  endloop
endfacet
facet normal -1.5343039990174075e-18 2.8973248478134565e-19 1.0
  outer loop
    vertex 4.999999999999999 -31.999999999999996 0.9999999999999999
    vertex 14.999999999999998 -35.99999999999999 0.9999999999999999
    vertex 14.999999999999993 -35.0 0.9999999999999999
  endloop
endfacet
facet normal -1.5343039990174075e-18 2.8973248478134565e-19 1.0
  outer loop
    vertex 14.999999999999998 -35.99999999999999 0.9999999999999999
    vertex 4.999999999999999 -31.999999999999996 0.9999999999999999
    vertex 19.999999999999996 -38.99999999999999 0.9999999999999999
  endloop
endfacet
facet normal -1.5343039990174075e-18 2.8973248478134565e-19 1.0
  outer loop
    vertex 14.999999999999998 -35.99999999999999 0.9999999999999999
    vertex 19.999999999999996 -38.99999999999999 0.9999999999999999
    vertex 19.999999999999996 -35.99999999999999 0.9999999999999999
  endloop
endfacet
facet normal -1.5343039990174075e-18 2.8973248478134565e-19 1.0
  outer loop
    vertex 19.999999999999996 -35.0 0.9999999999999999
    vertex 14.999999999999993 -32.99999999999999 1.0
    vertex 14.999999999999993 -35.0 0.9999999999999999
  endloop
endfacet
facet normal -1.5343039990174075e-18 2.8973248478134565e-19 1.0
  outer loop
    vertex 14.999999999999993 -32.99999999999999 1.0
    vertex 19.999999999999996 -35.0 0.9999999999999999
    vertex 19.999999999999996 -32.99999999999999 1.0
  endloop
endfacet
facet normal -1.5343039990174075e-18 2.8973248478134565e-19 1.0
  outer loop
    vertex 0.0 -31.999999999999996 0.9999999999999999
    vertex 1.9999999999999998 -28.999999999999996 0.9999999999999999
    vertex 0.0 -22.999999999999996 0.9999999999999999
  endloop
endfacet
facet normal -1.5343039990174075e-18 2.8973248478134565e-19 1.0
  outer loop
    vertex 1.9999999999999998 -28.999999999999996 0.9999999999999999
    vertex 0.0 -31.999999999999996 0.9999999999999999
    vertex 4.999999999999999 -31.999999999999996 0.9999999999999999
  endloop
endfacet
facet normal -1.5343039990174075e-18 2.8973248478134565e-19 1.0
  outer loop
    vertex 1.9999999999999998 -28.999999999999996 0.9999999999999999
    vertex 4.999999999999999 -31.999999999999996 0.9999999999999999
    vertex 19.999999999999996 -28.999999999999996 0.9999999999999999
  endloop
endfacet
facet normal -1.5343039990174075e-18 2.8973248478134565e-19 1.0
  outer loop
    vertex 19.999999999999996 -28.999999999999996 0.9999999999999999
    vertex 4.999999999999999 -31.999999999999996 0.9999999999999999
    vertex 14.999999999999998 -31.999999999999996 0.9999999999999999
  endloop
endfacet
facet normal -1.5343039990174075e-18 2.8973248478134565e-19 1.0
  outer loop
    vertex 14.999999999999998 -31.999999999999996 0.9999999999999999
    vertex 4.999999999999999 -31.999999999999996 0.9999999999999999
    vertex 14.999999999999993 -32.99999999999999 1.0
  endloop
endfacet
facet normal -1.5343039990174075e-18 2.8973248478134565e-19 1.0
  outer loop
    vertex 14.999999999999993 -32.99999999999999 1.0
    vertex 4.999999999999999 -31.999999999999996 0.9999999999999999
    vertex 14.999999999999993 -35.0 0.9999999999999999
  endloop
endfacet
facet normal -1.5343039990174075e-18 2.8973248478134565e-19 1.0
  outer loop
    vertex 19.999999999999996 -28.999999999999996 0.9999999999999999
    vertex 14.999999999999998 -31.999999999999996 0.9999999999999999
    vertex 19.999999999999996 -31.999999999999996 0.9999999999999999
  endloop
endfacet
facet normal 0.0 1.0 0.0
  outer loop
    vertex 1.9999999999999998 -28.999999999999996 0.9999999999999999
    vertex 19.999999999999996 -28.999999999999996 0.0
    vertex 1.9999999999999996 -28.999999999999996 0.0
  endloop
endfacet
facet normal 0.0 1.0 0.0
  outer loop
    vertex 19.999999999999996 -28.999999999999996 0.0
    vertex 1.9999999999999998 -28.999999999999996 0.9999999999999999
    vertex 19.999999999999996 -28.999999999999996 0.9999999999999999
  endloop
endfacet
facet normal 0.0 -1.0 0.0
  outer loop
    vertex 19.999999999999996 -22.999999999999996 3.9999999999999996
    vertex 14.999999999999998 -22.999999999999996 0.9999999999999999
    vertex 19.999999999999996 -22.999999999999996 0.9999999999999999
  endloop
endfacet
facet normal 0.0 -1.0 0.0
  outer loop
    vertex 14.999999999999998 -22.999999999999996 0.9999999999999999
    vertex 19.999999999999996 -22.999999999999996 3.9999999999999996
    vertex 14.999999999999998 -22.999999999999996 3.9999999999999996
  endloop
endfacet
facet normal 0.0 1.0 0.0
  outer loop
    vertex 14.999999999999998 -19.0 3.9999999999999996
    vertex 19.999999999999996 -19.0 0.9999999999999999
    vertex 14.999999999999998 -19.0 0.9999999999999999
  endloop
endfacet
facet normal 0.0 1.0 0.0
  outer loop
    vertex 19.999999999999996 -19.0 0.9999999999999999
    vertex 14.999999999999998 -19.0 3.9999999999999996
    vertex 19.999999999999996 -19.0 3.9999999999999996
  endloop
endfacet
facet normal -1.0 -1.034293642283206e-31 9.399888275159659e-16
  outer loop
    vertex 14.999999999999998 -22.999999999999996 3.9999999999999996
    vertex 14.999999999999993 -22.0 3.0
    vertex 14.999999999999998 -22.999999999999996 0.9999999999999999
  endloop
endfacet
facet normal -1.0 -1.034293642283206e-31 9.399888275159659e-16
  outer loop
    vertex 14.999999999999993 -22.0 3.0
    vertex 14.999999999999998 -22.999999999999996 3.9999999999999996
    vertex 14.999999999999998 -19.0 3.9999999999999996
  endloop
endfacet
facet normal -1.0 -1.034293642283206e-31 9.399888275159659e-16
  outer loop
    vertex 14.999999999999993 -22.0 3.0
    vertex 14.999999999999998 -19.0 3.9999999999999996
    vertex 14.999999999999993 -19.999999999999996 3.0
  endloop
endfacet
facet normal -1.0 -1.034293642283206e-31 9.399888275159659e-16
  outer loop
    vertex 14.999999999999993 -19.999999999999996 3.0
    vertex 14.999999999999998 -19.0 3.9999999999999996
    vertex 14.999999999999993 -19.999999999999996 1.0
  endloop
endfacet
facet normal -1.0 -1.034293642283206e-31 9.399888275159659e-16
  outer loop
    vertex 14.999999999999993 -19.999999999999996 1.0
    vertex 14.999999999999998 -19.0 3.9999999999999996
    vertex 14.999999999999998 -19.0 0.9999999999999999
  endloop
endfacet
facet normal -1.0 -1.034293642283206e-31 9.399888275159659e-16
  outer loop
    vertex 14.999999999999993 -22.0 0.9999999999999999
    vertex 14.999999999999998 -22.999999999999996 0.9999999999999999
    vertex 14.999999999999993 -22.0 3.0
  endloop
endfacet
facet normal 0.0 0.0 1.0
  outer loop
    vertex 19.999999999999996 -22.999999999999996 3.9999999999999996
    vertex 14.999999999999998 -19.0 3.9999999999999996
    vertex 14.999999999999998 -22.999999999999996 3.9999999999999996
  endloop
endfacet
facet normal 0.0 0.0 1.0
  outer loop
    vertex 14.999999999999998 -19.0 3.9999999999999996
    vertex 19.999999999999996 -22.999999999999996 3.9999999999999996
    vertex 19.999999999999996 -19.0 3.9999999999999996
  endloop
endfacet
facet normal 1.0 0.0 0.0
  outer loop
    vertex 19.999999999999996 -15.999999999999998 0.0
    vertex 19.999999999999996 -25.999999999999996 0.9999999999999999
    vertex 19.999999999999996 -25.999999999999996 0.0
  endloop
endfacet
facet normal 1.0 0.0 0.0
  outer loop
    vertex 19.999999999999996 -25.999999999999996 0.9999999999999999
    vertex 19.999999999999996 -15.999999999999998 0.0
    vertex 19.999999999999996 -22.999999999999996 0.9999999999999999
  endloop
endfacet
facet normal 1.0 0.0 0.0
  outer loop
    vertex 19.999999999999996 -22.999999999999996 0.9999999999999999
    vertex 19.999999999999996 -15.999999999999998 0.0
    vertex 19.999999999999996 -22.0 0.9999999999999999
  endloop
endfacet
facet normal 1.0 0.0 0.0
  outer loop
    vertex 19.999999999999996 -22.999999999999996 0.9999999999999999
    vertex 19.999999999999996 -22.0 0.9999999999999999
    vertex 19.999999999999996 -22.999999999999996 3.9999999999999996
  endloop
endfacet
facet normal 1.0 0.0 0.0
  outer loop
    vertex 19.999999999999996 -22.0 0.9999999999999999
    vertex 19.999999999999996 -15.999999999999998 0.0
    vertex 19.999999999999996 -19.999999999999996 1.0
  endloop
endfacet
facet normal 1.0 0.0 0.0
  outer loop
    vertex 19.999999999999996 -19.999999999999996 1.0
    vertex 19.999999999999996 -15.999999999999998 0.0
    vertex 19.999999999999996 -19.0 0.9999999999999999
  endloop
endfacet
facet normal 1.0 0.0 0.0
  outer loop
    vertex 19.999999999999996 -19.999999999999996 1.0
    vertex 19.999999999999996 -19.0 0.9999999999999999
    vertex 19.999999999999996 -19.999999999999996 3.0
  endloop
endfacet
facet normal 1.0 0.0 0.0
  outer loop
    vertex 19.999999999999996 -19.0 0.9999999999999999
    vertex 19.999999999999996 -15.999999999999998 0.0
    vertex 19.999999999999996 -15.999999999999998 0.9999999999999999
  endloop
endfacet
facet normal 1.0 0.0 0.0
  outer loop
    vertex 19.999999999999996 -22.999999999999996 3.9999999999999996
    vertex 19.999999999999996 -22.0 3.0
    vertex 19.999999999999996 -19.0 3.9999999999999996
  endloop
endfacet
facet normal 1.0 0.0 0.0
  outer loop
    vertex 19.999999999999996 -22.0 3.0
    vertex 19.999999999999996 -22.999999999999996 3.9999999999999996
    vertex 19.999999999999996 -22.0 0.9999999999999999
  endloop
endfacet
facet normal 1.0 0.0 0.0
  outer loop
    vertex 19.999999999999996 -19.0 3.9999999999999996
    vertex 19.999999999999996 -22.0 3.0
    vertex 19.999999999999996 -19.999999999999996 3.0
  endloop
endfacet
facet normal 1.0 0.0 0.0
  outer loop
    vertex 19.999999999999996 -19.0 3.9999999999999996
    vertex 19.999999999999996 -19.999999999999996 3.0
    vertex 19.999999999999996 -19.0 0.9999999999999999
  endloop
endfacet
facet normal 0.0 0.0 1.0
  outer loop
    vertex 4.999999999999999 -22.999999999999996 3.9999999999999996
    vertex 0.0 -19.0 3.9999999999999996
    vertex 0.0 -22.999999999999996 3.9999999999999996
  endloop
endfacet
facet normal 0.0 0.0 1.0
  outer loop
    vertex 0.0 -19.0 3.9999999999999996
    vertex 4.999999999999999 -22.999999999999996 3.9999999999999996
    vertex 4.999999999999999 -19.0 3.9999999999999996
  endloop
endfacet
facet normal 0.0 1.0 0.0
  outer loop
    vertex 0.0 -19.0 3.9999999999999996
    vertex 4.999999999999999 -19.0 0.9999999999999999
    vertex 0.0 -19.0 0.9999999999999999
  endloop
endfacet
facet normal 0.0 1.0 0.0
  outer loop
    vertex 4.999999999999999 -19.0 0.9999999999999999
    vertex 0.0 -19.0 3.9999999999999996
    vertex 4.999999999999999 -19.0 3.9999999999999996
  endloop
endfacet
facet normal -7.049916206369745e-17 -1.0 -0.0
  outer loop
    vertex 4.999999999999999 -22.999999999999996 3.9999999999999996
    vertex 0.0 -22.999999999999996 0.9999999999999999
    vertex 4.999999999999999 -22.999999999999996 0.9999999999999999
  endloop
endfacet
facet normal -7.049916206369745e-17 -1.0 -0.0
  outer loop
    vertex 0.0 -22.999999999999996 0.9999999999999999
    vertex 4.999999999999999 -22.999999999999996 3.9999999999999996
    vertex 0.0 -22.999999999999996 3.9999999999999996
  endloop
endfacet
facet normal 1.0 0.0 0.0
  outer loop
    vertex 4.999999999999999 -19.0 0.9999999999999999
    vertex 4.999999999999999 -19.999999999999996 2.9862534604205337
    vertex 4.999999999999999 -19.999999999999996 0.986253460420534
  endloop
endfacet
facet normal 1.0 0.0 0.0
  outer loop
    vertex 4.999999999999999 -22.0 0.986253460420534
    vertex 4.999999999999999 -22.999999999999996 3.9999999999999996
    vertex 4.999999999999999 -22.999999999999996 0.9999999999999999
  endloop
endfacet
facet normal 1.0 0.0 0.0
  outer loop
    vertex 4.999999999999999 -22.999999999999996 3.9999999999999996
    vertex 4.999999999999999 -22.0 0.986253460420534
    vertex 4.999999999999999 -22.0 2.9862534604205337
  endloop
endfacet
facet normal 1.0 0.0 0.0
  outer loop
    vertex 4.999999999999999 -22.999999999999996 3.9999999999999996
    vertex 4.999999999999999 -22.0 2.9862534604205337
    vertex 4.999999999999999 -19.0 3.9999999999999996
  endloop
endfacet
facet normal 1.0 0.0 0.0
  outer loop
    vertex 4.999999999999999 -19.0 3.9999999999999996
    vertex 4.999999999999999 -22.0 2.9862534604205337
    vertex 4.999999999999999 -19.999999999999996 2.9862534604205337
  endloop
endfacet
facet normal 1.0 0.0 0.0
  outer loop
    vertex 4.999999999999999 -19.0 3.9999999999999996
    vertex 4.999999999999999 -19.999999999999996 2.9862534604205337
    vertex 4.999999999999999 -19.0 0.9999999999999999
  endloop
endfacet
facet normal -0.0 -0.0 -1.0
  outer loop
    vertex 19.999999999999996 -19.999999999999996 3.0
    vertex 14.999999999999993 -22.0 3.0
    vertex 14.999999999999993 -19.999999999999996 3.0
  endloop
endfacet
facet normal -0.0 -0.0 -1.0
  outer loop
    vertex 14.999999999999993 -22.0 3.0
    vertex 19.999999999999996 -19.999999999999996 3.0
    vertex 19.999999999999996 -22.0 3.0
  endloop
endfacet
facet normal 0.0 1.0 0.0
  outer loop
    vertex 14.999999999999993 -22.0 3.0
    vertex 19.999999999999996 -22.0 0.9999999999999999
    vertex 14.999999999999993 -22.0 0.9999999999999999
  endloop
endfacet
facet normal 0.0 1.0 0.0
  outer loop
    vertex 19.999999999999996 -22.0 0.9999999999999999
    vertex 14.999999999999993 -22.0 3.0
    vertex 19.999999999999996 -22.0 3.0
  endloop
endfacet
facet normal 0.0 -1.0 0.0
  outer loop
    vertex 19.999999999999996 -19.999999999999996 3.0
    vertex 14.999999999999993 -19.999999999999996 1.0
    vertex 19.999999999999996 -19.999999999999996 1.0
  endloop
endfacet
facet normal 0.0 -1.0 0.0
  outer loop
    vertex 14.999999999999993 -19.999999999999996 1.0
    vertex 19.999999999999996 -19.999999999999996 3.0
    vertex 14.999999999999993 -19.999999999999996 3.0
  endloop
endfacet
facet normal 0.0 0.0 -1.0
  outer loop
    vertex 4.999999999999999 -19.999999999999996 2.9862534604205337
    vertex 0.0 -22.0 2.9862534604205337
    vertex 0.0 -19.999999999999996 2.9862534604205337
  endloop
endfacet
facet normal 0.0 0.0 -1.0
  outer loop
    vertex 0.0 -22.0 2.9862534604205337
    vertex 4.999999999999999 -19.999999999999996 2.9862534604205337
    vertex 4.999999999999999 -22.0 2.9862534604205337
  endloop
endfacet
facet normal 0.0 -1.0 0.0
  outer loop
    vertex 4.999999999999999 -19.999999999999996 2.9862534604205337
    vertex 0.0 -19.999999999999996 0.986253460420534
    vertex 4.999999999999999 -19.999999999999996 0.986253460420534
  endloop
endfacet
facet normal 0.0 -1.0 0.0
  outer loop
    vertex 0.0 -19.999999999999996 0.986253460420534
    vertex 4.999999999999999 -19.999999999999996 2.9862534604205337
    vertex 0.0 -19.999999999999996 2.9862534604205337
  endloop
endfacet
facet normal -0.00048721888210448774 0.0008700337180437257 0.9999995028294217
  outer loop
    vertex 4.999999999999999 -22.0 0.986253460420534
    vertex 0.0 -19.999999999999996 0.986253460420534
    vertex 0.0 -22.0 0.986253460420534
  endloop
endfacet
facet normal -0.00048721888210448774 0.0008700337180437257 0.9999995028294217
  outer loop
    vertex 0.0 -19.999999999999996 0.986253460420534
    vertex 4.999999999999999 -22.0 0.986253460420534
    vertex 4.999999999999999 -19.999999999999996 0.986253460420534
  endloop
endfacet
facet normal -0.00048721888210448774 0.0008700337180437257 0.9999995028294217
  outer loop
    vertex 4.999999999999999 -19.999999999999996 0.986253460420534
    vertex 4.999999999999999 -22.0 0.986253460420534
    vertex 19.999999999999996 -25.999999999999996 0.9999999999999999
  endloop
endfacet
facet normal 0.0 1.0 0.0
  outer loop
    vertex 0.0 -22.0 2.9862534604205337
    vertex 4.999999999999999 -22.0 0.986253460420534
    vertex 0.0 -22.0 0.986253460420534
  endloop
endfacet
facet normal 0.0 1.0 0.0
  outer loop
    vertex 4.999999999999999 -22.0 0.986253460420534
    vertex 0.0 -22.0 2.9862534604205337
    vertex 4.999999999999999 -22.0 2.9862534604205337
  endloop
endfacet
facet normal 0.0 -1.0 0.0
  outer loop
    vertex 19.999999999999996 -25.999999999999996 0.9999999999999999
    vertex 1.9999999999999996 -25.999999999999996 0.0
    vertex 19.999999999999996 -25.999999999999996 0.0
  endloop
endfacet
facet normal 0.0 -1.0 0.0
  outer loop
    vertex 1.9999999999999996 -25.999999999999996 0.0
    vertex 19.999999999999996 -25.999999999999996 0.9999999999999999
    vertex 1.9999999999999998 -25.999999999999996 0.9999999999999999
  endloop
endfacet
facet normal 1.0 0.0 -3.524958103184872e-16
  outer loop
    vertex 1.9999999999999996 -25.999999999999996 0.0
    vertex 1.9999999999999998 -28.999999999999996 0.9999999999999999
    vertex 1.9999999999999996 -28.999999999999996 0.0
  endloop
endfacet
facet normal 1.0 0.0 -3.524958103184872e-16
  outer loop
    vertex 1.9999999999999998 -28.999999999999996 0.9999999999999999
    vertex 1.9999999999999996 -25.999999999999996 0.0
    vertex 1.9999999999999998 -25.999999999999996 0.9999999999999999
  endloop
endfacet
facet normal 0.0027490378004012654 0.01374518900200633 0.9999017514588477
  outer loop
    vertex 19.999999999999996 -25.999999999999996 0.9999999999999999
    vertex 4.999999999999999 -22.0 0.986253460420534
    vertex 4.999999999999999 -22.999999999999996 0.9999999999999999
  endloop
endfacet
facet normal -0.006414313814487411 -0.013744958173901586 0.9998849597344122
  outer loop
    vertex 19.999999999999996 -25.999999999999996 0.9999999999999999
    vertex 4.999999999999999 -19.0 0.9999999999999999
    vertex 4.999999999999999 -19.999999999999996 0.986253460420534
  endloop
endfacet
facet normal -1.5343039990174075e-18 2.8973248478134565e-19 1.0
  outer loop
    vertex 0.0 -9.999999999999998 0.9999999999999999
    vertex 1.9999999999999998 -12.999999999999998 0.9999999999999999
    vertex 4.999999999999999 -9.999999999999998 0.9999999999999999
  endloop
endfacet
facet normal -1.5343039990174075e-18 2.8973248478134565e-19 1.0
  outer loop
    vertex 1.9999999999999998 -12.999999999999998 0.9999999999999999
    vertex 0.0 -9.999999999999998 0.9999999999999999
    vertex 1.9999999999999998 -15.999999999999998 0.9999999999999999
  endloop
endfacet
facet normal -1.5343039990174075e-18 2.8973248478134565e-19 1.0
  outer loop
    vertex 4.999999999999999 -9.999999999999998 0.9999999999999999
    vertex 1.9999999999999998 -12.999999999999998 0.9999999999999999
    vertex 19.999999999999996 -12.999999999999998 0.9999999999999999
  endloop
endfacet
facet normal -1.5343039990174075e-18 2.8973248478134565e-19 1.0
  outer loop
    vertex 4.999999999999999 -19.0 0.9999999999999999
    vertex 14.999999999999998 -22.999999999999996 0.9999999999999999
    vertex 14.999999999999993 -22.0 0.9999999999999999
  endloop
endfacet
facet normal -1.5343039990174075e-18 2.8973248478134565e-19 1.0
  outer loop
    vertex 14.999999999999998 -22.999999999999996 0.9999999999999999
    vertex 4.999999999999999 -19.0 0.9999999999999999
    vertex 19.999999999999996 -25.999999999999996 0.9999999999999999
  endloop
endfacet
facet normal -1.5343039990174075e-18 2.8973248478134565e-19 1.0
  outer loop
    vertex 14.999999999999998 -22.999999999999996 0.9999999999999999
    vertex 19.999999999999996 -25.999999999999996 0.9999999999999999
    vertex 19.999999999999996 -22.999999999999996 0.9999999999999999
  endloop
endfacet
facet normal -1.5343039990174075e-18 2.8973248478134565e-19 1.0
  outer loop
    vertex 19.999999999999996 -22.0 0.9999999999999999
    vertex 14.999999999999993 -19.999999999999996 1.0
    vertex 14.999999999999993 -22.0 0.9999999999999999
  endloop
endfacet
facet normal -1.5343039990174075e-18 2.8973248478134565e-19 1.0
  outer loop
    vertex 14.999999999999993 -19.999999999999996 1.0
    vertex 19.999999999999996 -22.0 0.9999999999999999
    vertex 19.999999999999996 -19.999999999999996 1.0
  endloop
endfacet
facet normal -1.5343039990174075e-18 2.8973248478134565e-19 1.0
  outer loop
    vertex 0.0 -19.0 0.9999999999999999
    vertex 1.9999999999999998 -15.999999999999998 0.9999999999999999
    vertex 0.0 -9.999999999999998 0.9999999999999999
  endloop
endfacet
facet normal -1.5343039990174075e-18 2.8973248478134565e-19 1.0
  outer loop
    vertex 1.9999999999999998 -15.999999999999998 0.9999999999999999
    vertex 0.0 -19.0 0.9999999999999999
    vertex 4.999999999999999 -19.0 0.9999999999999999
  endloop
endfacet
facet normal -1.5343039990174075e-18 2.8973248478134565e-19 1.0
  outer loop
    vertex 1.9999999999999998 -15.999999999999998 0.9999999999999999
    vertex 4.999999999999999 -19.0 0.9999999999999999
    vertex 19.999999999999996 -15.999999999999998 0.9999999999999999
  endloop
endfacet
facet normal -1.5343039990174075e-18 2.8973248478134565e-19 1.0
  outer loop
    vertex 19.999999999999996 -15.999999999999998 0.9999999999999999
    vertex 4.999999999999999 -19.0 0.9999999999999999
    vertex 14.999999999999998 -19.0 0.9999999999999999
  endloop
endfacet
facet normal -1.5343039990174075e-18 2.8973248478134565e-19 1.0
  outer loop
    vertex 14.999999999999998 -19.0 0.9999999999999999
    vertex 4.999999999999999 -19.0 0.9999999999999999
    vertex 14.999999999999993 -19.999999999999996 1.0
  endloop
endfacet
facet normal -1.5343039990174075e-18 2.8973248478134565e-19 1.0
  outer loop
    vertex 14.999999999999993 -19.999999999999996 1.0
    vertex 4.999999999999999 -19.0 0.9999999999999999
    vertex 14.999999999999993 -22.0 0.9999999999999999
  endloop
endfacet
facet normal -1.5343039990174075e-18 2.8973248478134565e-19 1.0
  outer loop
    vertex 19.999999999999996 -15.999999999999998 0.9999999999999999
    vertex 14.999999999999998 -19.0 0.9999999999999999
    vertex 19.999999999999996 -19.0 0.9999999999999999
  endloop
endfacet
facet normal 0.0 1.0 0.0
  outer loop
    vertex 1.9999999999999998 -15.999999999999998 0.9999999999999999
    vertex 19.999999999999996 -15.999999999999998 0.0
    vertex 1.9999999999999996 -15.999999999999998 0.0
  endloop
endfacet
facet normal 0.0 1.0 0.0
  outer loop
    vertex 19.999999999999996 -15.999999999999998 0.0
    vertex 1.9999999999999998 -15.999999999999998 0.9999999999999999
    vertex 19.999999999999996 -15.999999999999998 0.9999999999999999
  endloop
endfacet
facet normal 0.0 -1.0 0.0
  outer loop
    vertex 19.999999999999996 -9.999999999999998 3.9999999999999996
    vertex 14.999999999999998 -9.999999999999998 0.9999999999999999
    vertex 19.999999999999996 -9.999999999999998 0.9999999999999999
  endloop
endfacet
facet normal 0.0 -1.0 0.0
  outer loop
    vertex 14.999999999999998 -9.999999999999998 0.9999999999999999
    vertex 19.999999999999996 -9.999999999999998 3.9999999999999996
    vertex 14.999999999999998 -9.999999999999998 3.9999999999999996
  endloop
endfacet
facet normal 0.0 1.0 0.0
  outer loop
    vertex 14.999999999999998 -6.0 3.9999999999999996
    vertex 19.999999999999996 -6.0 0.9999999999999999
    vertex 14.999999999999998 -6.0 0.9999999999999999
  endloop
endfacet
facet normal 0.0 1.0 0.0
  outer loop
    vertex 19.999999999999996 -6.0 0.9999999999999999
    vertex 14.999999999999998 -6.0 3.9999999999999996
    vertex 19.999999999999996 -6.0 3.9999999999999996
  endloop
endfacet
facet normal -1.0 -1.034293642283206e-31 9.399888275159659e-16
  outer loop
    vertex 14.999999999999998 -9.999999999999998 3.9999999999999996
    vertex 14.999999999999993 -9.0 3.0
    vertex 14.999999999999998 -9.999999999999998 0.9999999999999999
  endloop
endfacet
facet normal -1.0 -1.034293642283206e-31 9.399888275159659e-16
  outer loop
    vertex 14.999999999999993 -9.0 3.0
    vertex 14.999999999999998 -9.999999999999998 3.9999999999999996
    vertex 14.999999999999998 -6.0 3.9999999999999996
  endloop
endfacet
facet normal -1.0 -1.034293642283206e-31 9.399888275159659e-16
  outer loop
    vertex 14.999999999999993 -9.0 3.0
    vertex 14.999999999999998 -6.0 3.9999999999999996
    vertex 14.999999999999993 -6.999999999999998 3.0
  endloop
endfacet
facet normal -1.0 -1.034293642283206e-31 9.399888275159659e-16
  outer loop
    vertex 14.999999999999993 -6.999999999999998 3.0
    vertex 14.999999999999998 -6.0 3.9999999999999996
    vertex 14.999999999999993 -6.999999999999998 1.0
  endloop
endfacet
facet normal -1.0 -1.034293642283206e-31 9.399888275159659e-16
  outer loop
    vertex 14.999999999999993 -6.999999999999998 1.0
    vertex 14.999999999999998 -6.0 3.9999999999999996
    vertex 14.999999999999998 -6.0 0.9999999999999999
  endloop
endfacet
facet normal -1.0 -1.034293642283206e-31 9.399888275159659e-16
  outer loop
    vertex 14.999999999999993 -9.0 0.9999999999999999
    vertex 14.999999999999998 -9.999999999999998 0.9999999999999999
    vertex 14.999999999999993 -9.0 3.0
  endloop
endfacet
facet normal 0.0 0.0 1.0
  outer loop
    vertex 19.999999999999996 -9.999999999999998 3.9999999999999996
    vertex 14.999999999999998 -6.0 3.9999999999999996
    vertex 14.999999999999998 -9.999999999999998 3.9999999999999996
  endloop
endfacet
facet normal 0.0 0.0 1.0
  outer loop
    vertex 14.999999999999998 -6.0 3.9999999999999996
    vertex 19.999999999999996 -9.999999999999998 3.9999999999999996
    vertex 19.999999999999996 -6.0 3.9999999999999996
  endloop
endfacet
facet normal 1.0 0.0 0.0
  outer loop
    vertex 19.999999999999996 -3.0 0.0
    vertex 19.999999999999996 -12.999999999999998 0.9999999999999999
    vertex 19.999999999999996 -12.999999999999998 0.0
  endloop
endfacet
facet normal 1.0 0.0 0.0
  outer loop
    vertex 19.999999999999996 -12.999999999999998 0.9999999999999999
    vertex 19.999999999999996 -3.0 0.0
    vertex 19.999999999999996 -9.999999999999998 0.9999999999999999
  endloop
endfacet
facet normal 1.0 0.0 0.0
  outer loop
    vertex 19.999999999999996 -9.999999999999998 0.9999999999999999
    vertex 19.999999999999996 -3.0 0.0
    vertex 19.999999999999996 -9.0 0.9999999999999999
  endloop
endfacet
facet normal 1.0 0.0 0.0
  outer loop
    vertex 19.999999999999996 -9.999999999999998 0.9999999999999999
    vertex 19.999999999999996 -9.0 0.9999999999999999
    vertex 19.999999999999996 -9.999999999999998 3.9999999999999996
  endloop
endfacet
facet normal 1.0 0.0 0.0
  outer loop
    vertex 19.999999999999996 -9.0 0.9999999999999999
    vertex 19.999999999999996 -3.0 0.0
    vertex 19.999999999999996 -6.999999999999998 1.0
  endloop
endfacet
facet normal 1.0 0.0 0.0
  outer loop
    vertex 19.999999999999996 -6.999999999999998 1.0
    vertex 19.999999999999996 -3.0 0.0
    vertex 19.999999999999996 -6.0 0.9999999999999999
  endloop
endfacet
facet normal 1.0 0.0 0.0
  outer loop
    vertex 19.999999999999996 -6.999999999999998 1.0
    vertex 19.999999999999996 -6.0 0.9999999999999999
    vertex 19.999999999999996 -6.999999999999998 3.0
  endloop
endfacet
facet normal 1.0 0.0 0.0
  outer loop
    vertex 19.999999999999996 -6.0 0.9999999999999999
    vertex 19.999999999999996 -3.0 0.0
    vertex 19.999999999999996 -3.0 0.9999999999999999
  endloop
endfacet
facet normal 1.0 0.0 0.0
  outer loop
    vertex 19.999999999999996 -9.999999999999998 3.9999999999999996
    vertex 19.999999999999996 -9.0 3.0
    vertex 19.999999999999996 -6.0 3.9999999999999996
  endloop
endfacet
facet normal 1.0 0.0 0.0
  outer loop
    vertex 19.999999999999996 -9.0 3.0
    vertex 19.999999999999996 -9.999999999999998 3.9999999999999996
    vertex 19.999999999999996 -9.0 0.9999999999999999
  endloop
endfacet
facet normal 1.0 0.0 0.0
  outer loop
    vertex 19.999999999999996 -6.0 3.9999999999999996
    vertex 19.999999999999996 -9.0 3.0
    vertex 19.999999999999996 -6.999999999999998 3.0
  endloop
endfacet
facet normal 1.0 0.0 0.0
  outer loop
    vertex 19.999999999999996 -6.0 3.9999999999999996
    vertex 19.999999999999996 -6.999999999999998 3.0
    vertex 19.999999999999996 -6.0 0.9999999999999999
  endloop
endfacet
facet normal 0.0 0.0 1.0
  outer loop
    vertex 4.999999999999999 -9.999999999999998 3.9999999999999996
    vertex 0.0 -6.0 3.9999999999999996
    vertex 0.0 -9.999999999999998 3.9999999999999996
  endloop
endfacet
facet normal 0.0 0.0 1.0
  outer loop
    vertex 0.0 -6.0 3.9999999999999996
    vertex 4.999999999999999 -9.999999999999998 3.9999999999999996
    vertex 4.999999999999999 -6.0 3.9999999999999996
  endloop
endfacet
facet normal 0.0 1.0 0.0
  outer loop
    vertex 0.0 -6.0 3.9999999999999996
    vertex 4.999999999999999 -6.0 0.9999999999999999
    vertex 0.0 -6.0 0.9999999999999999
  endloop
endfacet
facet normal 0.0 1.0 0.0
  outer loop
    vertex 4.999999999999999 -6.0 0.9999999999999999
    vertex 0.0 -6.0 3.9999999999999996
    vertex 4.999999999999999 -6.0 3.9999999999999996
  endloop
endfacet
facet normal -7.049916206369745e-17 -1.0 -0.0
  outer loop
    vertex 4.999999999999999 -9.999999999999998 3.9999999999999996
    vertex 0.0 -9.999999999999998 0.9999999999999999
    vertex 4.999999999999999 -9.999999999999998 0.9999999999999999
  endloop
endfacet
facet normal -7.049916206369745e-17 -1.0 -0.0
  outer loop
    vertex 0.0 -9.999999999999998 0.9999999999999999
    vertex 4.999999999999999 -9.999999999999998 3.9999999999999996
    vertex 0.0 -9.999999999999998 3.9999999999999996
  endloop
endfacet
facet normal 1.0 0.0 0.0
  outer loop
    vertex 4.999999999999999 -6.0 0.9999999999999999
    vertex 4.999999999999999 -6.999999999999998 2.9862534604205337
    vertex 4.999999999999999 -6.999999999999998 0.986253460420534
  endloop
endfacet
facet normal 1.0 0.0 0.0
  outer loop
    vertex 4.999999999999999 -9.0 0.986253460420534
    vertex 4.999999999999999 -9.999999999999998 3.9999999999999996
    vertex 4.999999999999999 -9.999999999999998 0.9999999999999999
  endloop
endfacet
facet normal 1.0 0.0 0.0
  outer loop
    vertex 4.999999999999999 -9.999999999999998 3.9999999999999996
    vertex 4.999999999999999 -9.0 0.986253460420534
    vertex 4.999999999999999 -9.0 2.9862534604205337
  endloop
endfacet
facet normal 1.0 0.0 0.0
  outer loop
    vertex 4.999999999999999 -9.999999999999998 3.9999999999999996
    vertex 4.999999999999999 -9.0 2.9862534604205337
    vertex 4.999999999999999 -6.0 3.9999999999999996
  endloop
endfacet
facet normal 1.0 0.0 0.0
  outer loop
    vertex 4.999999999999999 -6.0 3.9999999999999996
    vertex 4.999999999999999 -9.0 2.9862534604205337
    vertex 4.999999999999999 -6.999999999999998 2.9862534604205337
  endloop
endfacet
facet normal 1.0 0.0 0.0
  outer loop
    vertex 4.999999999999999 -6.0 3.9999999999999996
    vertex 4.999999999999999 -6.999999999999998 2.9862534604205337
    vertex 4.999999999999999 -6.0 0.9999999999999999
  endloop
endfacet
facet normal -0.0 -0.0 -1.0
  outer loop
    vertex 19.999999999999996 -6.999999999999998 3.0
    vertex 14.999999999999993 -9.0 3.0
    vertex 14.999999999999993 -6.999999999999998 3.0
  endloop
endfacet
facet normal -0.0 -0.0 -1.0
  outer loop
    vertex 14.999999999999993 -9.0 3.0
    vertex 19.999999999999996 -6.999999999999998 3.0
    vertex 19.999999999999996 -9.0 3.0
  endloop
endfacet
facet normal 0.0 1.0 0.0
  outer loop
    vertex 14.999999999999993 -9.0 3.0
    vertex 19.999999999999996 -9.0 0.9999999999999999
    vertex 14.999999999999993 -9.0 0.9999999999999999
  endloop
endfacet
facet normal 0.0 1.0 0.0
  outer loop
    vertex 19.999999999999996 -9.0 0.9999999999999999
    vertex 14.999999999999993 -9.0 3.0
    vertex 19.999999999999996 -9.0 3.0
  endloop
endfacet
facet normal 0.0 -1.0 0.0
  outer loop
    vertex 19.999999999999996 -6.999999999999998 3.0
    vertex 14.999999999999993 -6.999999999999998 1.0
    vertex 19.999999999999996 -6.999999999999998 1.0
  endloop
endfacet
facet normal 0.0 -1.0 0.0
  outer loop
    vertex 14.999999999999993 -6.999999999999998 1.0
    vertex 19.999999999999996 -6.999999999999998 3.0
    vertex 14.999999999999993 -6.999999999999998 3.0
  endloop
endfacet
facet normal 0.0 0.0 -1.0
  outer loop
    vertex 4.999999999999999 -6.999999999999998 2.9862534604205337
    vertex 0.0 -9.0 2.9862534604205337
    vertex 0.0 -6.999999999999998 2.9862534604205337
  endloop
endfacet
facet normal 0.0 0.0 -1.0
  outer loop
    vertex 0.0 -9.0 2.9862534604205337
    vertex 4.999999999999999 -6.999999999999998 2.9862534604205337
    vertex 4.999999999999999 -9.0 2.9862534604205337
  endloop
endfacet
facet normal 0.0 -1.0 0.0
  outer loop
    vertex 4.999999999999999 -6.999999999999998 2.9862534604205337
    vertex 0.0 -6.999999999999998 0.986253460420534
    vertex 4.999999999999999 -6.999999999999998 0.986253460420534
  endloop
endfacet
facet normal 0.0 -1.0 0.0
  outer loop
    vertex 0.0 -6.999999999999998 0.986253460420534
    vertex 4.999999999999999 -6.999999999999998 2.9862534604205337
    vertex 0.0 -6.999999999999998 2.9862534604205337
  endloop
endfacet
facet normal -0.00048721888210448666 0.0008700337180437276 0.9999995028294217
  outer loop
    vertex 4.999999999999999 -9.0 0.986253460420534
    vertex 0.0 -6.999999999999998 0.986253460420534
    vertex 0.0 -9.0 0.986253460420534
  endloop
endfacet
facet normal -0.00048721888210448666 0.0008700337180437276 0.9999995028294217
  outer loop
    vertex 0.0 -6.999999999999998 0.986253460420534
    vertex 4.999999999999999 -9.0 0.986253460420534
    vertex 4.999999999999999 -6.999999999999998 0.986253460420534
  endloop
endfacet
facet normal -0.00048721888210448666 0.0008700337180437276 0.9999995028294217
  outer loop
    vertex 4.999999999999999 -6.999999999999998 0.986253460420534
    vertex 4.999999999999999 -9.0 0.986253460420534
    vertex 19.999999999999996 -12.999999999999998 0.9999999999999999
  endloop
endfacet
facet normal 0.0 1.0 0.0
  outer loop
    vertex 0.0 -9.0 2.9862534604205337
    vertex 4.999999999999999 -9.0 0.986253460420534
    vertex 0.0 -9.0 0.986253460420534
  endloop
endfacet
facet normal 0.0 1.0 0.0
  outer loop
    vertex 4.999999999999999 -9.0 0.986253460420534
    vertex 0.0 -9.0 2.9862534604205337
    vertex 4.999999999999999 -9.0 2.9862534604205337
  endloop
endfacet
facet normal 0.0 -1.0 0.0
  outer loop
    vertex 19.999999999999996 -12.999999999999998 0.9999999999999999
    vertex 1.9999999999999996 -12.999999999999998 0.0
    vertex 19.999999999999996 -12.999999999999998 0.0
  endloop
endfacet
facet normal 0.0 -1.0 0.0
  outer loop
    vertex 1.9999999999999996 -12.999999999999998 0.0
    vertex 19.999999999999996 -12.999999999999998 0.9999999999999999
    vertex 1.9999999999999998 -12.999999999999998 0.9999999999999999
  endloop
endfacet
facet normal 1.0 0.0 -3.524958103184872e-16
  outer loop
    vertex 1.9999999999999996 -12.999999999999998 0.0
    vertex 1.9999999999999998 -15.999999999999998 0.9999999999999999
    vertex 1.9999999999999996 -15.999999999999998 0.0
  endloop
endfacet
facet normal 1.0 0.0 -3.524958103184872e-16
  outer loop
    vertex 1.9999999999999998 -15.999999999999998 0.9999999999999999
    vertex 1.9999999999999996 -12.999999999999998 0.0
    vertex 1.9999999999999998 -12.999999999999998 0.9999999999999999
  endloop
endfacet
facet normal 0.0027490378004012494 0.013745189002006268 0.9999017514588477
  outer loop
    vertex 19.999999999999996 -12.999999999999998 0.9999999999999999
    vertex 4.999999999999999 -9.0 0.986253460420534
    vertex 4.999999999999999 -9.999999999999998 0.9999999999999999
  endloop
endfacet
facet normal -0.006414313814487485 -0.013744958173901756 0.9998849597344122
  outer loop
    vertex 19.999999999999996 -12.999999999999998 0.9999999999999999
    vertex 4.999999999999999 -6.0 0.9999999999999999
    vertex 4.999999999999999 -6.999999999999998 0.986253460420534
  endloop
endfacet
facet normal -1.534303999017408e-18 2.8973248478134488e-19 1.0
  outer loop
    vertex 0.0 3.0 0.9999999999999999
    vertex 1.9999999999999998 0.0 0.9999999999999999
    vertex 4.999999999999999 3.0 0.9999999999999999
  endloop
endfacet
facet normal -1.534303999017408e-18 2.8973248478134488e-19 1.0
  outer loop
    vertex 1.9999999999999998 0.0 0.9999999999999999
    vertex 0.0 3.0 0.9999999999999999
    vertex 1.9999999999999998 -3.0 0.9999999999999999
  endloop
endfacet
facet normal -1.534303999017408e-18 2.8973248478134488e-19 1.0
  outer loop
    vertex 4.999999999999999 3.0 0.9999999999999999
    vertex 1.9999999999999998 0.0 0.9999999999999999
    vertex 19.999999999999996 0.0 0.9999999999999999
  endloop
endfacet
facet normal -1.534303999017408e-18 2.8973248478134488e-19 1.0
  outer loop
    vertex 4.999999999999999 -6.0 0.9999999999999999
    vertex 14.999999999999998 -9.999999999999998 0.9999999999999999
    vertex 14.999999999999993 -9.0 0.9999999999999999
  endloop
endfacet
facet normal -1.534303999017408e-18 2.8973248478134488e-19 1.0
  outer loop
    vertex 14.999999999999998 -9.999999999999998 0.9999999999999999
    vertex 4.999999999999999 -6.0 0.9999999999999999
    vertex 19.999999999999996 -12.999999999999998 0.9999999999999999
  endloop
endfacet
facet normal -1.534303999017408e-18 2.8973248478134488e-19 1.0
  outer loop
    vertex 14.999999999999998 -9.999999999999998 0.9999999999999999
    vertex 19.999999999999996 -12.999999999999998 0.9999999999999999
    vertex 19.999999999999996 -9.999999999999998 0.9999999999999999
  endloop
endfacet
facet normal -1.534303999017408e-18 2.8973248478134488e-19 1.0
  outer loop
    vertex 19.999999999999996 -9.0 0.9999999999999999
    vertex 14.999999999999993 -6.999999999999998 1.0
    vertex 14.999999999999993 -9.0 0.9999999999999999
  endloop
endfacet
facet normal -1.534303999017408e-18 2.8973248478134488e-19 1.0
  outer loop
    vertex 14.999999999999993 -6.999999999999998 1.0
    vertex 19.999999999999996 -9.0 0.9999999999999999
    vertex 19.999999999999996 -6.999999999999998 1.0
  endloop
endfacet
facet normal -1.534303999017408e-18 2.8973248478134488e-19 1.0
  outer loop
    vertex 0.0 -6.0 0.9999999999999999
    vertex 1.9999999999999998 -3.0 0.9999999999999999
    vertex 0.0 3.0 0.9999999999999999
  endloop
endfacet
facet normal -1.534303999017408e-18 2.8973248478134488e-19 1.0
  outer loop
    vertex 1.9999999999999998 -3.0 0.9999999999999999
    vertex 0.0 -6.0 0.9999999999999999
    vertex 4.999999999999999 -6.0 0.9999999999999999
  endloop
endfacet
facet normal -1.534303999017408e-18 2.8973248478134488e-19 1.0
  outer loop
    vertex 1.9999999999999998 -3.0 0.9999999999999999
    vertex 4.999999999999999 -6.0 0.9999999999999999
    vertex 19.999999999999996 -3.0 0.9999999999999999
  endloop
endfacet
facet normal -1.534303999017408e-18 2.8973248478134488e-19 1.0
  outer loop
    vertex 19.999999999999996 -3.0 0.9999999999999999
    vertex 4.999999999999999 -6.0 0.9999999999999999
    vertex 14.999999999999998 -6.0 0.9999999999999999
  endloop
endfacet
facet normal -1.534303999017408e-18 2.8973248478134488e-19 1.0
  outer loop
    vertex 14.999999999999998 -6.0 0.9999999999999999
    vertex 4.999999999999999 -6.0 0.9999999999999999
    vertex 14.999999999999993 -6.999999999999998 1.0
  endloop
endfacet
facet normal -1.534303999017408e-18 2.8973248478134488e-19 1.0
  outer loop
    vertex 14.999999999999993 -6.999999999999998 1.0
    vertex 4.999999999999999 -6.0 0.9999999999999999
    vertex 14.999999999999993 -9.0 0.9999999999999999
  endloop
endfacet
facet normal -1.534303999017408e-18 2.8973248478134488e-19 1.0
  outer loop
    vertex 19.999999999999996 -3.0 0.9999999999999999
    vertex 14.999999999999998 -6.0 0.9999999999999999
    vertex 19.999999999999996 -6.0 0.9999999999999999
  endloop
endfacet
facet normal 0.0 -1.0 0.0
  outer loop
    vertex 19.999999999999996 3.0 3.9999999999999996
    vertex 14.999999999999998 3.0 0.9999999999999999
    vertex 19.999999999999996 3.0 0.9999999999999999
  endloop
endfacet
facet normal 0.0 -1.0 0.0
  outer loop
    vertex 14.999999999999998 3.0 0.9999999999999999
    vertex 19.999999999999996 3.0 3.9999999999999996
    vertex 14.999999999999998 3.0 3.9999999999999996
  endloop
endfacet
facet normal 0.0 1.0 0.0
  outer loop
    vertex 14.999999999999998 6.999999999999998 3.9999999999999996
    vertex 19.999999999999996 6.999999999999998 0.9999999999999999
    vertex 14.999999999999998 6.999999999999998 0.9999999999999999
  endloop
endfacet
facet normal 0.0 1.0 0.0
  outer loop
    vertex 19.999999999999996 6.999999999999998 0.9999999999999999
    vertex 14.999999999999998 6.999999999999998 3.9999999999999996
    vertex 19.999999999999996 6.999999999999998 3.9999999999999996
  endloop
endfacet
facet normal -1.0 -1.034293642283206e-31 9.399888275159659e-16
  outer loop
    vertex 14.999999999999998 3.0 3.9999999999999996
    vertex 14.999999999999993 3.9999999999999982 3.0
    vertex 14.999999999999998 3.0 0.9999999999999999
  endloop
endfacet
facet normal -1.0 -1.034293642283206e-31 9.399888275159659e-16
  outer loop
    vertex 14.999999999999993 3.9999999999999982 3.0
    vertex 14.999999999999998 3.0 3.9999999999999996
    vertex 14.999999999999998 6.999999999999998 3.9999999999999996
  endloop
endfacet
facet normal -1.0 -1.034293642283206e-31 9.399888275159659e-16
  outer loop
    vertex 14.999999999999993 3.9999999999999982 3.0
    vertex 14.999999999999998 6.999999999999998 3.9999999999999996
    vertex 14.999999999999993 6.0 3.0
  endloop
endfacet
facet normal -1.0 -1.034293642283206e-31 9.399888275159659e-16
  outer loop
    vertex 14.999999999999993 6.0 3.0
    vertex 14.999999999999998 6.999999999999998 3.9999999999999996
    vertex 14.999999999999993 6.0 1.0
  endloop
endfacet
facet normal -1.0 -1.034293642283206e-31 9.399888275159659e-16
  outer loop
    vertex 14.999999999999993 6.0 1.0
    vertex 14.999999999999998 6.999999999999998 3.9999999999999996
    vertex 14.999999999999998 6.999999999999998 0.9999999999999999
  endloop
endfacet
facet normal -1.0 -1.034293642283206e-31 9.399888275159659e-16
  outer loop
    vertex 14.999999999999993 3.9999999999999982 0.9999999999999999
    vertex 14.999999999999998 3.0 0.9999999999999999
    vertex 14.999999999999993 3.9999999999999982 3.0
  endloop
endfacet
facet normal 0.0 0.0 1.0
  outer loop
    vertex 19.999999999999996 3.0 3.9999999999999996
    vertex 14.999999999999998 6.999999999999998 3.9999999999999996
    vertex 14.999999999999998 3.0 3.9999999999999996
  endloop
endfacet
facet normal 0.0 0.0 1.0
  outer loop
    vertex 14.999999999999998 6.999999999999998 3.9999999999999996
    vertex 19.999999999999996 3.0 3.9999999999999996
    vertex 19.999999999999996 6.999999999999998 3.9999999999999996
  endloop
endfacet
facet normal 1.0 0.0 0.0
  outer loop
    vertex 19.999999999999996 9.999999999999998 0.0
    vertex 19.999999999999996 0.0 0.9999999999999999
    vertex 19.999999999999996 0.0 0.0
  endloop
endfacet
facet normal 1.0 0.0 0.0
  outer loop
    vertex 19.999999999999996 0.0 0.9999999999999999
    vertex 19.999999999999996 9.999999999999998 0.0
    vertex 19.999999999999996 3.0 0.9999999999999999
  endloop
endfacet
facet normal 1.0 0.0 0.0
  outer loop
    vertex 19.999999999999996 3.0 0.9999999999999999
    vertex 19.999999999999996 9.999999999999998 0.0
    vertex 19.999999999999996 3.9999999999999982 0.9999999999999999
  endloop
endfacet
facet normal 1.0 0.0 0.0
  outer loop
    vertex 19.999999999999996 3.0 0.9999999999999999
    vertex 19.999999999999996 3.9999999999999982 0.9999999999999999
    vertex 19.999999999999996 3.0 3.9999999999999996
  endloop
endfacet
facet normal 1.0 0.0 0.0
  outer loop
    vertex 19.999999999999996 3.9999999999999982 0.9999999999999999
    vertex 19.999999999999996 9.999999999999998 0.0
    vertex 19.999999999999996 6.0 1.0
  endloop
endfacet
facet normal 1.0 0.0 0.0
  outer loop
    vertex 19.999999999999996 6.0 1.0
    vertex 19.999999999999996 9.999999999999998 0.0
    vertex 19.999999999999996 6.999999999999998 0.9999999999999999
  endloop
endfacet
facet normal 1.0 0.0 0.0
  outer loop
    vertex 19.999999999999996 6.0 1.0
    vertex 19.999999999999996 6.999999999999998 0.9999999999999999
    vertex 19.999999999999996 6.0 3.0
  endloop
endfacet
facet normal 1.0 0.0 0.0
  outer loop
    vertex 19.999999999999996 6.999999999999998 0.9999999999999999
    vertex 19.999999999999996 9.999999999999998 0.0
    vertex 19.999999999999996 9.999999999999998 0.9999999999999999
  endloop
endfacet
facet normal 1.0 0.0 0.0
  outer loop
    vertex 19.999999999999996 3.0 3.9999999999999996
    vertex 19.999999999999996 3.9999999999999982 3.0
    vertex 19.999999999999996 6.999999999999998 3.9999999999999996
  endloop
endfacet
facet normal 1.0 0.0 0.0
  outer loop
    vertex 19.999999999999996 3.9999999999999982 3.0
    vertex 19.999999999999996 3.0 3.9999999999999996
    vertex 19.999999999999996 3.9999999999999982 0.9999999999999999
  endloop
endfacet
facet normal 1.0 0.0 0.0
  outer loop
    vertex 19.999999999999996 6.999999999999998 3.9999999999999996
    vertex 19.999999999999996 3.9999999999999982 3.0
    vertex 19.999999999999996 6.0 3.0
  endloop
endfacet
facet normal 1.0 0.0 0.0
  outer loop
    vertex 19.999999999999996 6.999999999999998 3.9999999999999996
    vertex 19.999999999999996 6.0 3.0
    vertex 19.999999999999996 6.999999999999998 0.9999999999999999
  endloop
endfacet
facet normal 0.0 1.0 0.0
  outer loop
    vertex 0.0 9.999999999999998 0.9999999999999999
    vertex 19.999999999999996 9.999999999999998 0.0
    vertex 0.0 9.999999999999998 0.0
  endloop
endfacet
facet normal 0.0 1.0 0.0
  outer loop
    vertex 19.999999999999996 9.999999999999998 0.0
    vertex 0.0 9.999999999999998 0.9999999999999999
    vertex 19.999999999999996 9.999999999999998 0.9999999999999999
  endloop
endfacet
facet normal 0.0 0.0 1.0
  outer loop
    vertex 4.999999999999999 3.0 3.9999999999999996
    vertex 0.0 6.999999999999998 3.9999999999999996
    vertex 0.0 3.0 3.9999999999999996
  endloop
endfacet
facet normal 0.0 0.0 1.0
  outer loop
    vertex 0.0 6.999999999999998 3.9999999999999996
    vertex 4.999999999999999 3.0 3.9999999999999996
    vertex 4.999999999999999 6.999999999999998 3.9999999999999996
  endloop
endfacet
facet normal 0.0 1.0 0.0
  outer loop
    vertex 0.0 6.999999999999998 3.9999999999999996
    vertex 4.999999999999999 6.999999999999998 0.9999999999999999
    vertex 0.0 6.999999999999998 0.9999999999999999
  endloop
endfacet
facet normal 0.0 1.0 0.0
  outer loop
    vertex 4.999999999999999 6.999999999999998 0.9999999999999999
    vertex 0.0 6.999999999999998 3.9999999999999996
    vertex 4.999999999999999 6.999999999999998 3.9999999999999996
  endloop
endfacet
facet normal -7.049916206369745e-17 -1.0 -0.0
  outer loop
    vertex 4.999999999999999 3.0 3.9999999999999996
    vertex 0.0 3.0 0.9999999999999999
    vertex 4.999999999999999 3.0 0.9999999999999999
  endloop
endfacet
facet normal -7.049916206369745e-17 -1.0 -0.0
  outer loop
    vertex 0.0 3.0 0.9999999999999999
    vertex 4.999999999999999 3.0 3.9999999999999996
    vertex 0.0 3.0 3.9999999999999996
  endloop
endfacet
facet normal 1.0 0.0 0.0
  outer loop
    vertex 4.999999999999999 6.999999999999998 0.9999999999999999
    vertex 4.999999999999999 6.0 2.9862534604205337
    vertex 4.999999999999999 6.0 0.986253460420534
  endloop
endfacet
facet normal 1.0 0.0 0.0
  outer loop
    vertex 4.999999999999999 3.9999999999999982 0.986253460420534
    vertex 4.999999999999999 3.0 3.9999999999999996
    vertex 4.999999999999999 3.0 0.9999999999999999
  endloop
endfacet
facet normal 1.0 0.0 0.0
  outer loop
    vertex 4.999999999999999 3.0 3.9999999999999996
    vertex 4.999999999999999 3.9999999999999982 0.986253460420534
    vertex 4.999999999999999 3.9999999999999982 2.9862534604205337
  endloop
endfacet
facet normal 1.0 0.0 0.0
  outer loop
    vertex 4.999999999999999 3.0 3.9999999999999996
    vertex 4.999999999999999 3.9999999999999982 2.9862534604205337
    vertex 4.999999999999999 6.999999999999998 3.9999999999999996
  endloop
endfacet
facet normal 1.0 0.0 0.0
  outer loop
    vertex 4.999999999999999 6.999999999999998 3.9999999999999996
    vertex 4.999999999999999 3.9999999999999982 2.9862534604205337
    vertex 4.999999999999999 6.0 2.9862534604205337
  endloop
endfacet
facet normal 1.0 0.0 0.0
  outer loop
    vertex 4.999999999999999 6.999999999999998 3.9999999999999996
    vertex 4.999999999999999 6.0 2.9862534604205337
    vertex 4.999999999999999 6.999999999999998 0.9999999999999999
  endloop
endfacet
facet normal -0.0 -0.0 -1.0
  outer loop
    vertex 19.999999999999996 6.0 3.0
    vertex 14.999999999999993 3.9999999999999982 3.0
    vertex 14.999999999999993 6.0 3.0
  endloop
endfacet
facet normal -0.0 -0.0 -1.0
  outer loop
    vertex 14.999999999999993 3.9999999999999982 3.0
    vertex 19.999999999999996 6.0 3.0
    vertex 19.999999999999996 3.9999999999999982 3.0
  endloop
endfacet
facet normal 0.0 1.0 0.0
  outer loop
    vertex 14.999999999999993 3.9999999999999982 3.0
    vertex 19.999999999999996 3.9999999999999982 0.9999999999999999
    vertex 14.999999999999993 3.9999999999999982 0.9999999999999999
  endloop
endfacet
facet normal 0.0 1.0 0.0
  outer loop
    vertex 19.999999999999996 3.9999999999999982 0.9999999999999999
    vertex 14.999999999999993 3.9999999999999982 3.0
    vertex 19.999999999999996 3.9999999999999982 3.0
  endloop
endfacet
facet normal 0.0 -1.0 0.0
  outer loop
    vertex 19.999999999999996 6.0 3.0
    vertex 14.999999999999993 6.0 1.0
    vertex 19.999999999999996 6.0 1.0
  endloop
endfacet
facet normal 0.0 -1.0 0.0
  outer loop
    vertex 14.999999999999993 6.0 1.0
    vertex 19.999999999999996 6.0 3.0
    vertex 14.999999999999993 6.0 3.0
  endloop
endfacet
facet normal -1.0 0.0 0.0
  outer loop
    vertex 0.0 -35.99999999999999 3.9999999999999996
    vertex 0.0 -35.0 2.9862534604205337
    vertex 0.0 -35.99999999999999 0.9999999999999999
  endloop
endfacet
facet normal -1.0 0.0 0.0
  outer loop
    vertex 0.0 -35.0 2.9862534604205337
    vertex 0.0 -35.99999999999999 3.9999999999999996
    vertex 0.0 -31.999999999999996 3.9999999999999996
  endloop
endfacet
facet normal -1.0 0.0 0.0
  outer loop
    vertex 0.0 -35.0 2.9862534604205337
    vertex 0.0 -31.999999999999996 3.9999999999999996
    vertex 0.0 -32.99999999999999 2.9862534604205337
  endloop
endfacet
facet normal -1.0 0.0 0.0
  outer loop
    vertex 0.0 -32.99999999999999 2.9862534604205337
    vertex 0.0 -31.999999999999996 3.9999999999999996
    vertex 0.0 -32.99999999999999 0.986253460420534
  endloop
endfacet
facet normal -1.0 0.0 0.0
  outer loop
    vertex 0.0 -22.999999999999996 3.9999999999999996
    vertex 0.0 -22.0 2.9862534604205337
    vertex 0.0 -22.999999999999996 0.9999999999999999
  endloop
endfacet
facet normal -1.0 0.0 0.0
  outer loop
    vertex 0.0 -22.0 2.9862534604205337
    vertex 0.0 -22.999999999999996 3.9999999999999996
    vertex 0.0 -19.0 3.9999999999999996
  endloop
endfacet
facet normal -1.0 0.0 0.0
  outer loop
    vertex 0.0 -22.0 2.9862534604205337
    vertex 0.0 -19.0 3.9999999999999996
    vertex 0.0 -19.999999999999996 2.9862534604205337
  endloop
endfacet
facet normal -1.0 0.0 0.0
  outer loop
    vertex 0.0 -19.999999999999996 2.9862534604205337
    vertex 0.0 -19.0 3.9999999999999996
    vertex 0.0 -19.999999999999996 0.986253460420534
  endloop
endfacet
facet normal -1.0 0.0 0.0
  outer loop
    vertex 0.0 -9.999999999999998 3.9999999999999996
    vertex 0.0 -9.0 2.9862534604205337
    vertex 0.0 -9.999999999999998 0.9999999999999999
  endloop
endfacet
facet normal -1.0 0.0 0.0
  outer loop
    vertex 0.0 -9.0 2.9862534604205337
    vertex 0.0 -9.999999999999998 3.9999999999999996
    vertex 0.0 -6.0 3.9999999999999996
  endloop
endfacet
facet normal -1.0 0.0 0.0
  outer loop
    vertex 0.0 -9.0 2.9862534604205337
    vertex 0.0 -6.0 3.9999999999999996
    vertex 0.0 -6.999999999999998 2.9862534604205337
  endloop
endfacet
facet normal -1.0 0.0 0.0
  outer loop
    vertex 0.0 -6.999999999999998 2.9862534604205337
    vertex 0.0 -6.0 3.9999999999999996
    vertex 0.0 -6.999999999999998 0.986253460420534
  endloop
endfacet
facet normal -1.0 0.0 0.0
  outer loop
    vertex 0.0 3.0 3.9999999999999996
    vertex 0.0 3.9999999999999982 2.9862534604205337
    vertex 0.0 3.0 0.9999999999999999
  endloop
endfacet
facet normal -1.0 0.0 0.0
  outer loop
    vertex 0.0 3.9999999999999982 2.9862534604205337
    vertex 0.0 3.0 3.9999999999999996
    vertex 0.0 6.999999999999998 3.9999999999999996
  endloop
endfacet
facet normal -1.0 0.0 0.0
  outer loop
    vertex 0.0 3.9999999999999982 2.9862534604205337
    vertex 0.0 6.999999999999998 3.9999999999999996
    vertex 0.0 6.0 2.9862534604205337
  endloop
endfacet
facet normal -1.0 0.0 0.0
  outer loop
    vertex 0.0 6.0 2.9862534604205337
    vertex 0.0 6.999999999999998 3.9999999999999996
    vertex 0.0 6.0 0.986253460420534
  endloop
endfacet
facet normal -1.0 0.0 0.0
  outer loop
    vertex 0.0 -35.99999999999999 0.9999999999999999
    vertex 0.0 -41.99999999999999 0.0
    vertex 0.0 -41.99999999999999 0.9999999999999999
  endloop
endfacet
facet normal -1.0 0.0 0.0
  outer loop
    vertex 0.0 -41.99999999999999 0.0
    vertex 0.0 -35.99999999999999 0.9999999999999999
    vertex 0.0 9.999999999999998 0.0
  endloop
endfacet
facet normal -1.0 0.0 0.0
  outer loop
    vertex 0.0 9.999999999999998 0.0
    vertex 0.0 -35.99999999999999 0.9999999999999999
    vertex 0.0 -35.0 0.986253460420534
  endloop
endfacet
facet normal -1.0 0.0 0.0
  outer loop
    vertex 0.0 -35.0 0.986253460420534
    vertex 0.0 -35.99999999999999 0.9999999999999999
    vertex 0.0 -35.0 2.9862534604205337
  endloop
endfacet
facet normal -1.0 0.0 0.0
  outer loop
    vertex 0.0 9.999999999999998 0.0
    vertex 0.0 -35.0 0.986253460420534
    vertex 0.0 -32.99999999999999 0.986253460420534
  endloop
endfacet
facet normal -1.0 0.0 0.0
  outer loop
    vertex 0.0 9.999999999999998 0.0
    vertex 0.0 -32.99999999999999 0.986253460420534
    vertex 0.0 -31.999999999999996 0.9999999999999999
  endloop
endfacet
facet normal -1.0 0.0 0.0
  outer loop
    vertex 0.0 -31.999999999999996 0.9999999999999999
    vertex 0.0 -32.99999999999999 0.986253460420534
    vertex 0.0 -31.999999999999996 3.9999999999999996
  endloop
endfacet
facet normal -1.0 0.0 0.0
  outer loop
    vertex 0.0 9.999999999999998 0.0
    vertex 0.0 -31.999999999999996 0.9999999999999999
    vertex 0.0 -22.999999999999996 0.9999999999999999
  endloop
endfacet
facet normal -1.0 0.0 0.0
  outer loop
    vertex 0.0 9.999999999999998 0.0
    vertex 0.0 -22.999999999999996 0.9999999999999999
    vertex 0.0 -22.0 0.986253460420534
  endloop
endfacet
facet normal -1.0 0.0 0.0
  outer loop
    vertex 0.0 -22.0 0.986253460420534
    vertex 0.0 -22.999999999999996 0.9999999999999999
    vertex 0.0 -22.0 2.9862534604205337
  endloop
endfacet
facet normal -1.0 0.0 0.0
  outer loop
    vertex 0.0 9.999999999999998 0.0
    vertex 0.0 -22.0 0.986253460420534
    vertex 0.0 -19.999999999999996 0.986253460420534
  endloop
endfacet
facet normal -1.0 0.0 0.0
  outer loop
    vertex 0.0 9.999999999999998 0.0
    vertex 0.0 -19.999999999999996 0.986253460420534
    vertex 0.0 -19.0 0.9999999999999999
  endloop
endfacet
facet normal -1.0 0.0 0.0
  outer loop
    vertex 0.0 -19.0 0.9999999999999999
    vertex 0.0 -19.999999999999996 0.986253460420534
    vertex 0.0 -19.0 3.9999999999999996
  endloop
endfacet
facet normal -1.0 0.0 0.0
  outer loop
    vertex 0.0 9.999999999999998 0.0
    vertex 0.0 -19.0 0.9999999999999999
    vertex 0.0 -9.999999999999998 0.9999999999999999
  endloop
endfacet
facet normal -1.0 0.0 0.0
  outer loop
    vertex 0.0 9.999999999999998 0.0
    vertex 0.0 -9.999999999999998 0.9999999999999999
    vertex 0.0 -9.0 0.986253460420534
  endloop
endfacet
facet normal -1.0 0.0 0.0
  outer loop
    vertex 0.0 -9.0 0.986253460420534
    vertex 0.0 -9.999999999999998 0.9999999999999999
    vertex 0.0 -9.0 2.9862534604205337
  endloop
endfacet
facet normal -1.0 0.0 0.0
  outer loop
    vertex 0.0 9.999999999999998 0.0
    vertex 0.0 -9.0 0.986253460420534
    vertex 0.0 -6.999999999999998 0.986253460420534
  endloop
endfacet
facet normal -1.0 0.0 0.0
  outer loop
    vertex 0.0 9.999999999999998 0.0
    vertex 0.0 -6.999999999999998 0.986253460420534
    vertex 0.0 -6.0 0.9999999999999999
  endloop
endfacet
facet normal -1.0 0.0 0.0
  outer loop
    vertex 0.0 -6.0 0.9999999999999999
    vertex 0.0 -6.999999999999998 0.986253460420534
    vertex 0.0 -6.0 3.9999999999999996
  endloop
endfacet
facet normal -1.0 0.0 0.0
  outer loop
    vertex 0.0 9.999999999999998 0.0
    vertex 0.0 -6.0 0.9999999999999999
    vertex 0.0 3.0 0.9999999999999999
  endloop
endfacet
facet normal -1.0 0.0 0.0
  outer loop
    vertex 0.0 9.999999999999998 0.0
    vertex 0.0 3.0 0.9999999999999999
    vertex 0.0 3.9999999999999982 0.986253460420534
  endloop
endfacet
facet normal -1.0 0.0 0.0
  outer loop
    vertex 0.0 3.9999999999999982 0.986253460420534
    vertex 0.0 3.0 0.9999999999999999
    vertex 0.0 3.9999999999999982 2.9862534604205337
  endloop
endfacet
facet normal -1.0 0.0 0.0
  outer loop
    vertex 0.0 9.999999999999998 0.0
    vertex 0.0 3.9999999999999982 0.986253460420534
    vertex 0.0 6.0 0.986253460420534
  endloop
endfacet
facet normal -1.0 0.0 0.0
  outer loop
    vertex 0.0 9.999999999999998 0.0
    vertex 0.0 6.0 0.986253460420534
    vertex 0.0 6.999999999999998 0.9999999999999999
  endloop
endfacet
facet normal -1.0 0.0 0.0
  outer loop
    vertex 0.0 6.999999999999998 0.9999999999999999
    vertex 0.0 6.0 0.986253460420534
    vertex 0.0 6.999999999999998 3.9999999999999996
  endloop
endfacet
facet normal -1.0 0.0 0.0
  outer loop
    vertex 0.0 9.999999999999998 0.0
    vertex 0.0 6.999999999999998 0.9999999999999999
    vertex 0.0 9.999999999999998 0.9999999999999999
  endloop
endfacet
facet normal 0.0 0.0 -1.0
  outer loop
    vertex 4.999999999999999 6.0 2.9862534604205337
    vertex 0.0 3.9999999999999982 2.9862534604205337
    vertex 0.0 6.0 2.9862534604205337
  endloop
endfacet
facet normal 0.0 0.0 -1.0
  outer loop
    vertex 0.0 3.9999999999999982 2.9862534604205337
    vertex 4.999999999999999 6.0 2.9862534604205337
    vertex 4.999999999999999 3.9999999999999982 2.9862534604205337
  endloop
endfacet
facet normal 0.0 -1.0 0.0
  outer loop
    vertex 4.999999999999999 6.0 2.9862534604205337
    vertex 0.0 6.0 0.986253460420534
    vertex 4.999999999999999 6.0 0.986253460420534
  endloop
endfacet
facet normal 0.0 -1.0 0.0
  outer loop
    vertex 0.0 6.0 0.986253460420534
    vertex 4.999999999999999 6.0 2.9862534604205337
    vertex 0.0 6.0 2.9862534604205337
  endloop
endfacet
facet normal -0.0004872188821044871 0.0008700337180437276 0.9999995028294217
  outer loop
    vertex 4.999999999999999 3.9999999999999982 0.986253460420534
    vertex 0.0 6.0 0.986253460420534
    vertex 0.0 3.9999999999999982 0.986253460420534
  endloop
endfacet
facet normal -0.0004872188821044871 0.0008700337180437276 0.9999995028294217
  outer loop
    vertex 0.0 6.0 0.986253460420534
    vertex 4.999999999999999 3.9999999999999982 0.986253460420534
    vertex 4.999999999999999 6.0 0.986253460420534
  endloop
endfacet
facet normal -0.0004872188821044871 0.0008700337180437276 0.9999995028294217
  outer loop
    vertex 4.999999999999999 6.0 0.986253460420534
    vertex 4.999999999999999 3.9999999999999982 0.986253460420534
    vertex 19.999999999999996 0.0 0.9999999999999999
  endloop
endfacet
facet normal 0.0 1.0 0.0
  outer loop
    vertex 0.0 3.9999999999999982 2.9862534604205337
    vertex 4.999999999999999 3.9999999999999982 0.986253460420534
    vertex 0.0 3.9999999999999982 0.986253460420534
  endloop
endfacet
facet normal 0.0 1.0 0.0
  outer loop
    vertex 4.999999999999999 3.9999999999999982 0.986253460420534
    vertex 0.0 3.9999999999999982 2.9862534604205337
    vertex 4.999999999999999 3.9999999999999982 2.9862534604205337
  endloop
endfacet
facet normal 0.0 -1.0 0.0
  outer loop
    vertex 19.999999999999996 0.0 0.9999999999999999
    vertex 1.9999999999999996 0.0 0.0
    vertex 19.999999999999996 0.0 0.0
  endloop
endfacet
facet normal 0.0 -1.0 0.0
  outer loop
    vertex 1.9999999999999996 0.0 0.0
    vertex 19.999999999999996 0.0 0.9999999999999999
    vertex 1.9999999999999998 0.0 0.9999999999999999
  endloop
endfacet
facet normal 1.0 1.4237356866801626e-33 -3.5249581031848723e-16
  outer loop
    vertex 1.9999999999999996 0.0 0.0
    vertex 1.9999999999999998 -3.0 0.9999999999999999
    vertex 1.9999999999999996 -3.0 0.0
  endloop
endfacet
facet normal 1.0 1.4237356866801626e-33 -3.5249581031848723e-16
  outer loop
    vertex 1.9999999999999998 -3.0 0.9999999999999999
    vertex 1.9999999999999996 0.0 0.0
    vertex 1.9999999999999998 0.0 0.9999999999999999
  endloop
endfacet
facet normal 0.002749037800401265 0.01374518900200633 0.9999017514588477
  outer loop
    vertex 19.999999999999996 0.0 0.9999999999999999
    vertex 4.999999999999999 3.9999999999999982 0.986253460420534
    vertex 4.999999999999999 3.0 0.9999999999999999
  endloop
endfacet
facet normal -0.006414313814487485 -0.013744958173901756 0.9998849597344122
  outer loop
    vertex 19.999999999999996 0.0 0.9999999999999999
    vertex 4.999999999999999 6.999999999999998 0.9999999999999999
    vertex 4.999999999999999 6.0 0.986253460420534
  endloop
endfacet
facet normal -2.34341289782907e-18 -3.9802241966944175e-18 1.0
  outer loop
    vertex 4.999999999999999 6.999999999999998 0.9999999999999999
    vertex 14.999999999999998 3.0 0.9999999999999999
    vertex 14.999999999999993 3.9999999999999982 0.9999999999999999
  endloop
endfacet
facet normal -2.34341289782907e-18 -3.9802241966944175e-18 1.0
  outer loop
    vertex 14.999999999999998 3.0 0.9999999999999999
    vertex 4.999999999999999 6.999999999999998 0.9999999999999999
    vertex 19.999999999999996 0.0 0.9999999999999999
  endloop
endfacet
facet normal -2.34341289782907e-18 -3.9802241966944175e-18 1.0
  outer loop
    vertex 14.999999999999998 3.0 0.9999999999999999
    vertex 19.999999999999996 0.0 0.9999999999999999
    vertex 19.999999999999996 3.0 0.9999999999999999
  endloop
endfacet
facet normal -2.34341289782907e-18 -3.9802241966944175e-18 1.0
  outer loop
    vertex 19.999999999999996 3.9999999999999982 0.9999999999999999
    vertex 14.999999999999993 6.0 1.0
    vertex 14.999999999999993 3.9999999999999982 0.9999999999999999
  endloop
endfacet
facet normal -2.34341289782907e-18 -3.9802241966944175e-18 1.0
  outer loop
    vertex 14.999999999999993 6.0 1.0
    vertex 19.999999999999996 3.9999999999999982 0.9999999999999999
    vertex 19.999999999999996 6.0 1.0
  endloop
endfacet
facet normal -2.34341289782907e-18 -3.9802241966944175e-18 1.0
  outer loop
    vertex 4.999999999999999 6.999999999999998 0.9999999999999999
    vertex 0.0 9.999999999999998 0.9999999999999999
    vertex 0.0 6.999999999999998 0.9999999999999999
  endloop
endfacet
facet normal -2.34341289782907e-18 -3.9802241966944175e-18 1.0
  outer loop
    vertex 0.0 9.999999999999998 0.9999999999999999
    vertex 4.999999999999999 6.999999999999998 0.9999999999999999
    vertex 19.999999999999996 9.999999999999998 0.9999999999999999
  endloop
endfacet
facet normal -2.34341289782907e-18 -3.9802241966944175e-18 1.0
  outer loop
    vertex 19.999999999999996 9.999999999999998 0.9999999999999999
    vertex 4.999999999999999 6.999999999999998 0.9999999999999999
    vertex 14.999999999999998 6.999999999999998 0.9999999999999999
  endloop
endfacet
facet normal -2.34341289782907e-18 -3.9802241966944175e-18 1.0
  outer loop
    vertex 14.999999999999998 6.999999999999998 0.9999999999999999
    vertex 4.999999999999999 6.999999999999998 0.9999999999999999
    vertex 14.999999999999993 6.0 1.0
  endloop
endfacet
facet normal -2.34341289782907e-18 -3.9802241966944175e-18 1.0
  outer loop
    vertex 14.999999999999993 6.0 1.0
    vertex 4.999999999999999 6.999999999999998 0.9999999999999999
    vertex 14.999999999999993 3.9999999999999982 0.9999999999999999
  endloop
endfacet
facet normal -2.34341289782907e-18 -3.9802241966944175e-18 1.0
  outer loop
    vertex 19.999999999999996 9.999999999999998 0.9999999999999999
    vertex 14.999999999999998 6.999999999999998 0.9999999999999999
    vertex 19.999999999999996 6.999999999999998 0.9999999999999999
  endloop
endfacet
facet normal 9.791550286624645e-18 1.0 1.762479051592436e-16
  outer loop
    vertex 1.9999999999999998 -3.0 0.9999999999999999
    vertex 19.999999999999996 -3.0 0.0
    vertex 1.9999999999999996 -3.0 0.0
  endloop
endfacet
facet normal 9.791550286624645e-18 1.0 1.762479051592436e-16
  outer loop
    vertex 19.999999999999996 -3.0 0.0
    vertex 1.9999999999999998 -3.0 0.9999999999999999
    vertex 19.999999999999996 -3.0 0.9999999999999999
  endloop
endfacet
endsolid 多功能支架
